<svg width="38" height="37" viewBox="0 0 38 37" fill="none" xmlns="http://www.w3.org/2000/svg">
<ellipse cx="18.5002" cy="18.5117" rx="16.6215" ry="16.6115" fill="#26325E"/>
<ellipse cx="18.5112" cy="18.5" rx="18.5112" ry="18.5" fill="url(#paint0_radial_8335_2389)"/>
<path d="M13.4003 22.525C13.2304 22.0798 13.1637 21.6527 13.1868 21.2152C13.2319 20.3657 13.435 19.5595 13.9017 18.8384C14.419 18.0391 15.1525 17.5365 16.0806 17.3297C16.3435 17.2711 16.6174 17.2305 16.8855 17.2349C17.2485 17.241 17.5678 17.3764 17.7632 17.7127C17.9087 17.9631 17.9486 18.2371 17.9224 18.5197C17.8401 19.4059 17.3027 19.9978 16.6253 20.4931C16.2912 20.7375 15.9199 20.916 15.5262 21.0419C15.4174 21.0767 15.3601 21.1258 15.3782 21.2361C15.4056 21.4032 15.4225 21.576 15.4806 21.7327C15.5399 21.8925 15.6673 21.979 15.8595 21.9848C16.2372 21.9961 16.577 21.8817 16.9092 21.7236C17.4305 21.4757 17.7991 21.0592 18.138 20.6107C18.2577 20.4523 18.2419 20.2569 18.2614 20.0755C18.3291 19.4443 18.3851 18.8119 18.445 18.1798C18.4793 17.8174 18.5198 17.4555 18.5426 17.0923C18.5508 16.9626 18.5888 16.8931 18.7193 16.8668C19.327 16.7447 19.9336 16.6176 20.5409 16.4938C20.5771 16.4865 20.6161 16.4929 20.6829 16.4929C20.6705 16.6549 20.6613 16.8055 20.647 16.9558C20.6197 17.2409 20.5897 17.5257 20.5604 17.8106C20.4828 18.5653 20.403 19.3197 20.3287 20.0747C20.3091 20.2751 20.2996 20.4771 20.2976 20.6785C20.2954 20.8936 20.4007 20.9605 20.6162 20.9061C21.0156 20.8054 21.2652 20.5253 21.4684 20.1949C21.7305 19.7687 21.9123 19.3079 22.0031 18.8159C22.0718 18.4433 22.1234 18.0674 22.1767 17.6921C22.1894 17.6022 22.1786 17.5089 22.1786 17.3966C22.0966 17.4051 22.034 17.3989 21.9815 17.4191C21.5507 17.5847 21.0922 17.0559 21.2235 16.5972C21.2976 16.3388 21.476 16.1755 21.7155 16.0752C21.9461 15.9787 22.1848 15.914 22.4382 15.968C22.8422 16.0543 23.0313 16.3451 23.112 16.7155C23.2837 17.5033 23.217 18.2859 23.0428 19.0663C22.8857 19.7701 22.6273 20.4266 22.1985 21.0118C21.6294 21.7884 20.8726 22.2493 19.921 22.4075C19.5965 22.4614 19.2862 22.4402 18.9801 22.3409C18.6947 22.2482 18.49 22.053 18.351 21.7885C18.3263 21.7414 18.302 21.6941 18.2661 21.6249C18.1835 21.715 18.1083 21.7891 18.0421 21.8705C17.6682 22.3299 17.189 22.6486 16.6814 22.9445C15.9179 23.3896 15.074 23.5694 14.2295 23.7535C13.7682 23.8541 13.3025 23.9384 12.8355 24.0076C12.4604 24.0632 12.081 24.1038 11.7024 24.115C11.445 24.1227 11.2806 24.2033 11.1292 24.4224C10.7908 24.9128 10.4273 25.3876 10.0508 25.8499C9.6025 26.4004 9.04371 26.8125 8.38072 27.0789C6.0394 28.0541 3.40858 27.2903 3.79364 24.9054C4.12486 23.5285 4.99604 22.6428 6.31136 22.18C7.1366 21.8896 7.99355 21.8356 8.86105 21.9165C8.92289 21.9222 8.98509 21.9247 9.0471 21.9267C9.31787 21.9359 9.33358 21.9244 9.35241 21.6498C9.36087 21.5261 9.35783 21.4013 9.3537 21.2773C9.34267 20.9519 9.32816 20.6266 9.3152 20.3013C9.28249 19.48 9.25374 18.6585 9.21533 17.8375C9.20164 17.5438 9.16921 17.2506 9.13715 16.9581C9.11592 16.7644 9.10949 16.7636 8.90497 16.7621C8.58652 16.7598 8.26633 16.7802 7.94981 16.7549C7.22572 16.697 6.62172 16.4179 6.30695 15.7176C6.0903 15.2358 6.14543 14.7496 6.37411 14.2802C6.39093 14.2456 6.41555 14.2145 6.43935 14.1839C6.60693 13.9682 6.80483 13.924 7.0246 14.0809C7.226 14.2247 7.40764 14.396 7.60114 14.5512C7.87392 14.7701 8.17004 14.9253 8.53682 14.8981C8.81576 14.8775 8.89404 14.821 8.93327 14.5484C9.00392 14.0579 9.05298 13.564 9.1342 13.0754C9.29471 12.11 9.55454 11.1804 10.2189 10.4201C10.697 9.8728 11.293 9.51937 12.021 9.45776C12.636 9.40579 13.1537 9.65885 13.5134 10.1563C14.1931 11.0964 14.2502 12.1021 13.7512 13.1426C13.5242 13.6159 13.1703 14.0016 12.8528 14.4117C12.5633 14.7856 12.2587 15.1479 11.9752 15.5262C11.808 15.7493 11.6592 15.9946 11.6377 16.2804C11.6222 16.4866 11.6438 16.697 11.6631 16.9043C11.7178 17.4901 11.7723 18.0761 11.8411 18.6604C11.8965 19.1307 11.9482 19.6002 11.9223 20.0743C11.8991 20.4997 11.8745 20.9251 11.8432 21.3499C11.8188 21.6819 11.7836 22.0131 11.7525 22.3444C11.745 22.4249 11.7671 22.4807 11.8572 22.4936C11.9031 22.5001 11.9479 22.5234 11.9932 22.5237C12.4501 22.5258 12.9069 22.525 13.4003 22.525ZM9.02891 23.8691C8.51532 23.7616 8.00779 23.7039 7.49842 23.7698C7.25705 23.801 7.0224 23.8943 6.78912 23.9728C6.64295 24.022 6.50605 24.0979 6.36345 24.1584C6.01827 24.3049 5.78049 24.5669 5.61456 24.8899C5.38882 25.3292 5.64176 25.8037 6.12577 25.8982C6.62237 25.9952 7.0869 25.8936 7.51532 25.6566C8.20266 25.2763 8.67436 24.691 9.00521 23.9869C9.02055 23.9544 9.02018 23.9149 9.02891 23.8691ZM11.3576 13.4871C11.4814 13.3243 11.5917 13.1864 11.6943 13.043C11.9751 12.6502 12.2251 12.2398 12.3551 11.7698C12.4313 11.4942 12.4304 11.2185 12.2968 10.9552C12.2085 10.7812 12.0804 10.7431 11.9174 10.8558C11.8493 10.9029 11.784 10.9673 11.7435 11.0386C11.6675 11.1726 11.5862 11.3116 11.55 11.4589C11.4635 11.8113 11.3846 12.1673 11.3356 12.5264C11.2942 12.8304 11.2384 13.1415 11.3576 13.4871ZM15.3953 20.2023C15.4138 20.2107 15.4208 20.217 15.4267 20.216C15.4492 20.2121 15.473 20.2097 15.4933 20.2002C15.9446 19.9885 16.2758 19.6509 16.4968 19.2096C16.6429 18.9179 16.6801 18.6035 16.6068 18.2837C16.5694 18.1207 16.5065 18.0951 16.3553 18.16C16.1933 18.2296 16.0775 18.3523 15.9809 18.4961C15.6329 19.0141 15.495 19.6025 15.3953 20.2023Z" fill="white"/>
<path d="M29.2791 14.7033C29.2791 14.8063 29.2791 14.8744 29.2791 14.9686C29.3352 14.9326 29.3785 14.9102 29.4158 14.88C29.8366 14.5402 30.3322 14.3667 30.8578 14.3559C31.6339 14.34 32.1256 14.6978 32.2073 15.5456C32.2581 16.0734 32.1759 16.5974 32.0986 17.1196C32.0543 17.4184 31.9925 17.7193 31.9942 18.0189C31.9966 18.452 32.0818 18.5695 32.5227 18.4426C32.6807 18.3972 32.8225 18.295 32.9693 18.2199C33.1086 18.8734 32.7328 19.5512 32.0983 19.8314C31.7971 19.9643 31.4831 20.0335 31.1487 20.022C30.4632 19.9984 30.0691 19.4835 30.0225 18.9312C29.9848 18.4836 30.0113 18.0341 30.0813 17.5859C30.1433 17.189 30.1671 16.7856 30.1961 16.3843C30.2036 16.2792 30.178 16.168 30.1493 16.0647C30.082 15.8219 29.9468 15.7633 29.7104 15.863C29.4977 15.9527 29.371 16.1233 29.2681 16.3213C29.0986 16.6472 29.0766 17.0037 29.0406 17.3579C28.9647 18.1051 28.8874 18.8521 28.8138 19.5994C28.791 19.8307 28.7812 20.0632 28.7603 20.2947C28.7416 20.5004 28.71 20.5309 28.5147 20.5717C27.9315 20.6935 27.3484 20.8163 26.7649 20.9371C26.7288 20.9445 26.6898 20.9381 26.623 20.9381C26.632 20.8271 26.6404 20.7247 26.6512 20.5922C26.5738 20.6432 26.5152 20.6751 26.4641 20.7163C26.0049 21.0876 25.477 21.308 24.8946 21.3623C24.231 21.4241 23.6461 21.1363 23.4828 20.3476C23.4109 20.0007 23.4206 19.6567 23.476 19.3084C23.5513 18.8347 23.6127 18.3588 23.6778 17.8835C23.6929 17.7735 23.7296 17.7026 23.8559 17.678C24.2739 17.5966 24.6892 17.5015 25.1061 17.4139C25.3318 17.3664 25.5585 17.3233 25.8105 17.2732C25.8105 17.3786 25.8202 17.4623 25.8089 17.5431C25.7383 18.0492 25.6605 18.5542 25.5904 19.0602C25.5661 19.236 25.5439 19.4137 25.5439 19.5907C25.5441 19.7992 25.6115 19.8525 25.8189 19.833C26.1336 19.8035 26.3674 19.6334 26.554 19.3901C26.7293 19.1617 26.8135 18.8969 26.8432 18.6154C26.9066 18.0147 26.9669 17.4138 27.0223 16.8124C27.0628 16.373 27.0924 15.9325 27.1287 15.4927C27.1351 15.4157 27.1565 15.3399 27.1609 15.263C27.1675 15.1448 27.2432 15.1084 27.3424 15.0883C27.912 14.9729 28.4812 14.8559 29.0506 14.7403C29.1177 14.7268 29.1859 14.7183 29.2791 14.7033Z" fill="white"/>
<path d="M23.2997 12.6076C23.2318 12.5585 23.1379 12.5179 23.1412 12.4879C23.1515 12.3949 23.1734 12.2732 23.2378 12.2237C23.3178 12.1623 23.3449 12.1066 23.3489 12.0165C23.3523 11.9395 23.3811 11.8629 23.3789 11.7865C23.3739 11.6092 23.46 11.5263 23.6263 11.4827C23.8491 11.4243 24.0662 11.344 24.3201 11.262C24.2943 11.519 24.2718 11.7443 24.2479 11.9819C24.3524 11.9673 24.434 11.9559 24.5145 11.9447C24.5689 12.1725 24.5468 12.2352 24.3594 12.3012C24.251 12.3394 24.2174 12.4145 24.2071 12.5108C24.1832 12.7342 24.1635 12.9579 24.1427 13.1816C24.1284 13.3358 24.1099 13.4899 24.1029 13.6445C24.095 13.8195 24.1759 13.8684 24.3326 13.7896C24.4727 13.719 24.5293 13.6066 24.5196 13.4478C24.4943 13.0335 24.5949 12.6466 24.8102 12.2932C25.0771 11.8554 25.4885 11.6404 25.9848 11.5965C26.2317 11.5746 26.4387 11.6833 26.5532 11.9222C26.5864 11.9912 26.6177 12.0611 26.6488 12.1281C26.9325 12.085 26.9616 12.0535 26.9868 11.807C26.9994 11.6839 27.0032 11.5534 27.0485 11.4416C27.106 11.3001 27.2696 11.3668 27.3815 11.3252C27.5179 11.2745 27.6667 11.2523 27.8121 11.2337C27.8561 11.228 27.9069 11.2749 27.9704 11.3053C28.0789 11.2504 28.2125 11.1736 28.3533 11.1137C28.5321 11.0375 28.6903 11.0958 28.8197 11.2272C28.9132 11.322 28.9258 11.516 28.861 11.6438C28.7951 11.7738 28.5486 11.938 28.4216 11.9002C28.3201 11.8701 28.2362 11.7811 28.1285 11.7072C27.926 11.7672 27.8881 11.8154 27.8678 12.0426C27.825 12.5209 27.7785 12.9988 27.7353 13.4771C27.7281 13.5575 27.7224 13.6413 27.6285 13.6623C27.3667 13.7207 27.1035 13.772 26.8095 13.8326C26.8509 13.3552 26.8893 12.9122 26.9278 12.4676C26.6812 12.4969 26.6733 12.5063 26.6628 12.7493C26.6402 13.2741 26.4244 13.6991 25.9685 13.9671C25.5729 14.1996 25.1537 14.2534 24.6899 13.9727C24.6673 14.0079 24.6418 14.0659 24.6005 14.1086C24.4475 14.2666 24.2718 14.3881 24.057 14.4542C23.6705 14.5729 23.4917 14.5265 23.2251 14.209C23.1599 14.2744 23.0965 14.3393 23.0317 14.4027C22.6748 14.7511 22.2505 14.9245 21.7483 14.8985C21.4606 14.8836 21.2263 14.6981 21.1663 14.4167C21.1244 14.2204 21.0794 14.0212 21.1436 13.8188C21.152 13.7922 21.1448 13.7606 21.1448 13.7303C20.9642 13.7134 20.9746 13.831 20.9725 13.9408C20.9663 14.268 20.871 14.5677 20.6759 14.8303C20.3507 15.2683 19.9105 15.4403 19.3735 15.368C19.0163 15.3198 18.8685 15.0778 18.8388 14.8068C18.7707 14.1854 18.9078 13.6145 19.4016 13.1827C19.6942 12.9268 20.0402 12.8055 20.4334 12.8444C20.6577 12.8667 20.7993 12.9965 20.8814 13.1996C20.9043 13.2563 20.9274 13.3128 20.9499 13.3683C21.1553 13.3353 21.292 13.2398 21.3912 13.0578C21.6088 12.6584 21.9631 12.4292 22.4064 12.3551C22.553 12.3306 22.7158 12.3498 22.8613 12.3872C23.0137 12.4264 23.1185 12.6309 23.1102 12.7965C23.1018 12.9658 22.9939 13.1014 22.8254 13.1545C22.6319 13.2155 22.5463 13.1463 22.5482 12.946C22.5487 12.8852 22.5107 12.824 22.4904 12.7631C22.4265 12.798 22.3348 12.8172 22.3043 12.871C22.2286 13.0044 22.1621 13.1492 22.1261 13.2977C22.0605 13.5679 22.0034 13.8435 22.0865 14.123C22.1302 14.27 22.1701 14.3014 22.3186 14.2858C22.7056 14.2452 22.9695 14.0189 23.1743 13.708C23.1907 13.6832 23.2002 13.6508 23.2034 13.621C23.2365 13.3053 23.2681 12.9894 23.2992 12.6735C23.3022 12.6433 23.2997 12.6129 23.2997 12.6076ZM25.4424 13.1042C25.4492 13.1758 25.448 13.2623 25.4671 13.3441C25.5182 13.5628 25.6759 13.6099 25.8314 13.4433C25.9075 13.3618 25.9556 13.2496 25.9997 13.1442C26.035 13.0598 26.0404 12.9633 26.0681 12.8749C26.1009 12.7706 26.0998 12.6857 26.0089 12.6037C25.8978 12.5034 25.893 12.3746 25.9552 12.2419C25.9716 12.207 25.9971 12.1724 25.9995 12.1363C26.0018 12.1028 25.9867 12.0603 25.964 12.036C25.9506 12.0217 25.8964 12.023 25.8796 12.0382C25.8007 12.1098 25.7044 12.1765 25.6582 12.2672C25.5275 12.5237 25.46 12.8015 25.4424 13.1042ZM19.7627 14.3314C19.7627 14.4012 19.7477 14.4755 19.7667 14.5397C19.7891 14.615 19.8265 14.7197 19.8842 14.7418C19.9465 14.7658 20.045 14.7193 20.1178 14.6836C20.1611 14.6623 20.2005 14.607 20.2159 14.5589C20.2765 14.3679 20.3293 14.1744 20.3789 13.9802C20.3868 13.9493 20.3753 13.8964 20.3528 13.8778C20.1822 13.7367 20.1903 13.5777 20.2875 13.4007C20.3022 13.3741 20.3012 13.3177 20.2831 13.2999C20.2615 13.2786 20.1991 13.2657 20.1795 13.2811C20.1028 13.3416 20.0146 13.4028 19.9694 13.485C19.8256 13.7464 19.7517 14.03 19.7627 14.3314Z" fill="white"/>
<path d="M16.3146 13.135C15.8885 13.4757 15.8147 13.8246 16.0284 14.3979C15.8137 14.4452 15.5951 14.4957 15.4103 14.3632C15.2317 14.2353 15.2068 14.0239 15.2528 13.8143C15.3021 13.589 15.4143 13.3921 15.5759 13.2316C16.1654 12.646 16.8734 12.325 17.71 12.3888C18.2735 12.4316 18.5922 12.7258 18.728 13.3156C18.8922 14.0292 18.7444 14.7059 18.3524 15.3162C18.1223 15.6745 17.7939 15.9212 17.3374 15.9191C17.2304 15.9187 17.1237 15.8896 17.0111 15.8729C16.7467 16.1071 16.3923 16.0612 16.0505 16.1649C16.0007 15.8067 16.1164 15.4856 16.1269 15.1586C16.1375 14.8268 16.1852 14.4963 16.2168 14.1652C16.248 13.8353 16.2793 13.5056 16.3146 13.135ZM17.2077 12.8106C17.2223 12.8539 17.2371 12.876 17.2353 12.8965C17.201 13.282 17.1653 13.6674 17.1289 14.0527C17.0918 14.4458 17.05 14.8386 17.0177 15.2321C17.0026 15.4161 17.0637 15.4591 17.2385 15.4001C17.443 15.3309 17.5685 15.177 17.6613 14.9907C17.7699 14.7725 17.8019 14.5345 17.8522 14.2994C17.9326 13.9234 17.8825 13.5574 17.7944 13.1945C17.7293 12.9264 17.517 12.754 17.2561 12.7644C16.9866 12.775 16.7343 12.8643 16.5104 13.0297C16.7419 12.957 16.9734 12.8842 17.2077 12.8106Z" fill="white"/>
<path d="M26.0095 16.1953C26.0215 16.4885 25.8979 16.732 25.6858 16.913C25.3018 17.2407 24.8702 17.3933 24.3532 17.2373C23.886 17.0964 23.5281 16.574 23.774 16.0208C24.0825 15.327 25.1036 15.0042 25.7183 15.5414C25.9099 15.709 26.0114 15.9251 26.0095 16.1953Z" fill="white"/>
<path d="M23.5546 28.746C24.0598 28.2651 24.6855 27.9962 25.4057 27.935L25.4126 27.9344L25.4126 27.9345C25.6677 27.916 25.9492 27.9343 26.2526 27.9825L26.318 25.579C26.328 25.2095 26.6148 24.907 26.9832 24.8772L28.326 24.7687C28.7717 24.7327 29.1432 25.1055 29.1055 25.5511L28.9265 27.6656C29.1751 27.4194 29.5011 27.2398 29.8779 27.121C30.2972 26.987 30.8276 26.9549 31.4337 26.9898L31.4373 26.99L31.4373 26.99C32.117 27.0335 32.7172 27.1688 33.1322 27.4792C33.1327 27.4795 33.1332 27.4799 33.1337 27.4803L33.1694 27.5067L32.8656 27.9171L33.1694 27.5067C33.4761 27.7338 33.5539 28.16 33.347 28.4807L32.8844 28.1823L33.347 28.4807L32.7677 29.3789L32.7514 29.4049C32.6911 29.5014 32.6111 29.5794 32.5193 29.6362C32.6212 29.7076 32.7088 29.7728 32.781 29.8316C33.0794 30.0723 33.3322 30.3619 33.441 30.7122C33.5679 31.1055 33.5907 31.5064 33.4651 31.8913C33.3404 32.2826 33.0799 32.5855 32.7319 32.8022L23.5546 28.746ZM23.5546 28.746L23.5558 28.3747C23.557 27.9827 23.2504 27.6747 22.8814 27.65C23.1209 27.3725 23.2373 27.0359 23.2373 26.6702C23.2373 26.2939 23.1114 25.9501 22.8572 25.6693C22.6024 25.3878 22.2679 25.2256 21.8798 25.2256C21.4917 25.2256 21.1572 25.3878 20.9024 25.6693C20.6482 25.9501 20.5223 26.2939 20.5223 26.6702C20.5223 27.048 20.6465 27.3947 20.9024 27.6774C21.0094 27.7956 21.1305 27.8928 21.2637 27.9657L21.2498 27.9687C20.9495 28.0324 20.7296 28.2754 20.6848 28.566C20.4063 28.3358 19.9667 28.3264 19.6856 28.6338L20.0918 29.0052L19.6856 28.6338L19.3634 28.9862L19.5385 25.0938C19.5551 24.7238 19.2898 24.401 18.9236 24.3456L17.2628 24.0946C16.8071 24.0257 16.404 24.3945 16.4322 24.8545L16.9398 33.1374C16.9651 33.5504 17.3308 33.8582 17.742 33.8125L18.54 33.7239C18.8289 33.6918 19.0636 33.4921 19.1491 33.2264L19.494 33.5344C19.7605 33.7725 20.1609 33.7804 20.4366 33.553L21.0426 33.0533C21.1246 32.9856 21.1873 32.9046 21.2309 32.8166C21.3999 33.0489 21.7009 33.1706 22.0017 33.0912L23.0053 32.8263C23.2535 32.7607 23.4429 32.571 23.5139 32.3344C23.5937 32.4099 23.6793 32.482 23.7707 32.5505C24.3683 32.9984 25.0638 33.1875 25.8269 33.1277L25.8286 33.1276C25.8827 33.1232 25.9368 33.1173 25.9907 33.1101C26.0668 33.1982 26.1662 33.2675 26.2823 33.3077L27.5075 33.7325C27.9536 33.8872 28.426 33.5802 28.4658 33.1098L28.5367 32.2725M23.5546 28.746L28.5367 32.2725M28.5367 32.2725L28.5406 32.2778L28.9809 31.9475L28.5406 32.2778C28.9549 32.8298 29.6796 33.0833 30.5155 33.1761C31.3699 33.2709 32.1321 33.1761 32.7316 32.8024L28.5367 32.2725ZM28.7649 29.9707L29.2186 29.659L28.7649 29.9707C28.8561 30.1033 28.96 30.2252 29.0757 30.3369C28.9082 30.4139 28.7674 30.5561 28.6979 30.7583L28.654 30.8862L28.7352 29.9263C28.7449 29.9411 28.7548 29.9559 28.7649 29.9707ZM20.7611 30.2998C20.7915 30.2762 20.8196 30.2504 20.8453 30.2228L21.0371 31.9321C21.0262 31.9232 21.0149 31.9147 21.0033 31.9064L19.8025 31.047L20.7611 30.2998ZM25.7126 30.5187L25.7131 30.5154C25.7635 30.2237 25.8524 30.0914 25.9185 30.0325L25.9185 30.0326L25.9264 30.0253C25.9616 29.9927 25.983 29.9845 25.9899 29.9823C25.9952 29.9807 26.0062 29.9777 26.0312 29.982C26.0398 29.9836 26.0459 29.9852 26.05 29.9865C26.0518 29.99 26.054 29.9949 26.0566 30.0018C26.0829 30.0723 26.1069 30.2458 26.0491 30.5814C25.9955 30.8704 25.9073 31.0119 25.8371 31.0791C25.8048 31.1076 25.7846 31.1152 25.777 31.1176C25.7702 31.1196 25.7573 31.1226 25.73 31.1179C25.7198 31.116 25.7127 31.1141 25.7081 31.1126C25.7065 31.1093 25.7043 31.1046 25.7019 31.0981C25.6761 31.029 25.6522 30.856 25.7126 30.5187ZM26.0462 29.9801C26.0462 29.9801 26.0464 29.9803 26.0469 29.981L26.0462 29.9801ZM25.7118 31.1188C25.7117 31.1188 25.7115 31.1185 25.7111 31.1179L25.7118 31.1188Z" fill="#3C6CB8" stroke="url(#paint1_linear_8335_2389)" stroke-width="1.10088"/>
<mask id="mask0_8335_2389" style="mask-type:alpha" maskUnits="userSpaceOnUse" x="16" y="24" width="17" height="10">
<path d="M20.6923 32.6286C20.7802 32.5562 20.7755 32.4202 20.6829 32.354L19.0716 31.2008C18.9775 31.1334 18.9746 30.9944 19.066 30.9232L20.4227 29.8657C20.4725 29.8269 20.4973 29.7641 20.4873 29.7018L20.3909 29.095C20.3681 28.9516 20.1898 28.8981 20.0918 29.0052L19.0679 30.1253C18.9585 30.2449 18.7595 30.1624 18.7668 30.0006L18.9886 25.069C18.9926 24.9804 18.929 24.9031 18.8414 24.8899L17.1805 24.6389C17.0714 24.6224 16.9749 24.7107 16.9816 24.8208L17.4892 33.1038C17.4952 33.2027 17.5828 33.2764 17.6813 33.2654L18.4792 33.1768C18.564 33.1674 18.6293 33.0977 18.6332 33.0125L18.6599 32.4305C18.6665 32.2846 18.8395 32.2119 18.9484 32.3091L19.8607 33.1239C19.9245 33.1809 20.0204 33.1828 20.0864 33.1284L20.6923 32.6286Z" fill="white"/>
<path d="M21.3641 28.5071C21.2769 28.5256 21.218 28.6073 21.2279 28.6959L21.6447 32.4108C21.6565 32.5159 21.7589 32.586 21.8612 32.559L22.8648 32.2941C22.9407 32.274 22.9936 32.2055 22.9939 32.127L23.0053 28.373C23.0057 28.2626 22.904 28.18 22.796 28.2029L21.3641 28.5071ZM22.6869 26.6702C22.6869 26.9203 22.6077 27.1329 22.4492 27.308C22.2907 27.483 22.1009 27.5706 21.8798 27.5706C21.6588 27.5706 21.469 27.483 21.3105 27.308C21.152 27.1329 21.0727 26.9203 21.0727 26.6702C21.0727 26.4243 21.152 26.2137 21.3105 26.0387C21.469 25.8636 21.6588 25.7761 21.8798 25.7761C22.1009 25.7761 22.2907 25.8636 22.4492 26.0387C22.6077 26.2137 22.6869 26.4243 22.6869 26.6702Z" fill="white"/>
<path d="M25.6337 31.6598C25.1916 31.5806 25.0372 31.168 25.1707 30.4218C25.2333 30.0591 25.3605 29.7924 25.5524 29.6215C25.7234 29.4631 25.9152 29.4026 26.128 29.4401C26.5659 29.5193 26.7202 29.932 26.5909 30.6782C26.5242 31.0408 26.397 31.3097 26.2093 31.4848C26.0383 31.639 25.8464 31.6973 25.6337 31.6598ZM27.0275 25.4259C26.9393 25.433 26.8706 25.5055 26.8682 25.5939L26.7908 28.4404C26.7878 28.5519 26.6816 28.6314 26.5729 28.6062C26.1258 28.5027 25.7522 28.4618 25.4523 28.4835C24.8141 28.5377 24.2844 28.7815 23.8631 29.215C23.446 29.6527 23.2604 30.155 23.3063 30.7219C23.3522 31.2847 23.617 31.7474 24.1009 32.11C24.5847 32.4727 25.1457 32.629 25.7838 32.579C25.9244 32.5675 26.065 32.5442 26.2056 32.5091C26.2964 32.4864 26.386 32.5589 26.3763 32.6521C26.3701 32.7118 26.4058 32.768 26.4626 32.7876L27.6879 33.2125C27.7947 33.2495 27.9078 33.176 27.9173 33.0633L28.557 25.5047C28.566 25.398 28.4771 25.3087 28.3703 25.3173L27.0275 25.4259Z" fill="white"/>
<path d="M32.9162 30.8782C32.8536 30.674 32.6931 30.4677 32.4345 30.2592C32.276 30.13 32.009 29.9487 31.6336 29.7152C31.2116 29.4554 30.9683 29.2823 30.9037 29.196C30.8923 29.1807 30.8885 29.1615 30.8885 29.1425C30.8885 29.0583 30.9053 29.0012 30.9392 28.9712C31.0351 28.8836 31.2416 28.8899 31.5586 28.9899L31.9465 29.1337L32.0761 29.1831C32.1535 29.2126 32.2408 29.1832 32.2847 29.113L32.3031 29.0837L32.8844 28.1823C32.934 28.1055 32.9154 28.0035 32.8419 27.9491L32.8036 27.9207C32.52 27.7081 32.0528 27.581 31.4021 27.5393C30.8224 27.506 30.3698 27.5414 30.0445 27.6456C29.4355 27.8374 29.0831 28.1813 28.9871 28.6773C28.983 28.7148 28.9788 28.7523 28.9746 28.7899C28.9454 29.09 29.0268 29.3797 29.2186 29.659C29.4105 29.9383 29.6858 30.1675 30.0445 30.3468L30.2447 30.4468C30.9869 30.8013 31.4087 31.0628 31.5098 31.2315C31.5303 31.2656 31.516 31.3182 31.4835 31.3409C31.4251 31.3826 31.3458 31.4201 31.2457 31.4535C30.9913 31.5494 30.6785 31.5431 30.3073 31.4347C29.9402 31.3264 29.6941 31.17 29.569 30.9658L29.5299 30.9024C29.4531 30.7779 29.266 30.7987 29.2185 30.9371L28.9357 31.7605C28.917 31.8149 28.9265 31.8749 28.9609 31.9209L28.9809 31.9475C29.2562 32.3143 29.788 32.5415 30.5763 32.629C31.3646 32.7165 31.9861 32.6186 32.4407 32.3351C32.6951 32.1767 32.862 31.9725 32.9412 31.7224C33.0246 31.4681 33.0163 31.1867 32.9162 30.8782Z" fill="white"/>
</mask>
<g mask="url(#mask0_8335_2389)">
<path d="M20.8663 32.4852L18.883 31.0658L20.5034 29.8028L20.3345 28.7398L18.7453 30.4781L18.9956 24.9132L16.9685 24.6068L17.5003 33.2855L18.6265 33.1605L18.6765 32.0663L19.9716 33.223L20.8663 32.4852Z" fill="#FF53AA"/>
<path d="M21.2104 28.5397L21.6671 32.6102L22.9935 32.2601L23.006 28.1583L21.2104 28.5397ZM22.6869 26.6702C22.6869 26.9203 22.6077 27.1329 22.4492 27.308C22.2907 27.483 22.1009 27.5706 21.8798 27.5706C21.6588 27.5706 21.469 27.483 21.3105 27.308C21.152 27.1329 21.0727 26.9203 21.0727 26.6702C21.0727 26.4243 21.152 26.2137 21.3105 26.0387C21.469 25.8636 21.6588 25.7761 21.8798 25.7761C22.1009 25.7761 22.2907 25.8636 22.4492 26.0387C22.6077 26.2137 22.6869 26.4243 22.6869 26.6702Z" fill="#FF53AA"/>
<path d="M25.6337 31.6598C25.1916 31.5806 25.0372 31.168 25.1707 30.4218C25.2333 30.0591 25.3605 29.7924 25.5524 29.6215C25.7234 29.4631 25.9152 29.4026 26.128 29.4401C26.5659 29.5193 26.7202 29.932 26.5909 30.6782C26.5242 31.0408 26.397 31.3097 26.2093 31.4848C26.0383 31.639 25.8464 31.6973 25.6337 31.6598ZM26.8725 25.4384L26.7849 28.6585C26.2427 28.5168 25.7984 28.4585 25.4523 28.4835C24.8141 28.5377 24.2844 28.7815 23.8631 29.215C23.446 29.6527 23.2604 30.155 23.3063 30.7219C23.3522 31.2847 23.617 31.7474 24.1009 32.11C24.5847 32.4727 25.1457 32.629 25.7838 32.579C25.9882 32.5623 26.1926 32.5206 26.397 32.4539L26.3657 32.7541L27.8985 33.2855L28.5742 25.3009L26.8725 25.4384Z" fill="#FF53AA"/>
<path d="M32.9162 30.8782C32.8536 30.674 32.6931 30.4677 32.4345 30.2592C32.276 30.13 32.009 29.9487 31.6336 29.7152C31.1665 29.4276 30.9183 29.2463 30.8891 29.1713C30.8849 29.0712 30.9016 29.0045 30.9392 28.9712C31.0351 28.8836 31.2416 28.8899 31.5586 28.9899L31.9465 29.1337L32.2092 29.2338L32.3031 29.0837L32.9725 28.0458L32.8036 27.9207C32.52 27.7081 32.0528 27.581 31.4021 27.5393C30.8224 27.506 30.3698 27.5414 30.0445 27.6456C29.4355 27.8374 29.0831 28.1813 28.9871 28.6773C28.983 28.7148 28.9788 28.7523 28.9746 28.7899C28.9454 29.09 29.0268 29.3797 29.2186 29.659C29.4105 29.9383 29.6858 30.1675 30.0445 30.3468L30.2447 30.4468C31.0914 30.8512 31.521 31.1346 31.5335 31.2972C31.5419 31.2972 31.5252 31.3118 31.4835 31.3409C31.4251 31.3826 31.3458 31.4201 31.2457 31.4535C30.9913 31.5494 30.6785 31.5431 30.3073 31.4347C29.9402 31.3264 29.6941 31.17 29.569 30.9658L29.3375 30.5906L28.9058 31.8474L28.9809 31.9475C29.2562 32.3143 29.788 32.5415 30.5763 32.629C31.3646 32.7165 31.9861 32.6186 32.4407 32.3351C32.6951 32.1767 32.862 31.9725 32.9412 31.7224C33.0246 31.4681 33.0163 31.1867 32.9162 30.8782Z" fill="#FF53AA"/>
<rect x="15.8611" y="23.4838" width="4.90382" height="11.3827" fill="#FBB41E"/>
<rect x="28.6743" y="26.9618" width="5.69476" height="6.79797" fill="#37D9D4"/>
<path d="M23.5332 29.0961L26.0642 25.0647L26.6969 24.6695L28.8325 23.9581C28.9116 24.6958 28.9907 26.3453 28.6743 27.0409C28.2788 27.9104 28.6743 31.7836 28.6743 31.9417C28.6743 32.0682 29.0961 33.1011 29.307 33.6017C28.7006 34.0233 27.4088 34.8823 27.0924 34.9455C26.6969 35.0245 23.6914 33.7598 23.5332 33.6017C23.4066 33.4752 23.2695 31.3357 23.2168 30.2818L23.5332 29.0961Z" fill="#FF5A21"/>
</g>
<defs>
<radialGradient id="paint0_radial_8335_2389" cx="0" cy="0" r="1" gradientUnits="userSpaceOnUse" gradientTransform="translate(18.5112 18.5) rotate(90) scale(18.5 18.5112)">
<stop stop-color="#4782CD"/>
<stop offset="1" stop-color="#203785"/>
</radialGradient>
<linearGradient id="paint1_linear_8335_2389" x1="16.3587" y1="24.5233" x2="30.7753" y2="33.566" gradientUnits="userSpaceOnUse">
<stop stop-color="#3A68B4"/>
<stop offset="0.425225" stop-color="#3158A5"/>
<stop offset="1" stop-color="#203785"/>
</linearGradient>
</defs>
</svg>
