<svg width="55" height="31" viewBox="0 0 55 31" fill="none" xmlns="http://www.w3.org/2000/svg">
<path d="M13.5773 27.4598L6.6688 22.5127L12.3133 18.1104L11.7249 14.4055L6.18935 20.4641L7.06109 1.06788L0 0L1.85245 30.2493L5.77527 29.8135L5.94962 25.9996L10.4609 30.0314L13.5773 27.4598Z" fill="#FB6042"/>
<path d="M14.7441 15.8129L16.335 30.0004L20.9552 28.78L20.9988 14.4835L14.7441 15.8129ZM19.8874 9.29664C19.8874 10.1684 19.6113 10.9094 19.0592 11.5196C18.5071 12.1298 17.846 12.4349 17.076 12.4349C16.306 12.4349 15.6449 12.1298 15.0928 11.5196C14.5407 10.9094 14.2646 10.1684 14.2646 9.29664C14.2646 8.43943 14.5407 7.70572 15.0928 7.0955C15.6449 6.48528 16.306 6.18018 17.076 6.18018C17.846 6.18018 18.5071 6.48528 19.0592 7.0955C19.6113 7.70572 19.8874 8.43943 19.8874 9.29664Z" fill="#F5C148"/>
<path d="M29.8155 24.224C28.2754 23.948 27.7379 22.5096 28.2028 19.9089C28.4207 18.6449 28.8639 17.715 29.5322 17.1194C30.1279 16.5673 30.7962 16.3566 31.5372 16.4873C33.0627 16.7634 33.6003 18.2018 33.1499 20.8025C32.9174 22.0665 32.4743 23.0036 31.8205 23.6138C31.2248 24.1514 30.5565 24.3548 29.8155 24.224ZM34.1306 2.53952L33.8255 13.7632C31.9367 13.2692 30.3894 13.0658 29.1835 13.1529C26.9606 13.3418 25.1154 14.1918 23.6479 15.7028C22.195 17.2283 21.5485 18.9791 21.7083 20.955C21.8681 22.9164 22.7907 24.5291 24.4761 25.7932C26.1615 27.0572 28.1156 27.602 30.3385 27.4277C31.0505 27.3696 31.7624 27.2243 32.4743 26.9918L32.3653 28.0379L37.7047 29.8903L40.0584 2.06006L34.1306 2.53952Z" fill="#DE358A"/>
<path d="M54.7147 24.0398C54.4968 23.3279 53.9374 22.6087 53.0366 21.8823C52.4845 21.4319 51.5547 20.7999 50.2471 19.9863C48.6198 18.9838 47.7554 18.3517 47.6536 18.0902C47.6391 17.7415 47.6972 17.5091 47.828 17.3928C48.1622 17.0877 48.8813 17.1095 49.9856 17.4582L51.3367 17.9595L52.2521 18.3082L52.579 17.7851L54.9109 14.1674L54.3225 13.7315C53.3345 12.9906 51.7072 12.5474 49.4407 12.4021C47.4212 12.2859 45.8448 12.4094 44.7115 12.7726C42.5903 13.441 41.3626 14.6396 41.0284 16.3685C41.0139 16.4993 40.9994 16.6301 40.9848 16.7608C40.8831 17.8069 41.1665 18.8167 41.8348 19.7901C42.5031 20.7636 43.462 21.5627 44.7115 22.1874L45.4089 22.5361C48.3583 23.9454 49.8548 24.9334 49.8984 25.5C49.9274 25.5 49.8693 25.5509 49.724 25.6526C49.5206 25.7979 49.2446 25.9286 48.8959 26.0448C48.0096 26.379 46.9199 26.3572 45.6269 25.9795C44.3483 25.6017 43.4911 25.0569 43.0552 24.345L42.2489 23.0373L40.7451 27.4178L41.0066 27.7665C41.9656 29.0451 43.818 29.8369 46.564 30.142C49.31 30.4471 51.4748 30.1057 53.0584 29.1177C53.9447 28.5656 54.5259 27.8537 54.8019 26.982C55.0925 26.0957 55.0634 25.115 54.7147 24.0398Z" fill="#2CCA90"/>
</svg>
