<svg xmlns="http://www.w3.org/2000/svg" width="20" height="30" viewBox="0 0 20 30" fill="none">
<path d="M1.93195 11.1551C1.94154 11.5324 1.92589 12.2248 1.8951 13.6097C1.85068 15.5879 1.79817 16.5036 2.31158 16.8015C2.56247 16.9475 2.86688 16.898 3.08648 16.8334C3.08648 16.8334 3.43127 22.107 8.36339 23.6504C9.20896 23.9151 10.1136 23.9757 10.9774 23.7762C13.8553 23.1121 16.1129 20.4409 16.7172 16.8334C16.8944 16.8591 17.1665 16.8697 17.3952 16.7192C17.9298 16.3682 17.8056 15.4162 17.7596 13.8243C17.7415 13.2006 17.7288 12.2536 17.7748 11.0723C17.7748 10.5824 17.7748 10.5824 17.7748 10.0925" stroke="white" stroke-width="1.5" stroke-miterlimit="10" stroke-linecap="round" stroke-linejoin="round"/>
<path d="M18.2038 10.5299C19.0135 5.33004 16.6743 1.64612 16.6743 1.64612C16.6234 2.65007 16.2804 2.86006 15.7554 2.97509C15.066 3.12586 14.3551 3.08474 13.6701 2.91097C12.6793 2.66035 9.23141 1.7073 6.77474 2.30889C6.6123 2.34854 3.49805 3.16502 2.27094 6.0868C1.64711 7.57192 1.69604 9.71884 1.72931 10.7908" stroke="white" stroke-width="1.5" stroke-miterlimit="10" stroke-linecap="round" stroke-linejoin="round"/>
<path d="M2.17065 10.8097C2.49339 10.788 2.98775 10.7281 3.41121 10.5304C4.47231 10.035 3.92465 9.21892 4.83563 8.6257C5.59747 8.12935 6.90355 8.10052 7.27029 8.09242C9.38614 8.04577 9.80764 9.02874 12.921 9.85329C14.6902 10.3218 17.628 9.97932 17.628 9.97932" stroke="white" stroke-width="1.5" stroke-miterlimit="10" stroke-linecap="round" stroke-linejoin="round"/>
<path d="M4.8894 13.3462C4.8894 13.1411 5.05565 12.9749 5.26073 12.9749H8.6971C8.90218 12.9749 9.06843 13.1411 9.06843 13.3462V13.856C9.06843 15.01 8.13292 15.9455 6.97891 15.9455V15.9455C5.82491 15.9455 4.8894 15.01 4.8894 13.856V13.3462Z" stroke="white" stroke-width="1.5"/>
<path d="M10.9314 13.3462C10.9314 13.1411 11.0976 12.9749 11.3027 12.9749H14.7391C14.9442 12.9749 15.1104 13.1411 15.1104 13.3462V13.856C15.1104 15.01 14.1749 15.9455 13.0209 15.9455V15.9455C11.8669 15.9455 10.9314 15.01 10.9314 13.856V13.3462Z" stroke="white" stroke-width="1.5"/>
<path d="M8.96777 13.579H11.0069" stroke="white" stroke-width="1.5"/>
<path d="M13.5999 22.9944C13.5748 27.828 14.9594 28.6839 14.9594 28.6839" stroke="white" stroke-width="1.5" stroke-miterlimit="10" stroke-linecap="round" stroke-linejoin="round"/>
<path d="M6.65176 23.4979C6.67694 28.3315 5.29232 29.1874 5.29232 29.1874" stroke="white" stroke-width="1.5" stroke-miterlimit="10" stroke-linecap="round" stroke-linejoin="round"/>
</svg>