
<svg width="26" height="17" viewBox="0 0 26 17" fill="none" xmlns="http://www.w3.org/2000/svg">
<path d="M8.83846 11.7732C8.69293 11.3916 8.63578 11.0255 8.65562 10.6505C8.69419 9.92226 8.86821 9.23118 9.26807 8.61306C9.71121 7.92789 10.3396 7.49702 11.1347 7.31977C11.3599 7.26955 11.5946 7.23476 11.8242 7.23853C12.1352 7.24373 12.4088 7.35983 12.5762 7.64807C12.7008 7.86271 12.735 8.09766 12.7125 8.33986C12.6421 9.09949 12.1816 9.60694 11.6014 10.0315C11.3151 10.241 10.997 10.394 10.6598 10.5019C10.5666 10.5317 10.5174 10.5738 10.5329 10.6684C10.5564 10.8116 10.5709 10.9597 10.6207 11.0941C10.6715 11.2311 10.7807 11.3052 10.9452 11.3102C11.2688 11.3198 11.56 11.2219 11.8446 11.0863C12.2911 10.8738 12.6069 10.5168 12.8973 10.1323C12.9998 9.99648 12.9863 9.82899 13.003 9.67353C13.061 9.13247 13.1089 8.59031 13.1602 8.04855C13.1897 7.73788 13.2243 7.4276 13.2439 7.1163C13.2509 7.00508 13.2834 6.9455 13.3953 6.92298C13.9159 6.8183 14.4355 6.70936 14.9558 6.60326C14.9868 6.59696 15.0203 6.60247 15.0775 6.60247C15.0668 6.74132 15.059 6.87048 15.0467 6.99925C15.0233 7.24365 14.9976 7.48781 14.9725 7.73205C14.906 8.37898 14.8376 9.02566 14.774 9.67282C14.7572 9.84465 14.7491 10.0178 14.7474 10.1904C14.7455 10.3748 14.8357 10.4321 15.0203 10.3856C15.3625 10.2992 15.5763 10.0591 15.7504 9.77586C15.9749 9.41056 16.1307 9.01551 16.2085 8.59378C16.2673 8.27437 16.3115 7.95213 16.3572 7.63044C16.3681 7.55338 16.3588 7.47341 16.3588 7.37714C16.2885 7.38446 16.2349 7.37911 16.19 7.39643C15.8209 7.53835 15.4281 7.08513 15.5406 6.69189C15.6041 6.4704 15.7569 6.33037 15.962 6.24442C16.1596 6.16169 16.3641 6.1062 16.5812 6.15256C16.9273 6.22647 17.0893 6.47575 17.1584 6.79327C17.3055 7.46861 17.2484 8.13946 17.0992 8.80842C16.9646 9.41174 16.7432 9.97444 16.3758 10.4761C15.8883 11.1418 15.2399 11.5369 14.4247 11.6726C14.1467 11.7188 13.8809 11.7006 13.6186 11.6154C13.3742 11.536 13.1988 11.3686 13.0797 11.1419C13.0585 11.1015 13.0378 11.061 13.007 11.0017C12.9362 11.0789 12.8718 11.1424 12.8151 11.2122C12.4947 11.606 12.0843 11.8792 11.6494 12.1329C10.9953 12.5144 10.2723 12.6686 9.54891 12.8264C9.1537 12.9126 8.75471 12.9848 8.35463 13.0442C8.03333 13.0918 7.70825 13.1267 7.38389 13.1363C7.16342 13.1428 7.02253 13.2119 6.89289 13.3997C6.60292 13.8201 6.29154 14.2271 5.96898 14.6234C5.58495 15.0953 5.10623 15.4485 4.53825 15.6769C2.53247 16.5129 0.278661 15.8581 0.608538 13.8138C0.892291 12.6335 1.63863 11.8742 2.76545 11.4775C3.47243 11.2286 4.20657 11.1823 4.94975 11.2516C5.00273 11.2566 5.05601 11.2587 5.10914 11.2604C5.3411 11.2683 5.35456 11.2585 5.3707 11.023C5.37794 10.917 5.37534 10.81 5.3718 10.7037C5.36236 10.4247 5.34992 10.146 5.33882 9.86708C5.3108 9.16309 5.28616 8.45887 5.25326 7.75511C5.24154 7.50332 5.21375 7.25199 5.18628 7.00122C5.1681 6.83522 5.16259 6.83451 4.98738 6.83325C4.71457 6.83129 4.44026 6.84876 4.1691 6.82703C3.54878 6.77745 3.03134 6.53817 2.76167 5.93792C2.57607 5.52484 2.6233 5.10807 2.81921 4.7057C2.83361 4.6761 2.85471 4.64942 2.8751 4.62321C3.01866 4.43832 3.18821 4.40038 3.37648 4.5349C3.54902 4.65816 3.70463 4.80495 3.87039 4.93805C4.10409 5.1257 4.35777 5.25872 4.67198 5.23542C4.91095 5.21771 4.97801 5.16931 5.01162 4.93561C5.07215 4.51514 5.11418 4.09176 5.18376 3.67294C5.32127 2.84545 5.54386 2.04858 6.11302 1.39678C6.52263 0.927661 7.03315 0.624702 7.65686 0.571887C8.18375 0.527337 8.6272 0.744264 8.93536 1.17072C9.51766 1.97656 9.56662 2.8386 9.13914 3.73055C8.94464 4.13631 8.64145 4.46689 8.36942 4.81841C8.12141 5.13892 7.86048 5.44952 7.61766 5.77381C7.4744 5.96507 7.34689 6.17531 7.32847 6.42034C7.31517 6.59712 7.33375 6.77745 7.35028 6.9551C7.39711 7.45727 7.44379 7.9596 7.50274 8.46044C7.5502 8.8636 7.59452 9.26605 7.57232 9.67251C7.55241 10.0372 7.53131 10.4018 7.50455 10.766C7.48361 11.0505 7.45347 11.3344 7.42686 11.6185C7.42041 11.6874 7.43938 11.7353 7.51651 11.7463C7.55587 11.7519 7.5942 11.7719 7.63308 11.7721C8.02443 11.7739 8.41579 11.7732 8.83846 11.7732ZM5.09356 12.9254C4.65357 12.8333 4.21877 12.7838 3.78239 12.8403C3.57562 12.8671 3.37459 12.947 3.17475 13.0143C3.04952 13.0565 2.93224 13.1215 2.81008 13.1734C2.51436 13.299 2.31066 13.5236 2.16851 13.8005C1.97512 14.1771 2.19181 14.5837 2.60646 14.6648C3.03189 14.7479 3.42985 14.6609 3.79688 14.4577C4.38571 14.1317 4.78981 13.6299 5.07325 13.0264C5.0864 12.9986 5.08608 12.9647 5.09356 12.9254ZM7.08856 4.02587C7.19459 3.88632 7.28912 3.7681 7.37696 3.64515C7.6175 3.3085 7.83167 2.95667 7.94305 2.55383C8.00838 2.31754 8.00759 2.08125 7.89314 1.8555C7.8175 1.70635 7.70778 1.67368 7.56807 1.77034C7.50975 1.81072 7.45386 1.86589 7.41915 1.92697C7.35398 2.04189 7.2844 2.16098 7.25338 2.28731C7.17924 2.58932 7.11163 2.89456 7.06967 3.20232C7.03417 3.46294 6.9864 3.72961 7.08856 4.02587ZM10.5476 9.78223C10.5634 9.78939 10.5695 9.79483 10.5745 9.79396C10.5938 9.79065 10.6142 9.78853 10.6316 9.78042C11.0182 9.59892 11.3019 9.30957 11.4913 8.93129C11.6164 8.68123 11.6483 8.41172 11.5855 8.13757C11.5534 7.99786 11.4995 7.9759 11.37 8.03155C11.2313 8.09121 11.132 8.19637 11.0493 8.31963C10.7511 8.76371 10.633 9.26809 10.5476 9.78223Z" fill="white"/>
<path d="M22.4416 5.06834C22.4416 5.15665 22.4416 5.21505 22.4416 5.29581C22.4896 5.26496 22.5268 5.24567 22.5588 5.21986C22.9193 4.92855 23.3438 4.77986 23.794 4.77057C24.4589 4.75696 24.8802 5.06361 24.9501 5.79035C24.9937 6.24278 24.9233 6.69198 24.857 7.13961C24.8191 7.39574 24.7662 7.65367 24.7676 7.9105C24.7697 8.28178 24.8426 8.38253 25.2204 8.27375C25.3557 8.23479 25.4772 8.14719 25.603 8.0828C25.7223 8.64299 25.4004 9.22403 24.8568 9.46418C24.5988 9.57815 24.3297 9.63742 24.0433 9.62758C23.4561 9.60735 23.1184 9.16602 23.0785 8.69257C23.0461 8.30886 23.0689 7.92357 23.1289 7.53938C23.182 7.19912 23.2024 6.85334 23.2272 6.5093C23.2336 6.41925 23.2117 6.32393 23.1871 6.23538C23.1295 6.02727 23.0136 5.97697 22.8111 6.06245C22.6289 6.13935 22.5203 6.2856 22.4322 6.4553C22.287 6.73472 22.2682 7.04028 22.2373 7.34394C22.1723 7.98441 22.106 8.62473 22.043 9.26535C22.0234 9.46363 22.0151 9.66292 21.9972 9.86135C21.9812 10.0377 21.9541 10.0639 21.7868 10.0988C21.2871 10.2032 20.7876 10.3085 20.2877 10.412C20.2568 10.4184 20.2234 10.4129 20.1662 10.4129C20.1739 10.3177 20.1811 10.23 20.1903 10.1164C20.124 10.1601 20.0738 10.1874 20.03 10.2228C19.6366 10.541 19.1843 10.73 18.6855 10.7765C18.1169 10.8295 17.6159 10.5828 17.4759 9.90669C17.4144 9.60932 17.4226 9.31447 17.4701 9.01592C17.5346 8.60985 17.5872 8.20189 17.643 7.79448C17.6559 7.70019 17.6874 7.63942 17.7956 7.61833C18.1537 7.54851 18.5095 7.46697 18.8666 7.39188C19.06 7.35119 19.2542 7.31427 19.4701 7.27129C19.4701 7.36165 19.4784 7.43344 19.4687 7.5027C19.4082 7.93648 19.3416 8.36939 19.2816 8.80316C19.2607 8.95382 19.2416 9.1062 19.2417 9.25788C19.2419 9.43663 19.2996 9.48228 19.4773 9.46559C19.7469 9.44033 19.9471 9.29448 20.1071 9.08589C20.2573 8.89014 20.3294 8.66314 20.3548 8.42181C20.4091 7.90696 20.4608 7.3918 20.5083 6.87632C20.5429 6.49961 20.5683 6.12204 20.5994 5.74501C20.6048 5.67905 20.6232 5.61404 20.627 5.54816C20.6326 5.44678 20.6975 5.41561 20.7825 5.39837C21.2704 5.29943 21.758 5.19915 22.2459 5.10006C22.3033 5.08849 22.3617 5.08125 22.4416 5.06834Z" fill="white"/>
<path d="M17.3192 3.27187C17.261 3.22976 17.1806 3.19497 17.1834 3.16923C17.1922 3.0895 17.211 2.98521 17.2662 2.94278C17.3348 2.89013 17.3579 2.84243 17.3614 2.76513C17.3643 2.69917 17.3889 2.63345 17.3871 2.56804C17.3828 2.41605 17.4565 2.34497 17.599 2.30759C17.7899 2.25753 17.9759 2.18865 18.1934 2.11837C18.1713 2.33868 18.152 2.53183 18.1316 2.73554C18.2211 2.72302 18.2909 2.71318 18.3599 2.70358C18.4065 2.89886 18.3876 2.95262 18.227 3.00922C18.1342 3.04196 18.1054 3.10634 18.0966 3.18891C18.0761 3.38034 18.0592 3.57215 18.0414 3.76389C18.0292 3.89605 18.0133 4.02813 18.0074 4.16068C18.0006 4.3107 18.0698 4.35265 18.2041 4.28504C18.3241 4.22459 18.3726 4.12825 18.3643 3.99208C18.3427 3.63693 18.4288 3.30532 18.6133 3.00237C18.8419 2.62707 19.1943 2.44273 19.6195 2.40511C19.831 2.38638 20.0083 2.47957 20.1065 2.6843C20.1349 2.74349 20.1617 2.80339 20.1883 2.86084C20.4314 2.82385 20.4564 2.79685 20.4779 2.58559C20.4887 2.48004 20.4919 2.36819 20.5308 2.27233C20.58 2.15103 20.7202 2.20825 20.8161 2.1726C20.933 2.12915 21.0604 2.1101 21.185 2.09412C21.2227 2.08924 21.2662 2.12946 21.3206 2.15552C21.4135 2.10845 21.528 2.04265 21.6486 1.99125C21.8018 1.92592 21.9373 1.9759 22.0481 2.08853C22.1283 2.16984 22.139 2.33608 22.0835 2.44565C22.0271 2.5571 21.8159 2.69784 21.7071 2.66549C21.6202 2.63967 21.5483 2.5634 21.456 2.50003C21.2825 2.55143 21.2501 2.59276 21.2327 2.78749C21.196 3.19749 21.1562 3.60718 21.1192 4.01719C21.113 4.08614 21.1081 4.15792 21.0276 4.17595C20.8034 4.22601 20.5779 4.27 20.326 4.32195C20.3615 3.91274 20.3944 3.53296 20.4274 3.15184C20.2161 3.17695 20.2094 3.18498 20.2004 3.39332C20.181 3.84316 19.9961 4.20751 19.6056 4.43726C19.2666 4.63656 18.9076 4.68261 18.5102 4.44207C18.4909 4.47221 18.469 4.52196 18.4336 4.55856C18.3025 4.69394 18.152 4.79815 17.968 4.85475C17.6369 4.95652 17.4837 4.91677 17.2553 4.64459C17.1995 4.70063 17.1452 4.75628 17.0896 4.81059C16.7839 5.1093 16.4204 5.2579 15.9902 5.23563C15.7437 5.22288 15.543 5.06388 15.4915 4.82263C15.4556 4.65435 15.4171 4.48363 15.4721 4.31015C15.4793 4.28732 15.4731 4.26024 15.4731 4.23427C15.3184 4.21979 15.3273 4.32054 15.3255 4.41467C15.3202 4.6952 15.2385 4.95203 15.0714 5.17715C14.7928 5.5526 14.4157 5.7001 13.9557 5.63808C13.6497 5.59675 13.523 5.38935 13.4976 5.157C13.4393 4.62436 13.5567 4.13494 13.9797 3.76484C14.2304 3.54547 14.5268 3.4415 14.8637 3.47487C15.0559 3.49392 15.1771 3.60521 15.2475 3.77932C15.2671 3.82789 15.2869 3.87637 15.3062 3.92391C15.4821 3.89566 15.5993 3.8138 15.6842 3.65779C15.8707 3.3154 16.1742 3.11894 16.554 3.05542C16.6795 3.0344 16.819 3.05085 16.9437 3.08289C17.0742 3.1165 17.164 3.29187 17.1569 3.43378C17.1496 3.57892 17.0572 3.69518 16.9129 3.74067C16.7471 3.79294 16.6738 3.73359 16.6754 3.56192C16.6759 3.50982 16.6433 3.45739 16.6259 3.40513C16.5712 3.43504 16.4926 3.45149 16.4664 3.49761C16.4017 3.61198 16.3447 3.73611 16.3138 3.86338C16.2576 4.09503 16.2087 4.33132 16.2799 4.57084C16.3174 4.69685 16.3515 4.72377 16.4787 4.71039C16.8102 4.6756 17.0364 4.48166 17.2118 4.21514C17.2258 4.19389 17.234 4.16611 17.2367 4.14053C17.2651 3.86992 17.2921 3.59915 17.3188 3.32831C17.3214 3.30249 17.3192 3.27636 17.3192 3.27187ZM19.1549 3.69754C19.1607 3.75894 19.1597 3.83308 19.176 3.90321C19.2198 4.09062 19.3549 4.131 19.4881 3.98822C19.5533 3.91832 19.5945 3.82214 19.6323 3.73186C19.6626 3.65945 19.6671 3.57672 19.6909 3.501C19.719 3.41159 19.7181 3.33878 19.6402 3.26849C19.545 3.18254 19.5409 3.0721 19.5942 2.95837C19.6082 2.92846 19.6301 2.89878 19.6321 2.86785C19.6341 2.83912 19.6212 2.80268 19.6017 2.7819C19.5902 2.76962 19.5438 2.77072 19.5294 2.78379C19.4618 2.8451 19.3793 2.90233 19.3397 2.98009C19.2278 3.19993 19.1699 3.43803 19.1549 3.69754ZM14.2891 4.74951C14.2891 4.80933 14.2762 4.87301 14.2925 4.92803C14.3117 4.99265 14.3438 5.08238 14.3932 5.10135C14.4466 5.12189 14.5309 5.08206 14.5933 5.05145C14.6304 5.03318 14.6642 4.9858 14.6773 4.94456C14.7293 4.78084 14.7745 4.61491 14.817 4.44844C14.8237 4.42199 14.8139 4.37666 14.7946 4.36068C14.6484 4.2397 14.6554 4.10345 14.7387 3.9517C14.7512 3.92887 14.7505 3.88054 14.7349 3.86527C14.7164 3.84701 14.6629 3.83599 14.6462 3.84922C14.5804 3.90101 14.5049 3.95351 14.4662 4.02395C14.343 4.24804 14.2797 4.49118 14.2891 4.74951Z" fill="white"/>
<path d="M11.3353 3.72392C10.9703 4.01602 10.9071 4.31504 11.0902 4.80651C10.9062 4.84705 10.719 4.89034 10.5606 4.77676C10.4077 4.66711 10.3863 4.48592 10.4257 4.30622C10.4679 4.11307 10.564 3.94431 10.7025 3.80672C11.2075 3.30479 11.8141 3.02961 12.5308 3.08424C13.0135 3.121 13.2866 3.37319 13.4028 3.87875C13.5436 4.49049 13.4169 5.07051 13.0811 5.5937C12.884 5.90083 12.6027 6.11224 12.2115 6.11051C12.1199 6.11012 12.0285 6.08517 11.932 6.07084C11.7055 6.27163 11.4019 6.23228 11.1091 6.32122C11.0664 6.01417 11.1656 5.73892 11.1745 5.45855C11.1836 5.17417 11.2245 4.89089 11.2515 4.60706C11.2783 4.32425 11.3051 4.0416 11.3353 3.72392ZM12.1005 3.44584C12.1129 3.48299 12.1257 3.50188 12.1241 3.51951C12.0947 3.84994 12.0641 4.18029 12.033 4.51056C12.0012 4.8476 11.9653 5.18424 11.9376 5.5216C11.9247 5.67933 11.9771 5.71617 12.1269 5.66556C12.3021 5.60629 12.4095 5.47437 12.489 5.31467C12.5821 5.12757 12.6095 4.92355 12.6526 4.72205C12.7214 4.39973 12.6785 4.08599 12.6031 3.77493C12.5473 3.54509 12.3654 3.39735 12.1419 3.40624C11.911 3.41537 11.6949 3.49188 11.5031 3.63364C11.7014 3.57138 11.8997 3.50896 12.1005 3.44584Z" fill="white"/>
<path d="M19.6408 6.34711C19.6511 6.59851 19.5452 6.80725 19.3635 6.96239C19.0345 7.24331 18.6648 7.37413 18.2219 7.2404C17.8217 7.11958 17.515 6.67179 17.7257 6.19756C17.9899 5.60282 18.8647 5.32615 19.3913 5.78661C19.5555 5.93025 19.6425 6.11554 19.6408 6.34711Z" fill="white"/>
</svg>
