
<svg width="18" height="18" viewBox="0 0 18 18" fill="none" xmlns="http://www.w3.org/2000/svg">
<path d="M17 7.4C17 6.97565 16.8314 6.56869 16.5314 6.26863C16.2313 5.96857 15.8243 5.8 15.4 5.8H12.2V2.6C12.2 2.38989 12.1586 2.18183 12.0782 1.98771C11.9978 1.79359 11.8799 1.6172 11.7314 1.46863C11.5828 1.32006 11.4064 1.2022 11.2123 1.12179C11.0182 1.04138 10.8101 1 10.6 1H7.4C6.97565 1 6.56869 1.16857 6.26863 1.46863C5.96857 1.76869 5.8 2.17565 5.8 2.6V5.8H2.6C2.38989 5.8 2.18183 5.84139 1.98771 5.92179C1.79359 6.0022 1.6172 6.12006 1.46863 6.26863C1.32006 6.4172 1.2022 6.59359 1.12179 6.78771C1.04138 6.98183 1 7.18988 1 7.4V10.6C1 11.0243 1.16857 11.4313 1.46863 11.7314C1.76869 12.0314 2.17565 12.2 2.6 12.2H5.8V15.4C5.8 15.6101 5.84139 15.8182 5.92179 16.0123C6.0022 16.2064 6.12006 16.3828 6.26863 16.5314C6.4172 16.6799 6.59359 16.7978 6.78771 16.8782C6.98183 16.9586 7.18988 17 7.4 17H10.6C11.0243 17 11.4313 16.8314 11.7314 16.5314C12.0314 16.2313 12.2 15.8243 12.2 15.4V12.2H15.4C15.6101 12.2 15.8182 12.1586 16.0123 12.0782C16.2064 11.9978 16.3828 11.8799 16.5314 11.7314C16.6799 11.5828 16.7978 11.4064 16.8782 11.2123C16.9586 11.0182 17 10.8101 17 10.6V7.4Z" stroke="white" stroke-width="1.5" stroke-linecap="round" stroke-linejoin="round"/>
</svg>
