<svg width="49" height="50" viewBox="0 0 49 50" fill="none" xmlns="http://www.w3.org/2000/svg">
<circle cx="24.5" cy="24.9102" r="24.5" fill="white"/>
<path d="M18.7611 29.7716C18.5616 29.2486 18.4833 28.7468 18.5105 28.2327C18.5634 27.2345 18.8019 26.2873 19.35 25.44C19.9574 24.5008 20.8188 23.9103 21.9086 23.6673C22.2172 23.5985 22.539 23.5508 22.8537 23.556C23.2799 23.5631 23.655 23.7222 23.8844 24.1173C24.0552 24.4115 24.102 24.7336 24.0713 25.0655C23.9747 26.1068 23.3436 26.8023 22.5482 27.3843C22.1558 27.6714 21.7199 27.8811 21.2576 28.029C21.1298 28.0699 21.0625 28.1276 21.0838 28.2573C21.1159 28.4536 21.1358 28.6566 21.204 28.8408C21.2736 29.0285 21.4233 29.1301 21.6489 29.1369C22.0924 29.1502 22.4915 29.0159 22.8816 28.8301C23.4937 28.5388 23.9265 28.0494 24.3245 27.5225C24.4651 27.3363 24.4465 27.1067 24.4694 26.8936C24.5489 26.152 24.6146 25.4088 24.685 24.6662C24.7253 24.2404 24.7728 23.8151 24.7997 23.3884C24.8093 23.236 24.8538 23.1543 25.0071 23.1234C25.7207 22.9799 26.433 22.8306 27.1461 22.6852C27.1886 22.6766 27.2345 22.6841 27.3129 22.6841C27.2984 22.8744 27.2876 23.0515 27.2707 23.228C27.2387 23.563 27.2034 23.8976 27.169 24.2324C27.0779 25.1192 26.9842 26.0056 26.897 26.8926C26.8739 27.1281 26.8628 27.3655 26.8604 27.6021C26.8578 27.8548 26.9815 27.9334 27.2346 27.8696C27.7036 27.7512 27.9966 27.422 28.2353 27.0339C28.5431 26.5331 28.7566 25.9916 28.8632 25.4136C28.9439 24.9758 29.0044 24.5341 29.067 24.0931C29.082 23.9875 29.0692 23.8779 29.0692 23.7459C28.9729 23.756 28.8994 23.7486 28.8378 23.7724C28.3319 23.9669 27.7935 23.3457 27.9477 22.8067C28.0347 22.5031 28.2442 22.3111 28.5254 22.1933C28.7962 22.0799 29.0765 22.0039 29.374 22.0674C29.8485 22.1687 30.0706 22.5104 30.1653 22.9456C30.3669 23.8713 30.2886 24.7908 30.084 25.7078C29.8995 26.5348 29.5962 27.3061 29.0925 27.9937C28.4243 28.9062 27.5356 29.4478 26.4182 29.6336C26.0371 29.697 25.6728 29.6721 25.3133 29.5553C24.9782 29.4465 24.7378 29.2171 24.5746 28.9063C24.5456 28.8509 24.5171 28.7954 24.4749 28.7141C24.3779 28.8199 24.2897 28.907 24.2119 29.0026C23.7728 29.5425 23.2101 29.9169 22.614 30.2646C21.7175 30.7876 20.7265 30.9989 19.7349 31.2152C19.1932 31.3333 18.6463 31.4324 18.0979 31.5137C17.6575 31.579 17.212 31.6268 16.7673 31.6399C16.4651 31.6489 16.272 31.7436 16.0943 32.001C15.6969 32.5773 15.2701 33.1352 14.8279 33.6784C14.3016 34.3252 13.6454 34.8094 12.8668 35.1224C10.1175 36.2683 7.02824 35.3707 7.4804 32.5686C7.86934 30.9507 8.89234 29.9101 10.4369 29.3663C11.4059 29.0252 12.4122 28.9616 13.4309 29.0567C13.5035 29.0635 13.5765 29.0664 13.6494 29.0687C13.9673 29.0795 13.9858 29.066 14.0079 28.7433C14.0178 28.598 14.0142 28.4514 14.0094 28.3056C13.9964 27.9233 13.9794 27.5411 13.9642 27.1589C13.9258 26.1939 13.892 25.2287 13.8469 24.264C13.8308 23.9189 13.7927 23.5744 13.7551 23.2307C13.7302 23.0031 13.7226 23.0022 13.4825 23.0004C13.1085 22.9977 12.7325 23.0217 12.3608 22.9919C11.5106 22.9239 10.8013 22.596 10.4317 21.7732C10.1773 21.207 10.242 20.6357 10.5106 20.0842C10.5303 20.0436 10.5592 20.0071 10.5872 19.9711C10.784 19.7177 11.0163 19.6657 11.2744 19.8501C11.5109 20.019 11.7242 20.2203 11.9514 20.4027C12.2717 20.6599 12.6195 20.8422 13.0502 20.8103C13.3777 20.786 13.4696 20.7197 13.5157 20.3993C13.5987 19.823 13.6563 19.2427 13.7516 18.6686C13.9401 17.5344 14.2452 16.4421 15.0254 15.5487C15.5868 14.9057 16.2866 14.4904 17.1415 14.418C17.8637 14.3569 18.4716 14.6543 18.8939 15.2388C19.6921 16.3434 19.7592 17.525 19.1733 18.7476C18.9067 19.3037 18.4911 19.7569 18.1182 20.2387C17.7783 20.678 17.4206 21.1038 17.0878 21.5483C16.8914 21.8104 16.7166 22.0986 16.6914 22.4345C16.6732 22.6768 16.6986 22.9239 16.7213 23.1674C16.7855 23.8558 16.8494 24.5443 16.9303 25.2308C16.9953 25.7834 17.0561 26.3351 17.0256 26.8922C16.9983 27.392 16.9694 27.8918 16.9327 28.391C16.904 28.781 16.8627 29.1702 16.8263 29.5595C16.8174 29.654 16.8434 29.7196 16.9491 29.7347C17.0031 29.7424 17.0556 29.7698 17.1089 29.7701C17.6453 29.7726 18.1818 29.7716 18.7611 29.7716ZM13.628 31.3509C13.0249 31.2247 12.4289 31.1568 11.8308 31.2343C11.5474 31.271 11.2718 31.3806 10.9979 31.4728C10.8262 31.5306 10.6655 31.6198 10.498 31.6909C10.0927 31.8631 9.81349 32.1709 9.61864 32.5504C9.35356 33.0666 9.65058 33.624 10.2189 33.7351C10.8021 33.8491 11.3476 33.7297 11.8506 33.4512C12.6578 33.0044 13.2117 32.3166 13.6002 31.4893C13.6182 31.4512 13.6178 31.4047 13.628 31.3509ZM16.3625 19.1524C16.5079 18.9611 16.6374 18.799 16.7579 18.6305C17.0876 18.1691 17.3811 17.6868 17.5338 17.1346C17.6233 16.8108 17.6223 16.4869 17.4654 16.1775C17.3617 15.973 17.2113 15.9282 17.0198 16.0607C16.9399 16.1161 16.8633 16.1917 16.8157 16.2754C16.7263 16.4329 16.631 16.5962 16.5885 16.7693C16.4868 17.1833 16.3942 17.6017 16.3367 18.0235C16.288 18.3808 16.2225 18.7463 16.3625 19.1524ZM21.1038 27.0426C21.1255 27.0524 21.1338 27.0599 21.1407 27.0587C21.1672 27.0541 21.1951 27.0512 21.2189 27.0401C21.7489 26.7913 22.1377 26.3947 22.3973 25.8762C22.5688 25.5334 22.6125 25.164 22.5264 24.7883C22.4825 24.5968 22.4086 24.5667 22.2311 24.6429C22.0409 24.7247 21.9049 24.8688 21.7915 25.0378C21.3828 25.6465 21.2209 26.3379 21.1038 27.0426Z" fill="#C8C8C8"/>
<path d="M37.407 20.5816C37.407 20.7026 37.407 20.7827 37.407 20.8934C37.4728 20.8511 37.5238 20.8247 37.5676 20.7893C38.0617 20.39 38.6437 20.1862 39.2608 20.1734C40.1721 20.1548 40.7495 20.5751 40.8454 21.5712C40.9051 22.1914 40.8087 22.8071 40.7178 23.4207C40.6658 23.7717 40.5933 24.1253 40.5953 24.4773C40.5981 24.9862 40.6981 25.1243 41.2158 24.9752C41.4014 24.9218 41.5679 24.8018 41.7403 24.7135C41.9038 25.4813 41.4626 26.2778 40.7175 26.6069C40.3638 26.7632 39.9951 26.8444 39.6025 26.8309C38.7975 26.8032 38.3347 26.1983 38.28 25.5493C38.2356 25.0234 38.2668 24.4952 38.349 23.9686C38.4218 23.5022 38.4498 23.0283 38.4838 22.5567C38.4926 22.4333 38.4625 22.3026 38.4289 22.1813C38.3499 21.896 38.1911 21.8271 37.9135 21.9442C37.6637 22.0496 37.5149 22.2501 37.3941 22.4827C37.195 22.8657 37.1693 23.2845 37.127 23.7008C37.0378 24.5786 36.947 25.4563 36.8606 26.3344C36.8338 26.6062 36.8224 26.8794 36.7978 27.1514C36.7759 27.393 36.7388 27.429 36.5094 27.4769C35.8245 27.6199 35.1399 27.7643 34.4547 27.9061C34.4123 27.9149 34.3665 27.9073 34.2881 27.9073C34.2987 27.7769 34.3085 27.6566 34.3211 27.5009C34.2303 27.5608 34.1614 27.5983 34.1014 27.6468C33.5622 28.083 32.9423 28.342 32.2585 28.4058C31.4792 28.4784 30.7924 28.1403 30.6006 27.2135C30.5162 26.8059 30.5275 26.4017 30.5926 25.9925C30.681 25.4359 30.7531 24.8767 30.8296 24.3183C30.8473 24.1891 30.8905 24.1058 31.0387 24.0769C31.5296 23.9812 32.0172 23.8694 32.5067 23.7665C32.7718 23.7107 33.038 23.6601 33.3339 23.6012C33.3339 23.725 33.3454 23.8234 33.3321 23.9184C33.2491 24.5129 33.1578 25.1063 33.0755 25.7009C33.0469 25.9074 33.0208 26.1163 33.0209 26.3242C33.0212 26.5692 33.1002 26.6318 33.3438 26.6089C33.7134 26.5743 33.9878 26.3743 34.2071 26.0884C34.4129 25.8201 34.5117 25.509 34.5466 25.1782C34.621 24.4725 34.6919 23.7663 34.757 23.0598C34.8044 22.5434 34.8393 22.0259 34.8819 21.5091C34.8893 21.4187 34.9145 21.3296 34.9197 21.2393C34.9274 21.1003 35.0163 21.0576 35.1329 21.034C35.8017 20.8983 36.47 20.7609 37.1387 20.6251C37.2175 20.6092 37.2975 20.5993 37.407 20.5816Z" fill="#C8C8C8"/>
<path d="M30.3858 18.1194C30.306 18.0617 30.1958 18.014 30.1997 17.9788C30.2118 17.8695 30.2375 17.7265 30.3132 17.6684C30.4071 17.5962 30.4389 17.5308 30.4436 17.4249C30.4476 17.3344 30.4814 17.2444 30.4789 17.1547C30.473 16.9464 30.574 16.8489 30.7693 16.7977C31.031 16.7291 31.2859 16.6347 31.5841 16.5383C31.5538 16.8403 31.5273 17.1051 31.4993 17.3843C31.622 17.3671 31.7178 17.3536 31.8123 17.3405C31.8762 17.6082 31.8503 17.6818 31.6302 17.7594C31.5029 17.8043 31.4635 17.8925 31.4514 18.0057C31.4233 18.2681 31.4001 18.531 31.3758 18.7939C31.3589 18.975 31.3372 19.156 31.329 19.3377C31.3198 19.5434 31.4147 19.6009 31.5988 19.5082C31.7632 19.4253 31.8297 19.2933 31.8183 19.1066C31.7887 18.6198 31.9067 18.1653 32.1596 17.75C32.473 17.2356 32.956 16.9829 33.5388 16.9314C33.8287 16.9057 34.0718 17.0334 34.2063 17.3141C34.2453 17.3952 34.2821 17.4773 34.3185 17.556C34.6517 17.5053 34.6859 17.4683 34.7155 17.1788C34.7302 17.0341 34.7347 16.8808 34.788 16.7494C34.8554 16.5831 35.0475 16.6615 35.1789 16.6127C35.3392 16.5531 35.5138 16.527 35.6846 16.5051C35.7363 16.4984 35.796 16.5535 35.8705 16.5893C35.9978 16.5247 36.1548 16.4345 36.3201 16.3641C36.53 16.2745 36.7158 16.3431 36.8677 16.4974C36.9776 16.6089 36.9923 16.8368 36.9163 16.9869C36.8389 17.1397 36.5495 17.3326 36.4002 17.2883C36.2811 17.2529 36.1826 17.1483 36.0561 17.0615C35.8183 17.1319 35.7738 17.1886 35.75 17.4555C35.6997 18.0175 35.6451 18.579 35.5944 19.141C35.5859 19.2355 35.5792 19.3339 35.469 19.3586C35.1616 19.4273 34.8525 19.4876 34.5072 19.5588C34.5559 18.9979 34.601 18.4773 34.6462 17.9549C34.3566 17.9893 34.3473 18.0003 34.335 18.2859C34.3085 18.9025 34.0551 19.4019 33.5197 19.7168C33.0552 19.99 32.563 20.0531 32.0182 19.7234C31.9918 19.7647 31.9618 19.8329 31.9133 19.8831C31.7336 20.0687 31.5273 20.2115 31.2751 20.2891C30.8212 20.4286 30.6113 20.3741 30.2982 20.001C30.2217 20.0778 30.1472 20.1541 30.0711 20.2286C29.652 20.638 29.1538 20.8417 28.5641 20.8112C28.2263 20.7937 27.9512 20.5757 27.8806 20.2451C27.8314 20.0144 27.7786 19.7804 27.854 19.5426C27.8639 19.5113 27.8554 19.4742 27.8554 19.4386C27.6434 19.4187 27.6555 19.5568 27.6531 19.6859C27.6458 20.0704 27.5338 20.4224 27.3048 20.731C26.9229 21.2456 26.406 21.4478 25.7755 21.3628C25.356 21.3061 25.1824 21.0219 25.1476 20.7034C25.0676 19.9733 25.2286 19.3024 25.8084 18.7951C26.152 18.4945 26.5583 18.3519 27.0201 18.3977C27.2834 18.4238 27.4497 18.5763 27.5461 18.815C27.573 18.8816 27.6001 18.948 27.6265 19.0132C27.8678 18.9745 28.0283 18.8623 28.1447 18.6484C28.4003 18.1791 28.8163 17.9098 29.3369 17.8227C29.509 17.7939 29.7001 17.8165 29.871 17.8604C30.05 17.9065 30.173 18.1468 30.1633 18.3414C30.1534 18.5403 30.0267 18.6997 29.8289 18.762C29.6016 18.8337 29.5011 18.7523 29.5034 18.517C29.504 18.4456 29.4593 18.3737 29.4355 18.3021C29.3605 18.3431 29.2527 18.3656 29.2169 18.4289C29.1281 18.5856 29.05 18.7558 29.0077 18.9302C28.9307 19.2477 28.8636 19.5716 28.9612 19.8999C29.0126 20.0727 29.0594 20.1096 29.2337 20.0912C29.6882 20.0435 29.9981 19.7777 30.2386 19.4124C30.2578 19.3832 30.269 19.3452 30.2727 19.3101C30.3117 18.9392 30.3487 18.568 30.3852 18.1968C30.3888 18.1614 30.3858 18.1256 30.3858 18.1194ZM32.902 18.7029C32.9099 18.7871 32.9085 18.8887 32.931 18.9848C32.991 19.2417 33.1761 19.297 33.3588 19.1013C33.4481 19.0055 33.5045 18.8737 33.5563 18.7499C33.5978 18.6507 33.6041 18.5373 33.6367 18.4335C33.6752 18.3109 33.6739 18.2111 33.5672 18.1148C33.4367 17.997 33.431 17.8456 33.5041 17.6897C33.5233 17.6487 33.5533 17.608 33.5561 17.5656C33.5588 17.5263 33.5411 17.4763 33.5144 17.4478C33.4987 17.431 33.435 17.4325 33.4153 17.4504C33.3226 17.5345 33.2095 17.6129 33.1553 17.7195C33.0019 18.0208 32.9226 18.3472 32.902 18.7029ZM26.2325 20.1448C26.2325 20.2268 26.2148 20.3141 26.2371 20.3895C26.2635 20.4781 26.3074 20.6011 26.3751 20.6271C26.4483 20.6553 26.5639 20.6007 26.6494 20.5587C26.7003 20.5337 26.7466 20.4687 26.7646 20.4122C26.8358 20.1878 26.8977 19.9603 26.956 19.7322C26.9653 19.6959 26.9518 19.6338 26.9254 19.6119C26.725 19.446 26.7346 19.2593 26.8488 19.0513C26.8659 19.02 26.8648 18.9537 26.8436 18.9328C26.8181 18.9078 26.7449 18.8927 26.7219 18.9108C26.6318 18.9818 26.5282 19.0538 26.4751 19.1503C26.3063 19.4575 26.2196 19.7907 26.2325 20.1448Z" fill="#C8C8C8"/>
<path d="M22.1833 18.7387C21.6829 19.1391 21.5963 19.549 21.8473 20.2226C21.5951 20.2782 21.3385 20.3375 21.1214 20.1819C20.9118 20.0316 20.8825 19.7832 20.9365 19.5369C20.9944 19.2721 21.1261 19.0408 21.3159 18.8522C22.0081 18.1642 22.8395 17.787 23.8219 17.8619C24.4836 17.9123 24.8579 18.258 25.0172 18.951C25.2101 19.7895 25.0365 20.5845 24.5763 21.3016C24.306 21.7226 23.9204 22.0124 23.3843 22.01C23.2588 22.0095 23.1334 21.9753 23.0012 21.9556C22.6907 22.2309 22.2746 22.1769 21.8733 22.2988C21.8147 21.878 21.9506 21.5007 21.9629 21.1164C21.9753 20.7266 22.0314 20.3383 22.0684 19.9492C22.1051 19.5616 22.1419 19.1742 22.1833 18.7387ZM23.2321 18.3576C23.2492 18.4085 23.2666 18.4344 23.2645 18.4585C23.2242 18.9115 23.1823 19.3643 23.1395 19.817C23.096 20.279 23.0469 20.7404 23.0089 21.2028C22.9912 21.419 23.0629 21.4695 23.2683 21.4001C23.5084 21.3189 23.6557 21.1381 23.7646 20.9192C23.8923 20.6627 23.9298 20.3831 23.9888 20.1069C24.0832 19.6651 24.0244 19.235 23.921 18.8086C23.8446 18.4936 23.5953 18.2911 23.2889 18.3033C22.9724 18.3158 22.6762 18.4207 22.4132 18.615C22.6851 18.5296 22.9569 18.4441 23.2321 18.3576Z" fill="#C8C8C8"/>
<path d="M33.5678 22.3343C33.5819 22.6789 33.4367 22.965 33.1877 23.1777C32.7367 23.5627 32.23 23.7421 31.6229 23.5588C31.0743 23.3931 30.6539 22.7794 30.9427 22.1293C31.3049 21.3141 32.504 20.9349 33.2258 21.5661C33.4508 21.7629 33.5701 22.0169 33.5678 22.3343Z" fill="#C8C8C8"/>
</svg>
