<svg width="43" height="27" viewBox="0 0 43 27" fill="none" xmlns="http://www.w3.org/2000/svg">
<path d="M13.9729 18.9528C13.7287 18.3124 13.6327 17.6979 13.666 17.0684C13.7308 15.8462 14.0229 14.6862 14.694 13.6488C15.4377 12.4988 16.4925 11.7756 17.8269 11.4781C18.2049 11.3938 18.5988 11.3354 18.9842 11.3418C19.5062 11.3505 19.9654 11.5454 20.2464 12.0291C20.4555 12.3894 20.5128 12.7838 20.4752 13.1903C20.3569 14.4652 19.5841 15.3169 18.6102 16.0295C18.1297 16.3811 17.5959 16.6379 17.0298 16.819C16.8734 16.8691 16.7909 16.9398 16.817 17.0985C16.8563 17.3389 16.8806 17.5875 16.9643 17.813C17.0495 18.0429 17.2327 18.1673 17.5089 18.1756C18.052 18.1919 18.5407 18.0274 19.0184 17.7999C19.7679 17.4432 20.2979 16.844 20.7852 16.1988C20.9574 15.9707 20.9347 15.6896 20.9627 15.4287C21.06 14.5206 21.1405 13.6106 21.2266 12.7013C21.276 12.1799 21.3341 11.6591 21.367 11.1366C21.3788 10.95 21.4334 10.8499 21.6211 10.8122C22.4949 10.6365 23.367 10.4536 24.2403 10.2755C24.2923 10.265 24.3485 10.2742 24.4445 10.2742C24.4267 10.5073 24.4135 10.724 24.3929 10.9402C24.3536 11.3504 24.3104 11.7602 24.2683 12.1701C24.1568 13.2559 24.042 14.3413 23.9352 15.4275C23.907 15.7159 23.8934 16.0065 23.8904 16.2963C23.8873 16.6057 24.0387 16.702 24.3486 16.6238C24.9229 16.4788 25.2817 16.0758 25.5739 15.6004C25.9508 14.9873 26.2123 14.3243 26.3428 13.6164C26.4416 13.0803 26.5157 12.5395 26.5923 11.9996C26.6107 11.8702 26.5951 11.736 26.5951 11.5744C26.4771 11.5867 26.3872 11.5777 26.3117 11.6068C25.6923 11.845 25.0329 11.0843 25.2218 10.4243C25.3283 10.0525 25.5849 9.81752 25.9291 9.67326C26.2607 9.53441 26.604 9.44127 26.9683 9.51909C27.5493 9.64314 27.8212 10.0615 27.9372 10.5944C28.1841 11.7279 28.0882 12.8539 27.8377 13.9767C27.6118 14.9893 27.2403 15.9337 26.6236 16.7758C25.8054 17.893 24.7172 18.5562 23.3489 18.7839C22.8823 18.8614 22.4362 18.8309 21.996 18.6879C21.5857 18.5546 21.2913 18.2738 21.0915 17.8932C21.0559 17.8254 21.021 17.7574 20.9694 17.6579C20.8506 17.7875 20.7426 17.8941 20.6473 18.0112C20.1096 18.6722 19.4207 19.1306 18.6908 19.5564C17.593 20.1969 16.3796 20.4556 15.1653 20.7204C14.502 20.8651 13.8324 20.9864 13.1609 21.086C12.6216 21.1659 12.076 21.2244 11.5316 21.2405C11.1615 21.2515 10.9251 21.3675 10.7075 21.6827C10.2208 22.3883 9.69816 23.0714 9.15678 23.7366C8.51222 24.5286 7.70874 25.1215 6.75544 25.5047C3.38892 26.9079 -0.393874 25.8089 0.159793 22.3777C0.636044 20.3966 1.8887 19.1223 3.77996 18.4565C4.96656 18.0388 6.19874 17.961 7.44611 18.0773C7.53502 18.0857 7.62445 18.0892 7.71363 18.0921C8.10295 18.1054 8.12554 18.0888 8.15262 17.6937C8.16478 17.5157 8.16042 17.3362 8.15447 17.1577C8.13862 16.6895 8.11775 16.2216 8.09912 15.7536C8.05209 14.572 8.01074 13.39 7.95552 12.2088C7.93583 11.7862 7.8892 11.3644 7.84309 10.9435C7.81258 10.6649 7.80333 10.6637 7.50925 10.6616C7.05137 10.6583 6.59097 10.6876 6.13585 10.6511C5.09471 10.5679 4.22623 10.1663 3.77362 9.15883C3.46211 8.46552 3.54137 7.76601 3.87019 7.09067C3.89437 7.04099 3.92977 6.99621 3.96399 6.95222C4.20496 6.6419 4.48952 6.57822 4.80552 6.80399C5.0951 7.01087 5.35628 7.25726 5.6345 7.48065C6.02673 7.7956 6.45252 8.01886 6.9799 7.97976C7.38098 7.95004 7.49353 7.86879 7.54994 7.47656C7.65154 6.77083 7.72208 6.06022 7.83886 5.35727C8.06966 3.96842 8.44326 2.63095 9.39854 1.53696C10.086 0.749593 10.9429 0.241107 11.9897 0.152462C12.874 0.0776889 13.6184 0.441779 14.1356 1.15754C15.1129 2.51007 15.1951 3.95692 14.4776 5.45398C14.1511 6.135 13.6423 6.68985 13.1857 7.27985C12.7694 7.81779 12.3315 8.33909 11.9239 8.88338C11.6835 9.2044 11.4695 9.55727 11.4386 9.96852C11.4162 10.2652 11.4474 10.5679 11.4752 10.8661C11.5538 11.7089 11.6321 12.552 11.731 13.3926C11.8107 14.0693 11.8851 14.7448 11.8478 15.427C11.8144 16.039 11.779 16.651 11.7341 17.2622C11.6989 17.7398 11.6483 18.2163 11.6037 18.6931C11.5929 18.8088 11.6247 18.8892 11.7542 18.9076C11.8202 18.917 11.8846 18.9506 11.9498 18.951C12.6067 18.954 13.2635 18.9528 13.9729 18.9528ZM7.68747 20.8866C6.94898 20.7321 6.21921 20.649 5.4868 20.7438C5.13976 20.7887 4.80235 20.923 4.46693 21.0359C4.25674 21.1067 4.0599 21.2158 3.85487 21.3029C3.35854 21.5137 3.01664 21.8907 2.77805 22.3554C2.45346 22.9874 2.81716 23.67 3.5131 23.8061C4.22715 23.9456 4.89509 23.7995 5.51111 23.4584C6.49942 22.9113 7.17766 22.0691 7.65338 21.0561C7.67545 21.0095 7.67492 20.9526 7.68747 20.8866ZM11.0359 5.94965C11.2138 5.71542 11.3725 5.51699 11.5199 5.31064C11.9237 4.74561 12.2831 4.15509 12.4701 3.47895C12.5797 3.08236 12.5784 2.68577 12.3863 2.30689C12.2593 2.05654 12.0752 2.00172 11.8407 2.16395C11.7428 2.23172 11.649 2.32433 11.5907 2.42684C11.4814 2.61972 11.3646 2.8196 11.3125 3.03163C11.1881 3.53854 11.0746 4.05085 11.0042 4.5674C10.9446 5.00481 10.8644 5.45239 11.0359 5.94965ZM16.8415 15.6111C16.8681 15.6232 16.8783 15.6323 16.8867 15.6308C16.9191 15.6253 16.9533 15.6217 16.9825 15.6081C17.6314 15.3035 18.1075 14.8178 18.4254 14.1829C18.6354 13.7632 18.6889 13.3109 18.5835 12.8507C18.5297 12.6162 18.4393 12.5794 18.2219 12.6728C17.989 12.7729 17.8224 12.9494 17.6836 13.1563C17.1832 13.9017 16.9849 14.7482 16.8415 15.6111Z" fill="white"/>
<path d="M36.8047 7.69944C36.8047 7.84766 36.8047 7.94569 36.8047 8.08123C36.8853 8.02944 36.9476 7.99708 37.0013 7.95375C37.6063 7.46481 38.3189 7.21526 39.0746 7.19967C40.1905 7.17682 40.8976 7.69151 41.015 8.91127C41.0881 9.67063 40.97 10.4246 40.8587 11.1759C40.795 11.6058 40.7063 12.0387 40.7086 12.4697C40.7121 13.0929 40.8345 13.262 41.4685 13.0794C41.6958 13.014 41.8996 12.867 42.1107 12.7589C42.311 13.6991 41.7707 14.6744 40.8583 15.0774C40.4253 15.2687 39.9737 15.3682 39.493 15.3517C38.5073 15.3177 37.9406 14.577 37.8736 13.7824C37.8193 13.1383 37.8575 12.4917 37.9581 11.8468C38.0473 11.2757 38.0815 10.6954 38.1231 10.1179C38.134 9.96681 38.0971 9.80683 38.0559 9.65821C37.9592 9.30891 37.7647 9.2245 37.4248 9.36797C37.119 9.49704 36.9368 9.74249 36.7888 10.0273C36.5451 10.4963 36.5135 11.0092 36.4617 11.5188C36.3526 12.5938 36.2414 13.6685 36.1356 14.7437C36.1028 15.0765 36.0888 15.411 36.0587 15.744C36.0319 16.04 35.9864 16.084 35.7056 16.1426C34.8669 16.3178 34.0286 16.4946 33.1896 16.6683C33.1376 16.679 33.0816 16.6697 32.9856 16.6697C32.9985 16.51 33.0105 16.3627 33.026 16.1721C32.9148 16.2454 32.8305 16.2914 32.757 16.3507C32.0967 16.8848 31.3377 17.202 30.5003 17.2801C29.5461 17.369 28.7051 16.955 28.4702 15.8201C28.3669 15.321 28.3808 14.8262 28.4605 14.3251C28.5688 13.6435 28.657 12.9588 28.7507 12.275C28.7724 12.1167 28.8252 12.0148 29.0067 11.9794C29.6078 11.8622 30.205 11.7253 30.8043 11.5993C31.1289 11.531 31.4548 11.469 31.8172 11.3969C31.8172 11.5485 31.8312 11.669 31.815 11.7853C31.7134 12.5133 31.6016 13.2399 31.5008 13.968C31.4658 14.2208 31.4338 14.4766 31.434 14.7312C31.4342 15.0312 31.5311 15.1078 31.8294 15.0798C32.2818 15.0374 32.6179 14.7926 32.8864 14.4425C33.1384 14.114 33.2594 13.733 33.3021 13.3279C33.3933 12.4638 33.4801 11.5991 33.5597 10.734C33.6178 10.1017 33.6605 9.46797 33.7127 8.83517C33.7218 8.72447 33.7526 8.61535 33.7589 8.50477C33.7685 8.33461 33.8773 8.2823 34.02 8.25337C34.8389 8.08731 35.6573 7.919 36.4761 7.75268C36.5726 7.73326 36.6706 7.7211 36.8047 7.69944Z" fill="white"/>
<path d="M28.2071 4.68431C28.1095 4.61364 27.9745 4.55524 27.9792 4.51204C27.994 4.37822 28.0256 4.20317 28.1182 4.13197C28.2333 4.04359 28.2721 3.96353 28.2779 3.8338C28.2828 3.72309 28.3242 3.61278 28.3211 3.503C28.3139 3.2479 28.4376 3.12861 28.6768 3.06585C28.9971 2.98183 29.3093 2.86624 29.6744 2.74826C29.6373 3.11804 29.605 3.44223 29.5706 3.78413C29.7208 3.76312 29.8381 3.74661 29.9539 3.73049C30.0321 4.05825 30.0004 4.14848 29.7309 4.24347C29.575 4.29843 29.5267 4.40649 29.512 4.54507C29.4776 4.86636 29.4492 5.18831 29.4193 5.51012C29.3987 5.73193 29.3722 5.95361 29.3621 6.17608C29.3508 6.42788 29.467 6.4983 29.6924 6.38481C29.8937 6.28336 29.9751 6.12165 29.9613 5.89311C29.9249 5.29703 30.0694 4.74046 30.3791 4.23197C30.7629 3.60208 31.3543 3.29268 32.068 3.22954C32.423 3.19809 32.7206 3.35451 32.8853 3.69812C32.933 3.79747 32.9781 3.898 33.0227 3.99444C33.4307 3.93235 33.4726 3.88704 33.5088 3.53246C33.5269 3.3553 33.5323 3.16758 33.5975 3.00667C33.6801 2.80309 33.9154 2.89913 34.0763 2.83929C34.2725 2.76636 34.4864 2.73439 34.6955 2.70757C34.7588 2.69938 34.8318 2.76689 34.9231 2.81062C35.079 2.73162 35.2712 2.62118 35.4736 2.53491C35.7307 2.42526 35.9582 2.50915 36.1442 2.69819C36.2787 2.83466 36.2968 3.11368 36.2036 3.29757C36.1089 3.48464 35.7545 3.72085 35.5718 3.66655C35.4259 3.62322 35.3053 3.49521 35.1503 3.38886C34.8592 3.47512 34.8047 3.54448 34.7756 3.87132C34.714 4.55947 34.6471 5.2471 34.5851 5.93525C34.5746 6.05098 34.5664 6.17146 34.4314 6.20171C34.055 6.28573 33.6765 6.35958 33.2538 6.44677C33.3134 5.75994 33.3686 5.12252 33.424 4.48285C33.0694 4.52499 33.058 4.53847 33.0429 4.88816C33.0105 5.64316 32.7001 6.25469 32.0446 6.64031C31.4757 6.97481 30.8731 7.05209 30.206 6.64837C30.1737 6.69897 30.137 6.78246 30.0775 6.84389C29.8575 7.07112 29.605 7.24603 29.2961 7.34102C28.7403 7.51183 28.4832 7.44512 28.0998 6.98829C28.0062 7.08235 27.915 7.17575 27.8218 7.2669C27.3086 7.76825 26.6986 8.01768 25.9765 7.98029C25.5628 7.95889 25.226 7.69203 25.1396 7.28712C25.0793 7.00467 25.0147 6.71812 25.1069 6.42696C25.1191 6.38865 25.1086 6.3432 25.1086 6.2996C24.849 6.2753 24.864 6.44439 24.8609 6.6024C24.8521 7.07323 24.715 7.5043 24.4345 7.88213C23.9668 8.51229 23.3339 8.75986 22.5619 8.65576C22.0482 8.5864 21.8357 8.2383 21.793 7.84831C21.6951 6.95433 21.8922 6.13288 22.6021 5.51171C23.0229 5.14352 23.5204 4.96901 24.0859 5.02502C24.4083 5.05699 24.6119 5.24379 24.73 5.53602C24.7629 5.61753 24.7961 5.69891 24.8284 5.7787C25.1238 5.73127 25.3204 5.59388 25.463 5.33204C25.7759 4.75737 26.2853 4.42763 26.9228 4.32102C27.1335 4.28574 27.3676 4.31335 27.5768 4.36712C27.796 4.42353 27.9466 4.71787 27.9347 4.95606C27.9226 5.19967 27.7675 5.39479 27.5252 5.47115C27.247 5.55887 27.1238 5.45926 27.1266 5.17113C27.1274 5.08368 27.0727 4.99569 27.0435 4.90797C26.9517 4.95818 26.8197 4.98578 26.7759 5.0632C26.6671 5.25515 26.5715 5.46349 26.5197 5.67711C26.4254 6.0659 26.3432 6.46249 26.4628 6.8645C26.5256 7.07601 26.583 7.12119 26.7965 7.09873C27.3529 7.04034 27.7325 6.71482 28.0269 6.2675C28.0504 6.23183 28.0642 6.1852 28.0687 6.14226C28.1164 5.68808 28.1617 5.23362 28.2065 4.77904C28.2108 4.7357 28.2071 4.69184 28.2071 4.68431ZM31.2882 5.39876C31.2979 5.5018 31.2962 5.62625 31.3237 5.74395C31.3971 6.05851 31.6238 6.12628 31.8475 5.88663C31.9569 5.76932 32.026 5.60788 32.0894 5.45636C32.1403 5.33482 32.1479 5.19597 32.1878 5.06888C32.235 4.91881 32.2334 4.79661 32.1027 4.67863C31.9429 4.53437 31.936 4.34902 32.0254 4.15813C32.049 4.10792 32.0857 4.05812 32.0891 4.0062C32.0924 3.95798 32.0708 3.89682 32.0381 3.86194C32.0188 3.84133 31.9409 3.84318 31.9167 3.86511C31.8032 3.96802 31.6648 4.06406 31.5983 4.19459C31.4105 4.56357 31.3134 4.96319 31.2882 5.39876ZM23.1215 7.16439C23.1215 7.26479 23.0998 7.37166 23.1271 7.46401C23.1594 7.57247 23.2131 7.72307 23.2961 7.75491C23.3857 7.78939 23.5273 7.72255 23.6319 7.67116C23.6943 7.64051 23.751 7.56098 23.773 7.49175C23.8602 7.21697 23.936 6.93848 24.0074 6.65907C24.0187 6.61468 24.0022 6.53859 23.9699 6.51177C23.7245 6.30872 23.7363 6.08004 23.8761 5.82534C23.8971 5.78702 23.8958 5.70591 23.8697 5.68028C23.8386 5.64963 23.7488 5.63114 23.7207 5.65333C23.6104 5.74026 23.4836 5.82837 23.4186 5.94661C23.2118 6.32272 23.1056 6.73081 23.1215 7.16439Z" fill="white"/>
<path d="M18.1636 5.44301C17.5509 5.93327 17.4448 6.43515 17.7521 7.26004C17.4433 7.32807 17.1291 7.40073 16.8633 7.2101C16.6066 7.02607 16.5708 6.72196 16.6368 6.42036C16.7078 6.09616 16.8691 5.81292 17.1015 5.58199C17.9491 4.73954 18.9671 4.27769 20.1701 4.36937C20.9803 4.43106 21.4386 4.85434 21.6337 5.70287C21.8699 6.72962 21.6573 7.70313 21.0938 8.58125C20.7628 9.09674 20.2907 9.45159 19.6342 9.44868C19.4805 9.44802 19.327 9.40614 19.1651 9.38209C18.7849 9.7191 18.2754 9.65305 17.7839 9.80233C17.7122 9.28698 17.8786 8.82499 17.8937 8.35442C17.9089 7.87712 17.9776 7.40166 18.0229 6.92527C18.0678 6.45061 18.1129 5.9762 18.1636 5.44301ZM19.4478 4.97628C19.4687 5.03863 19.4901 5.07034 19.4875 5.09993C19.4382 5.65452 19.3868 6.20898 19.3345 6.76331C19.2811 7.329 19.221 7.89402 19.1745 8.46024C19.1528 8.72499 19.2407 8.78682 19.4921 8.70187C19.7862 8.60239 19.9665 8.38098 20.0999 8.11293C20.2562 7.79891 20.3022 7.45648 20.3744 7.11828C20.49 6.5773 20.418 6.05072 20.2913 5.52862C20.1978 5.14287 19.8925 4.8949 19.5173 4.90983C19.1298 4.92515 18.7671 5.05356 18.4451 5.29149C18.778 5.18699 19.1108 5.08223 19.4478 4.97628Z" fill="white"/>
<path d="M32.1037 9.84597C32.121 10.2679 31.9432 10.6183 31.6383 10.8787C31.0861 11.3502 30.4655 11.5697 29.7222 11.3453C29.0504 11.1425 28.5357 10.3909 28.8894 9.59496C29.3328 8.59675 30.8011 8.13238 31.6849 8.90522C31.9605 9.14632 32.1065 9.4573 32.1037 9.84597Z" fill="white"/>
</svg>
