<svg width="17" height="17" viewBox="0 0 17 17" fill="none" xmlns="http://www.w3.org/2000/svg">
<path d="M13.1289 1L16.0014 3.87245L13.1289 6.74489" stroke="white" stroke-width="1.5" stroke-linecap="round" stroke-linejoin="round"/>
<path d="M10.2559 3.87244H16.0008" stroke="white" stroke-width="1.5" stroke-linecap="round" stroke-linejoin="round"/>
<path d="M15.2819 12.4323V14.5867C15.2827 14.7867 15.2417 14.9846 15.1616 15.1679C15.0815 15.3511 14.964 15.5156 14.8166 15.6508C14.6692 15.786 14.4952 15.889 14.3058 15.953C14.1163 16.0171 13.9156 16.0409 13.7164 16.0229C11.5067 15.7828 9.38404 15.0277 7.5191 13.8183C5.78402 12.7158 4.31297 11.2447 3.21043 9.50963C1.99681 7.63622 1.24154 5.50328 1.00583 3.2836C0.987883 3.08502 1.01148 2.88488 1.07513 2.69592C1.13877 2.50696 1.24106 2.33332 1.37549 2.18605C1.50992 2.03879 1.67353 1.92113 1.85592 1.84057C2.03831 1.76001 2.23548 1.71831 2.43487 1.71812H4.58921C4.93771 1.71469 5.27557 1.8381 5.53981 2.06535C5.80406 2.2926 5.97665 2.60818 6.02543 2.95327C6.11636 3.6427 6.28499 4.31964 6.52811 4.97116C6.62472 5.22819 6.64564 5.50753 6.58836 5.77608C6.53109 6.04463 6.39803 6.29113 6.20496 6.48638L5.29296 7.39838C6.31523 9.19621 7.8038 10.6848 9.60163 11.7071L10.5136 10.795C10.7089 10.602 10.9554 10.4689 11.2239 10.4116C11.4925 10.3544 11.7718 10.3753 12.0288 10.4719C12.6804 10.715 13.3573 10.8836 14.0467 10.9746C14.3956 11.0238 14.7142 11.1995 14.9419 11.4683C15.1696 11.7371 15.2906 12.0802 15.2819 12.4323Z" stroke="white" stroke-width="1.5" stroke-linecap="round" stroke-linejoin="round"/>
</svg>
