<svg width="48" height="48" viewBox="0 0 48 48" fill="none" xmlns="http://www.w3.org/2000/svg">
<circle cx="24" cy="24" r="24" fill="#434852"/>
<path d="M21 28L29 23.5L21 19V28Z" fill="#434852"/>
<path fill-rule="evenodd" clip-rule="evenodd" d="M11.7117 22.6258C18.4212 19.8123 22.8878 17.9427 25.1307 17.0357C31.5143 14.4628 32.8562 14.0185 33.7189 14C33.9106 14 34.3323 14.037 34.6199 14.2591C34.8499 14.4442 34.9074 14.6849 34.9458 14.87C34.9841 15.0551 35.0225 15.4438 34.9841 15.74C34.6391 19.2569 33.1438 27.7902 32.377 31.7144C32.0511 33.3804 31.4185 33.9357 30.8051 33.9912C29.4632 34.1023 28.4471 33.1397 27.1628 32.3253C25.1307 31.0481 23.9997 30.2521 22.0252 28.9934C19.744 27.5496 21.22 26.7537 22.5236 25.4579C22.8687 25.1247 28.7539 19.9418 28.8689 19.4791C28.8881 19.4235 28.8881 19.2014 28.7539 19.0904C28.6197 18.9793 28.428 19.0163 28.2746 19.0533C28.0637 19.0904 24.8432 21.1635 18.5746 25.2543C17.6544 25.8652 16.8301 26.1613 16.0825 26.1428C15.2582 26.1243 13.6862 25.6986 12.4977 25.3283C11.0599 24.8841 9.90974 24.6435 10.0056 23.866C10.0631 23.4588 10.6382 23.0516 11.7117 22.6258Z" fill="#D4D4D4"/>
</svg>
