<svg width="48" height="48" viewBox="0 0 48 48" fill="none" xmlns="http://www.w3.org/2000/svg">
<circle cx="24" cy="24" r="24" fill="#434852"/>
<path d="M36.6272 30.5527C36.5951 30.484 36.5651 30.4271 36.5372 30.3815C36.0765 29.5596 35.1962 28.5508 33.8966 27.3548L33.8692 27.3274L33.8554 27.3139L33.8415 27.3002H33.8276C33.2378 26.7432 32.8643 26.3688 32.7079 26.1771C32.4217 25.8118 32.3576 25.4422 32.514 25.0676C32.6245 24.7846 33.0396 24.187 33.7583 23.2738C34.1363 22.7899 34.4357 22.4021 34.6568 22.1099C36.2515 20.0099 36.9428 18.668 36.7307 18.0837L36.6483 17.9471C36.593 17.8649 36.4501 17.7897 36.22 17.7211C35.9893 17.6527 35.6944 17.6413 35.3349 17.6869L31.3534 17.7142C31.2889 17.6916 31.1968 17.6937 31.0768 17.7211C30.9569 17.7485 30.897 17.7623 30.897 17.7623L30.8277 17.7966L30.7727 17.8378C30.7266 17.865 30.6759 17.913 30.6205 17.9815C30.5655 18.0497 30.5194 18.1298 30.4826 18.2211C30.0491 19.3258 29.5563 20.3529 29.0032 21.3023C28.6621 21.8684 28.3489 22.3591 28.0629 22.7745C27.7772 23.1898 27.5376 23.4958 27.3442 23.6919C27.1505 23.8882 26.9757 24.0455 26.8187 24.1643C26.662 24.2832 26.5423 24.3334 26.4594 24.315C26.3764 24.2967 26.2982 24.2784 26.2242 24.2602C26.0952 24.178 25.9915 24.0662 25.9133 23.9247C25.8347 23.7832 25.7819 23.6051 25.7542 23.3905C25.7267 23.1758 25.7104 22.9912 25.7058 22.8359C25.7015 22.6808 25.7035 22.4615 25.7128 22.1785C25.7224 21.8954 25.7267 21.7038 25.7267 21.6033C25.7267 21.2564 25.7335 20.8798 25.7472 20.4735C25.7612 20.0672 25.7725 19.7453 25.7819 19.5082C25.7913 19.2708 25.7957 19.0197 25.7957 18.7549C25.7957 18.4901 25.7794 18.2825 25.7472 18.1318C25.7155 17.9813 25.6667 17.8352 25.6025 17.6935C25.5378 17.552 25.4432 17.4426 25.319 17.3649C25.1946 17.2872 25.04 17.2257 24.8559 17.1799C24.3674 17.0704 23.7453 17.0112 22.9894 17.0019C21.2751 16.9837 20.1737 17.0934 19.6852 17.3308C19.4916 17.431 19.3165 17.5681 19.1599 17.7414C18.9939 17.9424 18.9708 18.052 19.0906 18.07C19.6437 18.1521 20.0352 18.3484 20.2657 18.6588L20.3487 18.8233C20.4133 18.942 20.4778 19.1521 20.5424 19.4533C20.6068 19.7545 20.6484 20.0877 20.6667 20.4527C20.7127 21.1193 20.7127 21.6899 20.6667 22.1646C20.6206 22.6394 20.577 23.0091 20.5354 23.2739C20.4938 23.5387 20.4316 23.7532 20.3487 23.9175C20.2657 24.0818 20.2104 24.1823 20.1827 24.2187C20.1551 24.2552 20.132 24.2781 20.1137 24.2872C19.9939 24.3326 19.8693 24.3558 19.7404 24.3558C19.6112 24.3558 19.4546 24.2918 19.2703 24.1639C19.0861 24.0361 18.8949 23.8604 18.6967 23.6367C18.4985 23.4129 18.2749 23.1003 18.026 22.6986C17.7773 22.2969 17.5192 21.8222 17.2519 21.2744L17.0307 20.8772C16.8925 20.6216 16.7036 20.2495 16.464 19.7612C16.2242 19.2726 16.0122 18.8001 15.828 18.3436C15.7543 18.1519 15.6437 18.0059 15.4962 17.9055L15.427 17.8643C15.381 17.8278 15.3072 17.7891 15.2059 17.7479C15.1045 17.7067 14.9986 17.6771 14.8879 17.6589L11.0998 17.6862C10.7127 17.6862 10.4501 17.773 10.3118 17.9465L10.2564 18.0286C10.2288 18.0743 10.2148 18.1473 10.2148 18.2478C10.2148 18.3482 10.2425 18.4715 10.2978 18.6175C10.8508 19.9049 11.4522 21.1465 12.1019 22.3424C12.7517 23.5384 13.3163 24.5018 13.7954 25.2317C14.2747 25.9622 14.7632 26.6516 15.2609 27.2996C15.7586 27.9479 16.0881 28.3633 16.2493 28.5458C16.4107 28.7287 16.5375 28.8654 16.6296 28.9567L16.9753 29.2853C17.1965 29.5044 17.5213 29.7669 17.9499 30.0727C18.3786 30.3787 18.8532 30.6799 19.374 30.9768C19.8948 31.2733 20.5007 31.5152 21.192 31.7024C21.8833 31.8897 22.5561 31.9648 23.2105 31.9286H24.8004C25.1229 31.901 25.3672 31.8005 25.5332 31.6272L25.5882 31.5586C25.6252 31.5041 25.6598 31.4194 25.6918 31.3055C25.7241 31.1914 25.7402 31.0657 25.7402 30.9289C25.7308 30.5364 25.7609 30.1827 25.8299 29.8677C25.8988 29.5529 25.9774 29.3155 26.0652 29.1556C26.153 28.9959 26.2521 28.8611 26.3623 28.7519C26.4728 28.6423 26.5516 28.576 26.5977 28.5532C26.6437 28.5302 26.6803 28.5146 26.708 28.5053C26.9292 28.4323 27.1895 28.503 27.4893 28.7177C27.7889 28.9322 28.0699 29.1972 28.3327 29.512C28.5954 29.8271 28.9111 30.1807 29.2797 30.5732C29.6485 30.9658 29.971 31.2577 30.2474 31.4497L30.5238 31.6141C30.7084 31.7237 30.948 31.8241 31.243 31.9154C31.5375 32.0067 31.7955 32.0295 32.017 31.9839L35.5561 31.9292C35.9061 31.9292 36.1785 31.8718 36.3717 31.7579C36.5653 31.6437 36.6803 31.518 36.7174 31.3813C36.7544 31.2444 36.7564 31.0891 36.7244 30.9154C36.6917 30.7422 36.6594 30.6211 36.6272 30.5527Z" fill="#D5D5D5"/>
</svg>
