<svg width="48" height="48" viewBox="0 0 48 48" fill="none" xmlns="http://www.w3.org/2000/svg">
<circle cx="24" cy="24" r="24" fill="#434852"/>
<path d="M12.6601 23.3607C12.6593 25.5486 13.231 27.6847 14.3177 29.5673L12.5558 36L19.1392 34.2738C20.9532 35.263 22.9953 35.7843 25.0737 35.7852H25.079C31.923 35.7852 37.4949 30.2151 37.4977 23.3704C37.4989 20.0529 36.2081 16.9337 33.8636 14.5872C31.5188 12.2407 28.401 10.9477 25.079 10.9463C18.2335 10.9463 12.6628 16.5152 12.6599 23.3604L12.6601 23.3607ZM16.5804 29.2429L16.3346 28.8526C15.3013 27.2096 14.7558 25.3108 14.7566 23.3613C14.7589 17.672 19.3891 13.0431 25.0826 13.0431C27.8398 13.0442 30.4311 14.1191 32.3802 16.0693C34.3292 18.0196 35.4016 20.6123 35.4008 23.3694C35.3983 29.059 30.768 33.6883 25.0787 33.6883H25.0747C23.2222 33.6872 21.4055 33.1899 19.8211 32.2498L19.444 32.0262L15.5371 33.0505L16.5804 29.2429ZM25.079 35.7852H25.0791H25.079C25.0789 35.7852 25.0787 35.7852 25.079 35.7852Z" fill="#D4D4D4"/>
<path fill-rule="evenodd" clip-rule="evenodd" d="M21.9754 18.1701C21.7429 17.6534 21.4983 17.643 21.2772 17.6339C21.0962 17.6262 20.8892 17.6267 20.6825 17.6267C20.4755 17.6267 20.1393 17.7044 19.8551 18.0149C19.5706 18.3255 18.7689 19.0761 18.7689 20.6027C18.7689 22.1295 19.881 23.6048 20.0359 23.812C20.1911 24.0188 22.1826 27.252 25.3364 28.4957C27.9577 29.5293 28.4911 29.3238 29.06 29.272C29.629 29.2203 30.896 28.5216 31.1544 27.797C31.4131 27.0725 31.4131 26.4514 31.3355 26.3217C31.258 26.1924 31.051 26.1147 30.7407 25.9597C30.4303 25.8045 28.9048 25.0537 28.6204 24.9502C28.3359 24.8467 28.129 24.7951 27.9221 25.1057C27.7152 25.416 27.1209 26.1148 26.9398 26.3217C26.7589 26.5291 26.5778 26.555 26.2675 26.3998C25.9571 26.2441 24.9577 25.9167 23.7721 24.8597C22.8496 24.0373 22.2269 23.0216 22.0458 22.7109C21.8648 22.4006 22.0265 22.2325 22.182 22.0778C22.3215 21.9388 22.4925 21.7155 22.6477 21.5344C22.8025 21.3532 22.8541 21.2239 22.9576 21.0169C23.0611 20.8098 23.0093 20.6286 22.9318 20.4733C22.8541 20.3181 22.2511 18.7836 21.9752 18.1701" fill="#D4D4D4"/>
</svg>
