<svg width="48" height="48" viewBox="0 0 48 48" fill="none" xmlns="http://www.w3.org/2000/svg">
<circle cx="24" cy="24" r="24" fill="#434852"/>
<path d="M37.4424 17.9755C37.1315 16.8154 36.2205 15.901 35.0654 15.5886C32.9548 15.0087 24.5125 15.0087 24.5125 15.0087C24.5125 15.0087 16.0703 15.0087 13.9598 15.5665C12.8268 15.8787 11.8936 16.8156 11.5827 17.9755C11.0273 20.0944 11.0273 24.4888 11.0273 24.4888C11.0273 24.4888 11.0273 28.9053 11.5827 31.0021C11.8938 32.1619 12.8046 33.0766 13.96 33.3889C16.0926 33.9689 24.5127 33.9689 24.5127 33.9689C24.5127 33.9689 32.9548 33.9689 35.0654 33.4111C36.2207 33.0989 37.1315 32.1843 37.4426 31.0244C37.998 28.9053 37.998 24.5111 37.998 24.5111C37.998 24.5111 38.0202 20.0944 37.4424 17.9755Z" fill="#D4D4D4"/>
<path d="M21 29L29 24.5L21 20V29Z" fill="#434852"/>
</svg>
