<svg width="31" height="36" viewBox="0 0 31 36" fill="none" xmlns="http://www.w3.org/2000/svg">
<path fill-rule="evenodd" clip-rule="evenodd" d="M12.1736 19.6463L7.58496 16.997L0.000361919 30.1339L6.31253 29.7975L6.31243 29.7977L9.17729 35.4326L16.7619 22.2957L12.1734 19.6465L12.1736 19.6463Z" fill="url(#paint0_linear)"/>
<path fill-rule="evenodd" clip-rule="evenodd" d="M18.1135 19.6463L22.7021 16.9971L30.2867 30.134L23.9746 29.7976L21.1098 35.4325L13.5252 22.2956L18.1136 19.6465L18.1135 19.6463Z" fill="url(#paint1_linear)"/>
<circle cx="15.3785" cy="14.5689" r="14.5689" fill="url(#paint2_linear)"/>
<path d="M27.6005 14.5689C27.6005 7.81901 22.1287 2.34718 15.3788 2.34718C8.62899 2.34718 3.15716 7.81901 3.15716 14.5689C3.15716 21.3187 8.62899 26.7905 15.3788 26.7905C22.1287 26.7905 27.6005 21.3187 27.6005 14.5689Z" fill="white" stroke="url(#paint3_linear)" stroke-width="1.45689"/>
<path fill-rule="evenodd" clip-rule="evenodd" d="M14.6063 4.8848C12.314 5.09011 10.2892 5.99731 8.67029 7.54439C7.11478 9.03083 6.17359 10.7947 5.77044 12.9788C5.66862 13.5304 5.63131 15.0246 5.70354 15.659C5.95829 17.8963 6.99695 20.0067 8.60849 21.5613C10.1481 23.0466 12.1157 23.9737 14.2849 24.2361C14.7844 24.2966 15.9436 24.2966 16.4439 24.2362C18.0138 24.0468 19.51 23.4987 20.7576 22.656C21.4056 22.2184 21.6323 22.0355 22.1474 21.5352C23.3408 20.3759 24.1945 18.976 24.6759 17.3887C25.2594 15.4649 25.2275 13.4221 24.5838 11.4883C23.6234 8.60333 21.2784 6.2743 18.3957 5.34239C17.2112 4.9595 15.7468 4.78267 14.6063 4.8848ZM16.1461 5.20527C17.1935 5.29795 18.0151 5.49863 19.0013 5.90266C19.5134 6.11246 19.6976 6.21445 19.5644 6.21445C19.5369 6.21445 19.2906 6.42642 19.0169 6.68548C17.8741 7.7674 16.7178 8.36165 16.0848 8.19243C15.9671 8.16097 15.8046 8.08475 15.7236 8.02302C15.5314 7.87655 15.3031 7.40736 15.2374 7.02379C15.1929 6.76399 15.1713 6.71896 15.0912 6.71923C14.9331 6.71978 14.2471 6.8968 14.0127 6.9976C13.7991 7.08946 13.7787 7.11569 13.4338 7.74277C13.2371 8.1003 12.8046 8.82616 12.4726 9.35584C11.3388 11.1646 10.8206 12.1115 10.5921 12.7917C10.4741 13.143 10.4404 13.5695 10.5265 13.6226C10.5533 13.6392 11.079 13.4535 11.6947 13.2099C12.5573 12.8686 12.8395 12.7369 12.9246 12.6358C13.087 12.4429 13.2853 11.7689 13.62 10.273C13.9477 8.80819 14.1375 8.14671 14.2984 7.90796C14.4396 7.69866 14.5254 7.70691 14.5717 7.93419C14.7184 8.65433 15.156 9.50741 15.567 9.87456C15.9781 10.2418 16.4611 10.2802 17.1748 10.0025C17.4135 9.90964 17.708 9.77257 17.8294 9.69791C18.082 9.54258 18.1405 9.53135 18.1405 9.63825C18.1405 9.84471 17.268 10.7404 16.5345 11.2871C16.2947 11.4658 15.7269 11.8657 15.2726 12.1759C14.1512 12.9416 13.6175 13.355 13.0622 13.8882C12.2501 14.668 11.6918 15.4389 11.164 16.5091C10.6235 17.605 10.3557 18.5959 10.3077 19.6771C10.2374 21.2599 10.7647 22.499 11.8083 23.2036C12.1208 23.4146 11.9813 23.3794 11.3724 23.0934C10.4194 22.646 9.63425 22.1023 8.85338 21.349C7.76585 20.3 6.96864 19.0719 6.48896 17.7065C5.06174 13.6445 6.5793 9.10958 10.1564 6.74684C11.9523 5.56063 14.0527 5.02004 16.1461 5.20527ZM20.5309 6.71423C22.0895 7.74699 23.2716 9.15186 24.0026 10.8403C24.7729 12.6195 24.9742 14.5644 24.5859 16.4764C24.0097 19.3135 22.0695 21.7997 19.4612 23.0434C18.0908 23.6968 16.8741 23.9697 15.3415 23.9673C14.5725 23.9661 13.8654 23.891 13.2355 23.7435L12.8961 23.6641L13.5567 23.6611C14.4475 23.6572 14.9324 23.5311 15.8649 23.0607C18.0802 21.9434 20.1253 19.2355 20.726 16.6246C21.1279 14.8773 20.7137 13.109 19.8017 12.6787C19.4633 12.519 19.3393 12.4935 18.8976 12.493C18.0803 12.492 17.3823 12.8278 16.5283 13.633C15.336 14.7571 14.2261 16.8119 13.8721 18.5507C13.7871 18.9684 13.7765 19.1478 13.7921 19.9036C13.8124 20.8916 13.8837 21.2628 14.1209 21.6159C14.4429 22.0952 14.9853 22.1661 15.3473 21.7761C15.6159 21.4868 15.6289 21.3547 15.4122 21.1149C15.3092 21.0009 15.2167 20.8222 15.1484 20.6049C15.0527 20.3006 15.0432 20.1836 15.0433 19.3074C15.0434 18.253 15.0983 17.7952 15.3484 16.7622C15.6487 15.5223 16.158 14.4574 16.6731 13.9922C16.7801 13.8956 16.9808 13.7648 17.1191 13.7015C17.3408 13.6001 17.3913 13.5926 17.544 13.6384C17.8886 13.7415 18.2786 14.3559 18.4208 15.0195C18.5086 15.4295 18.4955 16.6944 18.3972 17.2896C17.9161 20.2056 16.5504 22.5563 15.093 22.9774C14.8992 23.0334 14.722 23.0495 14.4735 23.0336C13.5467 22.9742 12.9541 22.4131 12.682 21.3371C12.1712 19.3164 12.8061 16.6507 14.2579 14.7214C14.4097 14.5196 15.1861 13.6942 15.9831 12.887C17.5183 11.3324 17.9441 10.8243 18.7891 9.53873C19.7425 8.08824 20.0623 7.34219 20.01 6.69066C19.997 6.52965 20.0015 6.39789 20.02 6.39789C20.0384 6.39789 20.2683 6.54024 20.5309 6.71423Z" fill="url(#paint4_linear)"/>
<defs>
<linearGradient id="paint0_linear" x1="4.26484" y1="22.7476" x2="13.4419" y2="28.046" gradientUnits="userSpaceOnUse">
<stop stop-color="#6886AC"/>
<stop offset="1" stop-color="#7697C2"/>
</linearGradient>
<linearGradient id="paint1_linear" x1="26.0222" y1="22.7477" x2="16.8452" y2="28.046" gradientUnits="userSpaceOnUse">
<stop stop-color="#6886AC"/>
<stop offset="1" stop-color="#7697C2"/>
</linearGradient>
<linearGradient id="paint2_linear" x1="9.25983" y1="2.11432" x2="22.6725" y2="28.9396" gradientUnits="userSpaceOnUse">
<stop offset="0.0104167" stop-color="#FFE292"/>
<stop offset="0.833333" stop-color="#EC9842"/>
<stop offset="1" stop-color="#C9670D"/>
</linearGradient>
<linearGradient id="paint3_linear" x1="9.94005" y1="25.6396" x2="21.8624" y2="1.79491" gradientUnits="userSpaceOnUse">
<stop stop-color="#FFE292"/>
<stop offset="1" stop-color="#E98B34"/>
</linearGradient>
<linearGradient id="paint4_linear" x1="15.3786" y1="4.85629" x2="15.3786" y2="24.2815" gradientUnits="userSpaceOnUse">
<stop stop-color="#002033"/>
<stop offset="0.432292" stop-color="#315468"/>
<stop offset="1" stop-color="#011724"/>
</linearGradient>
</defs>
</svg>
