<svg width="31" height="36" viewBox="0 0 31 36" fill="none" xmlns="http://www.w3.org/2000/svg">
<path fill-rule="evenodd" clip-rule="evenodd" d="M12.5544 19.6463L7.96582 16.997L0.381221 30.1339L6.6935 29.7975L6.69336 29.7978L9.55822 35.4327L17.1428 22.2958L12.5543 19.6466L12.5544 19.6463Z" fill="url(#paint0_linear)"/>
<path fill-rule="evenodd" clip-rule="evenodd" d="M18.495 19.6463L13.9064 22.2956L21.491 35.4325L24.3558 29.7976L18.495 19.6463ZM18.4958 19.6469L23.0844 16.9976L30.669 30.1345L24.3566 29.7981L18.4958 19.6469Z" fill="url(#paint1_linear)"/>
<circle cx="15.7583" cy="14.5689" r="14.5689" fill="url(#paint2_linear)"/>
<path d="M27.9794 14.5689C27.9794 7.81901 22.5076 2.34718 15.7577 2.34718C9.0079 2.34718 3.53606 7.81901 3.53606 14.5689C3.53606 21.3187 9.0079 26.7905 15.7577 26.7905C22.5076 26.7905 27.9794 21.3187 27.9794 14.5689Z" fill="white" stroke="url(#paint3_linear)" stroke-width="1.45689"/>
<path fill-rule="evenodd" clip-rule="evenodd" d="M9.28223 14.9736V21.8533H11.1953H13.1084V20.936V20.0187H12.0783H11.0482V14.8207V9.62265H12.1557H13.2634L13.9216 10.3066C14.2838 10.6827 14.58 11.0804 14.58 11.1902C14.58 11.2999 14.7125 11.4889 14.8743 11.6101C15.0362 11.7314 15.1686 11.9254 15.1686 12.0413C15.1686 12.157 15.3673 12.4447 15.6101 12.6803C15.8529 12.9159 16.0516 13.2036 16.0516 13.3194C16.0516 13.4353 16.1841 13.6293 16.3459 13.7505C16.5078 13.8717 16.6403 14.0657 16.6403 14.1816C16.6403 14.2974 16.8389 14.5851 17.0817 14.8207C17.3245 15.0563 17.5232 15.3278 17.5232 15.4241C17.5232 15.6814 18.209 16.3495 18.4731 16.3495C18.6559 16.3495 18.7005 16.146 18.7005 15.3131C18.7005 14.4521 18.6508 14.2394 18.4062 14.0563C18.2443 13.935 18.1119 13.7286 18.1119 13.5976C18.1119 13.4666 17.9794 13.2602 17.8175 13.139C17.6557 13.0177 17.5232 12.8113 17.5232 12.6803C17.5232 12.5493 17.3908 12.3429 17.2289 12.2217C17.067 12.1004 16.9346 11.9064 16.9346 11.7905C16.9346 11.6748 16.7359 11.3871 16.4931 11.1515C16.2503 10.9159 16.0516 10.6282 16.0516 10.5124C16.0516 10.3965 15.9192 10.2025 15.7573 10.0813C15.5954 9.96006 15.463 9.75367 15.463 9.62265C15.463 9.49162 15.3305 9.28523 15.1686 9.164C15.0068 9.04276 14.8743 8.82123 14.8743 8.67156C14.8743 8.50155 14.7641 8.39958 14.58 8.39958C14.4181 8.39958 14.2857 8.33078 14.2857 8.24669C14.2857 8.15084 13.3537 8.09381 11.784 8.09381H9.28223V14.9736ZM18.4062 9.01111V9.92841H19.4363H20.4664V14.9736V20.0187H19.2089C18.0699 20.0187 17.9173 19.9834 17.5902 19.6434C17.3915 19.437 17.2289 19.1771 17.2289 19.0656C17.2289 18.9543 17.0965 18.764 16.9346 18.6428C16.7727 18.5215 16.6403 18.3275 16.6403 18.2116C16.6403 18.0959 16.4416 17.8082 16.1988 17.5726C15.956 17.337 15.7573 17.0493 15.7573 16.9335C15.7573 16.8176 15.6248 16.6236 15.463 16.5024C15.3011 16.3812 15.1686 16.1872 15.1686 16.0713C15.1686 15.9555 14.97 15.6678 14.7272 15.4322C14.4844 15.1966 14.2857 14.9089 14.2857 14.7932C14.2857 14.6773 14.1532 14.4833 13.9914 14.362C13.8295 14.2408 13.697 14.0488 13.697 13.9352C13.697 13.6553 13.329 13.2918 13.0453 13.2918C12.8572 13.2918 12.8141 13.4911 12.8141 14.362C12.8141 14.9736 12.8772 15.4322 12.9612 15.4322C13.0422 15.4322 13.1084 15.5547 13.1084 15.7042C13.1084 15.8539 13.2408 16.0754 13.4027 16.1966C13.5646 16.3179 13.697 16.5243 13.697 16.6553C13.697 16.7863 13.8295 16.9927 13.9914 17.1139C14.1532 17.2352 14.2857 17.4416 14.2857 17.5726C14.2857 17.7036 14.4181 17.91 14.58 18.0312C14.7419 18.1525 14.8743 18.3465 14.8743 18.4624C14.8743 18.5781 15.073 18.8658 15.3158 19.1014C15.5586 19.337 15.7573 19.6247 15.7573 19.7405C15.7573 19.8564 15.8897 20.0504 16.0516 20.1716C16.2135 20.2928 16.3459 20.4832 16.3459 20.5945C16.3459 20.8735 17.0177 21.5476 17.2959 21.5476C17.4209 21.5476 17.5232 21.6164 17.5232 21.7004C17.5232 21.796 18.4062 21.8533 19.8778 21.8533H22.2324V14.9736V8.09381H20.3193H18.4062V9.01111Z" fill="#FC112B"/>
<defs>
<linearGradient id="paint0_linear" x1="4.64569" y1="22.7476" x2="13.8229" y2="28.0461" gradientUnits="userSpaceOnUse">
<stop stop-color="#6886AC"/>
<stop offset="1" stop-color="#7697C2"/>
</linearGradient>
<linearGradient id="paint1_linear" x1="26.4042" y1="22.7477" x2="17.2266" y2="28.0464" gradientUnits="userSpaceOnUse">
<stop stop-color="#6886AC"/>
<stop offset="1" stop-color="#7697C2"/>
</linearGradient>
<linearGradient id="paint2_linear" x1="9.63971" y1="2.11432" x2="23.0523" y2="28.9396" gradientUnits="userSpaceOnUse">
<stop offset="0.0104167" stop-color="#FFE292"/>
<stop offset="0.833333" stop-color="#EC9842"/>
<stop offset="1" stop-color="#C9670D"/>
</linearGradient>
<linearGradient id="paint3_linear" x1="10.319" y1="25.6396" x2="22.2413" y2="1.79491" gradientUnits="userSpaceOnUse">
<stop stop-color="#FFE292"/>
<stop offset="1" stop-color="#E98B34"/>
</linearGradient>
</defs>
</svg>
