<svg width="34" height="21" viewBox="0 0 34 21" fill="none" xmlns="http://www.w3.org/2000/svg">
<path d="M11.2136 15.2102C11.016 14.6923 10.9385 14.1955 10.9654 13.6864C11.0178 12.6981 11.2539 11.7601 11.7966 10.9212C12.3981 9.99131 13.2509 9.40655 14.33 9.16597C14.6356 9.09782 14.9542 9.0506 15.2658 9.05573C15.6879 9.06278 16.0592 9.22035 16.2864 9.61155C16.4555 9.90286 16.5019 10.2217 16.4714 10.5504C16.3758 11.5814 15.7509 12.2701 14.9634 12.8463C14.5748 13.1306 14.1432 13.3383 13.6854 13.4847C13.5589 13.5252 13.4923 13.5824 13.5133 13.7108C13.5452 13.9051 13.5648 14.1061 13.6324 14.2885C13.7013 14.4744 13.8495 14.575 14.0729 14.5817C14.512 14.5949 14.9072 14.4619 15.2935 14.2779C15.8995 13.9895 16.3281 13.5049 16.7222 12.9832C16.8614 12.7988 16.843 12.5715 16.8656 12.3605C16.9444 11.6262 17.0094 10.8904 17.0791 10.1551C17.119 9.73343 17.166 9.31233 17.1926 8.88983C17.2021 8.73888 17.2462 8.65802 17.398 8.62746C18.1046 8.48538 18.8099 8.33754 19.516 8.19353C19.5581 8.18499 19.6035 8.19247 19.6811 8.19247C19.6667 8.38091 19.656 8.55621 19.6394 8.73098C19.6076 9.06267 19.5727 9.39405 19.5386 9.72553C19.4485 10.6035 19.3556 11.4812 19.2693 12.3595C19.2465 12.5927 19.2355 12.8278 19.2331 13.062C19.2305 13.3122 19.353 13.3901 19.6036 13.3269C20.068 13.2097 20.3581 12.8837 20.5944 12.4994C20.8992 12.0036 21.1106 11.4674 21.2161 10.8951C21.296 10.4616 21.356 10.0242 21.4179 9.58762C21.4328 9.48303 21.4202 9.3745 21.4202 9.24385C21.3248 9.25378 21.252 9.24652 21.191 9.27002C20.6901 9.46263 20.1569 8.84753 20.3097 8.31382C20.3958 8.01321 20.6033 7.82317 20.8816 7.70652C21.1498 7.59424 21.4273 7.51893 21.7219 7.58185C22.1918 7.68216 22.4116 8.02048 22.5054 8.45141C22.7051 9.36798 22.6275 10.2785 22.425 11.1864C22.2423 12.0052 21.9419 12.7689 21.4432 13.4498C20.7816 14.3532 19.9016 14.8895 18.7952 15.0736C18.4179 15.1363 18.0572 15.1116 17.7012 14.996C17.3694 14.8882 17.1314 14.6611 16.9698 14.3533C16.941 14.2985 16.9128 14.2435 16.8711 14.1631C16.775 14.2679 16.6877 14.3541 16.6106 14.4487C16.1759 14.9833 15.6188 15.354 15.0285 15.6983C14.1408 16.2162 13.1596 16.4253 12.1778 16.6395C11.6414 16.7565 11.0999 16.8546 10.5569 16.9351C10.1208 16.9997 9.67965 17.0471 9.23942 17.0601C8.9402 17.069 8.74898 17.1628 8.57303 17.4177C8.17949 17.9882 7.75688 18.5406 7.31911 19.0785C6.7979 19.7189 6.14819 20.1983 5.37733 20.5082C2.65508 21.6428 -0.40378 20.7542 0.0439279 17.9797C0.429036 16.3777 1.44196 15.3473 2.97128 14.8089C3.9308 14.4711 4.92716 14.4081 5.93582 14.5023C6.00771 14.509 6.08003 14.5119 6.15214 14.5142C6.46696 14.5249 6.48522 14.5116 6.50712 14.192C6.51695 14.0481 6.51343 13.903 6.50862 13.7586C6.4958 13.3801 6.47892 13.0017 6.46386 12.6232C6.42583 11.6677 6.39239 10.712 6.34774 9.75683C6.33182 9.41509 6.29411 9.074 6.25683 8.73365C6.23215 8.50835 6.22468 8.50739 5.98688 8.50568C5.61662 8.50301 5.24433 8.52673 4.87632 8.49724C4.03442 8.42994 3.33214 8.10519 2.96616 7.29053C2.71426 6.72991 2.77836 6.16427 3.04425 5.61817C3.0638 5.578 3.09243 5.54179 3.12009 5.50622C3.31494 5.25528 3.54505 5.20379 3.80058 5.38636C4.03474 5.55365 4.24593 5.75288 4.47091 5.93352C4.78808 6.1882 5.13238 6.36873 5.55883 6.33711C5.88315 6.31308 5.97417 6.24738 6.01978 5.93021C6.10193 5.35955 6.15898 4.78493 6.25341 4.21651C6.44004 3.09344 6.74214 2.01194 7.5146 1.12731C8.07052 0.490625 8.7634 0.0794508 9.60989 0.00777047C10.325 -0.0526931 10.9268 0.241719 11.3451 0.820503C12.1354 1.91419 12.2018 3.08415 11.6216 4.2947C11.3577 4.84539 10.9462 5.29406 10.577 5.77115C10.2404 6.20614 9.88625 6.62768 9.55669 7.0678C9.36226 7.32739 9.18921 7.61272 9.16421 7.94527C9.14616 8.1852 9.17137 8.42994 9.1938 8.67105C9.25736 9.3526 9.32071 10.0344 9.40072 10.7141C9.46514 11.2613 9.52528 11.8075 9.49516 12.3591C9.46813 12.854 9.4395 13.3489 9.40318 13.8431C9.37476 14.2293 9.33385 14.6146 9.29774 15.0002C9.28898 15.0938 9.31473 15.1587 9.41942 15.1737C9.47283 15.1812 9.52485 15.2084 9.57763 15.2087C10.1088 15.2112 10.6399 15.2102 11.2136 15.2102ZM6.13099 16.7739C5.53383 16.6489 4.94372 16.5817 4.35148 16.6584C4.07085 16.6948 3.79801 16.8033 3.52678 16.8946C3.35682 16.9519 3.19765 17.0401 3.03186 17.1105C2.63051 17.281 2.35404 17.5858 2.16112 17.9616C1.89864 18.4727 2.19274 19.0246 2.7555 19.1347C3.33289 19.2475 3.873 19.1293 4.37113 18.8535C5.1703 18.4111 5.71875 17.7301 6.10343 16.911C6.12127 16.8733 6.12084 16.8272 6.13099 16.7739ZM8.8386 4.69551C8.9825 4.50611 9.1108 4.34566 9.23001 4.1788C9.55647 3.7219 9.84715 3.24439 9.99831 2.69765C10.087 2.37696 10.0859 2.05627 9.93058 1.74989C9.82792 1.54745 9.67901 1.50312 9.48939 1.6343C9.41023 1.68911 9.33438 1.76399 9.28727 1.84689C9.19882 2.00285 9.10439 2.16448 9.0623 2.33594C8.96167 2.74583 8.8699 3.1601 8.81297 3.57779C8.76479 3.93149 8.69994 4.29342 8.8386 4.69551ZM13.5332 12.508C13.5547 12.5177 13.5629 12.5251 13.5697 12.5239C13.5959 12.5195 13.6236 12.5166 13.6472 12.5056C14.1719 12.2592 14.5569 11.8665 14.8139 11.3531C14.9838 11.0137 15.027 10.648 14.9418 10.2759C14.8983 10.0863 14.8251 10.0565 14.6494 10.132C14.4611 10.213 14.3264 10.3557 14.2141 10.523C13.8094 11.1257 13.6491 11.8102 13.5332 12.508Z" fill="#313640"/>
<path d="M29.6758 6.11042C29.6758 6.23028 29.6758 6.30955 29.6758 6.41915C29.741 6.37727 29.7914 6.3511 29.8348 6.31606C30.3241 5.9207 30.9003 5.7189 31.5113 5.7063C32.4137 5.68782 32.9854 6.10401 33.0804 7.09034C33.1395 7.70437 33.044 8.31403 32.954 8.92155C32.9025 9.26916 32.8307 9.61923 32.8327 9.9678C32.8354 10.4717 32.9345 10.6084 33.4471 10.4608C33.6309 10.4079 33.7957 10.289 33.9664 10.2016C34.1284 10.9619 33.6914 11.7505 32.9537 12.0764C32.6035 12.2311 32.2384 12.3116 31.8496 12.2982C31.0526 12.2708 30.5943 11.6718 30.5402 11.0292C30.4963 10.5085 30.5271 9.98554 30.6085 9.46412C30.6806 9.00231 30.7083 8.53302 30.742 8.06609C30.7507 7.94388 30.7209 7.81451 30.6876 7.69433C30.6094 7.41188 30.4521 7.34362 30.1773 7.45964C29.93 7.564 29.7827 7.76249 29.663 7.9928C29.4659 8.37204 29.4404 8.78674 29.3985 9.19887C29.3103 10.0681 29.2203 10.9371 29.1348 11.8066C29.1083 12.0757 29.097 12.3462 29.0726 12.6155C29.0509 12.8548 29.0142 12.8904 28.787 12.9378C28.1089 13.0794 27.431 13.2224 26.7525 13.3628C26.7106 13.3715 26.6653 13.364 26.5876 13.364C26.5981 13.2349 26.6078 13.1158 26.6203 12.9616C26.5303 13.0209 26.4622 13.0581 26.4028 13.106C25.8689 13.5379 25.2551 13.7944 24.578 13.8576C23.8064 13.9295 23.1263 13.5947 22.9364 12.677C22.8529 12.2734 22.8641 11.8733 22.9285 11.4681C23.0161 10.917 23.0874 10.3633 23.1632 9.81034C23.1807 9.68237 23.2234 9.5999 23.3702 9.57127C23.8563 9.47651 24.3391 9.36584 24.8238 9.26393C25.0863 9.2087 25.3498 9.1586 25.6428 9.10027C25.6428 9.22291 25.6542 9.32033 25.641 9.41434C25.5589 10.0031 25.4685 10.5906 25.387 11.1793C25.3587 11.3838 25.3328 11.5906 25.3329 11.7965C25.3331 12.0391 25.4114 12.101 25.6527 12.0784C26.0185 12.0441 26.2903 11.8461 26.5074 11.563C26.7112 11.2974 26.8091 10.9893 26.8436 10.6617C26.9173 9.963 26.9875 9.26382 27.0519 8.56422C27.0989 8.05295 27.1334 7.5405 27.1756 7.02881C27.1829 6.93928 27.2078 6.85105 27.213 6.76163C27.2207 6.62404 27.3087 6.58174 27.4241 6.55834C28.0863 6.42406 28.7481 6.28797 29.4102 6.15347C29.4881 6.13777 29.5674 6.12794 29.6758 6.11042Z" fill="#313640"/>
<path d="M22.7237 3.67233C22.6447 3.61518 22.5355 3.56796 22.5394 3.53303C22.5513 3.42482 22.5769 3.28327 22.6518 3.22569C22.7448 3.15423 22.7762 3.08949 22.7809 2.98459C22.7849 2.89506 22.8183 2.80587 22.8158 2.71709C22.81 2.51081 22.9101 2.41435 23.1034 2.36361C23.3625 2.29566 23.6149 2.20219 23.9102 2.1068C23.8802 2.4058 23.854 2.66795 23.8262 2.94442C23.9477 2.92743 24.0425 2.91408 24.1361 2.90105C24.1993 3.16608 24.1737 3.23905 23.9558 3.31585C23.8297 3.36029 23.7907 3.44768 23.7788 3.55974C23.751 3.81954 23.728 4.07987 23.7039 4.3401C23.6872 4.51946 23.6658 4.69872 23.6576 4.87861C23.6484 5.08222 23.7425 5.13916 23.9247 5.0474C24.0875 4.96536 24.1533 4.8346 24.1421 4.64979C24.1127 4.16779 24.2296 3.71773 24.48 3.30656C24.7903 2.79721 25.2686 2.54703 25.8456 2.49596C26.1327 2.47054 26.3734 2.59702 26.5066 2.87488C26.5451 2.95521 26.5816 3.0365 26.6177 3.11449C26.9476 3.06428 26.9814 3.02764 27.0107 2.74092C27.0253 2.59766 27.0297 2.44586 27.0825 2.31575C27.1492 2.15113 27.3395 2.22879 27.4696 2.1804C27.6283 2.12143 27.8012 2.09558 27.9703 2.07389C28.0215 2.06727 28.0806 2.12186 28.1544 2.15722C28.2804 2.09334 28.4359 2.00403 28.5995 1.93427C28.8074 1.84561 28.9914 1.91344 29.1418 2.06631C29.2505 2.17666 29.2652 2.40228 29.1898 2.55098C29.1132 2.70224 28.8266 2.89325 28.6789 2.84934C28.561 2.81431 28.4634 2.71079 28.3381 2.6248C28.1027 2.69455 28.0587 2.75064 28.035 3.01493C27.9853 3.57138 27.9312 4.12741 27.881 4.68387C27.8726 4.77745 27.8659 4.87487 27.7568 4.89934C27.4524 4.96728 27.1464 5.02699 26.8045 5.0975C26.8527 4.54211 26.8974 4.02667 26.9421 3.50942C26.6554 3.5435 26.6462 3.5544 26.634 3.83716C26.6077 4.44768 26.3568 4.94217 25.8267 5.254C25.3667 5.52448 24.8794 5.58698 24.34 5.26052C24.3139 5.30143 24.2842 5.36894 24.2361 5.41862C24.0582 5.60236 23.854 5.7438 23.6042 5.82061C23.1548 5.95873 22.9469 5.90478 22.6369 5.53538C22.5612 5.61144 22.4875 5.68697 22.412 5.76068C21.9971 6.16608 21.5038 6.36777 20.9199 6.33754C20.5854 6.32023 20.313 6.10444 20.2431 5.77702C20.1944 5.54863 20.1422 5.31692 20.2168 5.08148C20.2266 5.0505 20.2182 5.01375 20.2182 4.9785C20.0082 4.95884 20.0203 5.09558 20.0179 5.22334C20.0107 5.60407 19.8998 5.95264 19.673 6.25817C19.2949 6.76773 18.783 6.96792 18.1588 6.88374C17.7434 6.82765 17.5715 6.54617 17.537 6.23082C17.4579 5.50793 17.6173 4.84368 18.1913 4.34138C18.5316 4.04366 18.9339 3.90254 19.3911 3.94784C19.6519 3.97369 19.8165 4.12474 19.912 4.36104C19.9386 4.42695 19.9654 4.49276 19.9916 4.55728C20.2304 4.51893 20.3894 4.40783 20.5047 4.1961C20.7577 3.73141 21.1697 3.46477 21.6851 3.37856C21.8555 3.35004 22.0448 3.37236 22.214 3.41584C22.3912 3.46146 22.513 3.69947 22.5034 3.89207C22.4935 4.08906 22.3681 4.24684 22.1722 4.30859C21.9472 4.37952 21.8477 4.29897 21.8499 4.06599C21.8506 3.99527 21.8063 3.92412 21.7827 3.85319C21.7085 3.89378 21.6018 3.91611 21.5663 3.97871C21.4784 4.13393 21.401 4.30239 21.3592 4.47513C21.2829 4.78952 21.2164 5.11021 21.3131 5.43528C21.364 5.60631 21.4103 5.64285 21.583 5.62469C22.0329 5.57747 22.3398 5.31425 22.5779 4.95254C22.597 4.92369 22.6081 4.88598 22.6117 4.85127C22.6503 4.484 22.6869 4.11652 22.7231 3.74893C22.7266 3.71389 22.7237 3.67842 22.7237 3.67233ZM25.2151 4.25005C25.223 4.33337 25.2216 4.434 25.2438 4.52918C25.3032 4.78354 25.4865 4.83834 25.6674 4.64456C25.7558 4.54969 25.8117 4.41915 25.863 4.29662C25.9041 4.19834 25.9103 4.08607 25.9425 3.9833C25.9807 3.86195 25.9794 3.76313 25.8737 3.66774C25.7445 3.55108 25.7389 3.40121 25.8112 3.24684C25.8303 3.20625 25.86 3.16598 25.8627 3.12399C25.8654 3.085 25.8479 3.03554 25.8215 3.00734C25.8059 2.99068 25.7429 2.99217 25.7233 3.0099C25.6316 3.09312 25.5196 3.17078 25.4659 3.27633C25.314 3.57469 25.2355 3.89784 25.2151 4.25005ZM18.6113 5.67778C18.6113 5.75897 18.5938 5.84539 18.6159 5.92006C18.6419 6.00776 18.6854 6.12955 18.7525 6.15529C18.8249 6.18317 18.9394 6.12912 19.024 6.08756C19.0745 6.06278 19.1203 5.99847 19.1381 5.94249C19.2086 5.7203 19.27 5.49511 19.3276 5.26917C19.3368 5.23327 19.3235 5.17174 19.2973 5.15006C19.0989 4.98587 19.1084 4.80095 19.2215 4.59499C19.2384 4.56401 19.2374 4.49842 19.2163 4.47769C19.1911 4.45291 19.1186 4.43796 19.0958 4.4559C19.0066 4.52619 18.9041 4.59745 18.8515 4.69306C18.6843 4.99719 18.5985 5.32718 18.6113 5.67778Z" fill="#313640"/>
<path d="M14.6021 4.28585C14.1066 4.68228 14.0208 5.08812 14.2693 5.75514C14.0197 5.81016 13.7655 5.86891 13.5506 5.71476C13.343 5.56595 13.3141 5.32004 13.3675 5.07615C13.4249 4.814 13.5553 4.58497 13.7432 4.39823C14.4286 3.717 15.2518 3.34354 16.2246 3.41768C16.8797 3.46756 17.2503 3.80984 17.4081 4.49598C17.5991 5.32623 17.4272 6.11344 16.9715 6.82351C16.7039 7.24034 16.3221 7.52728 15.7913 7.52493C15.6669 7.5244 15.5428 7.49053 15.4119 7.47109C15.1045 7.7436 14.6925 7.69019 14.2951 7.8109C14.2371 7.39417 14.3717 7.0206 14.3838 6.64009C14.3961 6.25413 14.4517 5.86966 14.4883 5.48444C14.5246 5.10062 14.5611 4.717 14.6021 4.28585ZM15.6405 3.90844C15.6574 3.95886 15.6747 3.9845 15.6726 4.00843C15.6327 4.45688 15.5912 4.90523 15.5489 5.35347C15.5057 5.8109 15.4571 6.2678 15.4195 6.72566C15.402 6.93974 15.473 6.98973 15.6763 6.92104C15.9141 6.8406 16.0599 6.66156 16.1678 6.44481C16.2942 6.19088 16.3314 5.91399 16.3898 5.64052C16.4833 5.20306 16.4251 4.77725 16.3226 4.35508C16.247 4.04314 16.0001 3.84263 15.6967 3.8547C15.3834 3.86709 15.0901 3.97093 14.8297 4.16332C15.0989 4.07883 15.368 3.99411 15.6405 3.90844Z" fill="#313640"/>
<path d="M25.8745 7.84616C25.8885 8.18736 25.7447 8.47067 25.4982 8.68122C25.0516 9.06249 24.5499 9.24003 23.9488 9.05853C23.4055 8.89455 22.9893 8.28682 23.2753 7.64319C23.6339 6.83601 24.8212 6.46052 25.5359 7.08545C25.7587 7.28041 25.8767 7.53188 25.8745 7.84616Z" fill="#313640"/>
</svg>
