<svg width="77" height="17" viewBox="0 0 77 17" fill="none" xmlns="http://www.w3.org/2000/svg"><path d="M23.777 2.655A3.041 3.041 0 0021.63.508C19.737 0 12.142 0 12.142 0S4.548 0 2.655.508A3.041 3.041 0 00.508 2.655C0 4.548 0 8.5 0 8.5s0 3.952.508 5.845a3.04 3.04 0 002.147 2.147C4.548 17 12.142 17 12.142 17s7.595 0 9.488-.508a3.04 3.04 0 002.147-2.147c.508-1.893.508-5.845.508-5.845s-.003-3.952-.508-5.845z" fill="red"/><path d="M9.711 12.143l6.31-3.643-6.31-3.642v7.285z" fill="#fff"/><path d="M29.412 11.053l-2.726-9.847h2.378l.956 4.463c.244 1.1.422 2.038.538 2.813h.07c.08-.556.26-1.487.538-2.797l.989-4.48h2.379l-2.76 9.848v4.724H29.41v-4.724h.002zm5.838 4.412c-.48-.324-.822-.828-1.026-1.512-.202-.683-.304-1.59-.304-2.726V9.68c0-1.145.116-2.067.348-2.76.232-.694.593-1.202 1.085-1.52.492-.317 1.138-.477 1.937-.477.788 0 1.418.162 1.893.485.474.324.822.832 1.042 1.52.22.69.33 1.607.33 2.752v1.546c0 1.135-.108 2.047-.322 2.734-.214.69-.562 1.194-1.042 1.512-.48.317-1.131.477-1.953.477-.847.002-1.509-.161-1.989-.485zm2.69-1.668c.132-.347.2-.913.2-1.7V8.78c0-.764-.066-1.324-.2-1.675-.134-.354-.368-.53-.704-.53-.323 0-.553.176-.685.53-.134.353-.2.911-.2 1.675v3.316c0 .788.064 1.356.192 1.701.128.348.357.522.693.522.336 0 .57-.174.704-.522zm10.353 1.982h-1.875l-.208-1.303h-.052c-.51.983-1.273 1.475-2.293 1.475-.705 0-1.227-.232-1.563-.694-.336-.464-.504-1.187-.504-2.17V5.131h2.397v7.814c0 .476.052.814.156 1.016.104.202.278.303.522.303.208 0 .408-.063.6-.191s.331-.29.425-.486V5.13h2.395v10.649z" fill="#000"/><path d="M54.804 3.134h-2.379v12.644h-2.344V3.134H47.7V1.207h7.103v1.927z" fill="#000"/><path d="M60.585 15.779H58.71l-.208-1.303h-.052c-.51.983-1.273 1.475-2.293 1.475-.705 0-1.227-.232-1.563-.694-.336-.464-.504-1.187-.504-2.17V5.131h2.397v7.814c0 .476.052.814.156 1.016.104.202.278.303.522.303.208 0 .408-.063.6-.191s.331-.29.425-.486V5.13h2.395v10.649zm7.933-8.946c-.146-.672-.38-1.158-.704-1.46-.324-.301-.77-.451-1.337-.451-.44 0-.852.124-1.234.374s-.677.575-.885.981h-.018V.667h-2.31v15.11h1.98l.244-1.008h.052c.186.36.463.642.833.852.37.208.782.312 1.234.312.81 0 1.407-.374 1.789-1.12.382-.748.574-1.913.574-3.5V9.628c0-1.19-.074-2.123-.218-2.795zm-2.197 4.344c0 .775-.032 1.383-.096 1.823-.064.44-.17.754-.322.938a.74.74 0 01-.608.277c-.198 0-.38-.046-.548-.14a1.048 1.048 0 01-.407-.415V7.616c.08-.29.22-.525.417-.711.196-.186.412-.278.642-.278.244 0 .432.096.564.286.134.192.226.512.278.963.052.452.078 1.094.078 1.927v1.374h.002zm5.815.613c0 .684.02 1.196.06 1.538.04.342.124.59.252.748.128.155.324.233.59.233.357 0 .605-.14.737-.417.134-.278.206-.742.218-1.39l2.067.122c.012.092.018.22.018.382 0 .983-.27 1.72-.808 2.205-.537.486-1.299.73-2.283.73-1.181 0-2.009-.37-2.482-1.112-.476-.742-.712-1.887-.712-3.438V9.53c0-1.597.246-2.764.738-3.5.491-.735 1.333-1.103 2.526-1.103.822 0 1.454.15 1.894.452.44.301.75.77.93 1.407.179.638.269 1.517.269 2.64v1.824h-4.014v.54zm.304-5.017c-.122.15-.202.396-.244.738-.04.341-.06.86-.06 1.555v.763h1.753v-.763c0-.684-.024-1.202-.07-1.555-.046-.354-.13-.602-.252-.748-.122-.144-.31-.218-.564-.218-.255.002-.443.078-.563.228z" fill="#000"/></svg>