<svg width="164" height="149" viewBox="0 0 164 149" fill="none" xmlns="http://www.w3.org/2000/svg">
<ellipse cx="96.5" cy="96.3697" rx="91.5" ry="91.3697" stroke="white" stroke-width="10"/>
<path d="M75.0672 114.499C74.3222 112.549 74.0297 110.677 74.1312 108.76C74.3287 105.037 75.2195 101.505 77.2664 98.3449C79.5349 94.8424 82.7519 92.6399 86.8219 91.7338C87.9747 91.4771 89.1763 91.2992 90.3516 91.3185C91.9436 91.3451 93.3442 91.9386 94.2012 93.412C94.8391 94.5092 95.0139 95.7103 94.8991 96.9483C94.5385 100.831 92.1813 103.425 89.2109 105.596C87.7455 106.666 86.1172 107.449 84.3907 108C83.9136 108.153 83.6622 108.368 83.7415 108.852C83.8616 109.584 83.9357 110.341 84.1908 111.028C84.4507 111.728 85.0096 112.107 85.8521 112.132C87.5085 112.182 88.999 111.681 90.456 110.988C92.7418 109.901 94.3584 108.076 95.8448 106.111C96.3698 105.417 96.3005 104.561 96.3859 103.766C96.6829 101 96.9283 98.2286 97.191 95.4592C97.3417 93.8711 97.519 92.285 97.6193 90.6937C97.6552 90.1252 97.8216 89.8206 98.3941 89.7055C101.059 89.1704 103.719 88.6135 106.383 88.0711C106.541 88.0389 106.713 88.0671 107.006 88.0671C106.951 88.7769 106.911 89.4371 106.848 90.0954C106.728 91.3447 106.597 92.5928 106.468 93.8413C106.128 97.1483 105.778 100.454 105.452 103.762C105.366 104.641 105.325 105.526 105.316 106.408C105.306 107.35 105.768 107.644 106.713 107.406C108.465 106.964 109.559 105.737 110.45 104.289C111.6 102.422 112.397 100.402 112.795 98.2463C113.097 96.6136 113.323 94.9663 113.556 93.3219C113.612 92.928 113.565 92.5192 113.565 92.0271C113.205 92.0645 112.931 92.0372 112.701 92.1257C110.811 92.8511 108.8 90.5344 109.376 88.5242C109.701 87.3919 110.484 86.6762 111.534 86.2368C112.545 85.8139 113.592 85.5302 114.703 85.7672C116.475 86.145 117.304 87.4193 117.658 89.0424C118.411 92.4946 118.119 95.9239 117.355 99.3436C116.666 102.428 115.533 105.304 113.652 107.869C111.156 111.271 107.837 113.291 103.664 113.985C102.241 114.221 100.88 114.128 99.5376 113.692C98.2861 113.286 97.3884 112.431 96.7788 111.272C96.6704 111.065 96.564 110.858 96.4065 110.555C96.0442 110.95 95.7146 111.275 95.4241 111.631C93.7842 113.645 91.6829 115.041 89.4567 116.338C86.1083 118.288 82.4074 119.076 78.7041 119.883C76.681 120.323 74.6385 120.693 72.5904 120.996C70.9457 121.239 69.2815 121.418 67.6211 121.467C66.4925 121.5 65.7712 121.853 65.1076 122.813C63.6232 124.962 62.0292 127.043 60.378 129.069C58.4121 131.481 55.9615 133.287 53.0539 134.454C42.786 138.727 31.2485 135.38 32.9372 124.93C34.3897 118.897 38.2103 115.015 43.9787 112.987C47.5978 111.715 51.356 111.478 55.1604 111.833C55.4316 111.858 55.7044 111.869 55.9764 111.878C57.1638 111.918 57.2327 111.868 57.3153 110.664C57.3524 110.122 57.3391 109.575 57.3209 109.032C57.2726 107.606 57.2089 106.181 57.1521 104.755C57.0087 101.157 56.8826 97.5567 56.7141 93.9592C56.6541 92.6721 56.5119 91.3873 56.3712 90.1054C56.2782 89.2569 56.25 89.2533 55.353 89.2468C53.9565 89.2368 52.5523 89.3261 51.1642 89.215C47.9887 88.9615 45.3398 87.7384 43.9594 84.67C43.0092 82.5584 43.251 80.4279 44.2539 78.3711C44.3276 78.2198 44.4356 78.0834 44.54 77.9494C45.2749 77.0043 46.1428 76.8104 47.1066 77.498C47.9899 78.1281 48.7865 78.8785 49.635 79.5589C50.8313 80.5181 52.13 81.1981 53.7385 81.079C54.9618 80.9884 55.3051 80.741 55.4771 79.5464C55.787 77.397 56.0022 75.2327 56.3583 73.0918C57.0623 68.8618 58.2018 64.7883 61.1153 61.4564C63.2122 59.0584 65.8256 57.5097 69.0184 57.2397C71.7157 57.012 73.9858 58.1209 75.5632 60.3008C78.5441 64.4202 78.7948 68.8268 76.6064 73.3863C75.6108 75.4605 74.0587 77.1504 72.6662 78.9473C71.3965 80.5857 70.0608 82.1734 68.8178 83.8311C68.0844 84.8088 67.4317 85.8835 67.3374 87.136C67.2693 88.0397 67.3644 88.9615 67.449 89.8697C67.6888 92.4367 67.9277 95.0045 68.2295 97.5647C68.4725 99.6256 68.6993 101.683 68.5857 103.761C68.4837 105.625 68.3758 107.488 68.2388 109.35C68.1316 110.805 67.9773 112.256 67.8411 113.708C67.808 114.061 67.9051 114.305 68.3 114.362C68.5015 114.39 68.6977 114.492 68.8967 114.493C70.9001 114.503 72.9035 114.499 75.0672 114.499ZM55.8966 120.389C53.6442 119.918 51.4184 119.665 49.1846 119.954C48.1261 120.091 47.097 120.499 46.0739 120.844C45.4329 121.059 44.8325 121.392 44.2072 121.657C42.6933 122.299 41.6506 123.447 40.9229 124.862C39.9329 126.787 41.0421 128.866 43.1648 129.281C45.3426 129.705 47.3798 129.26 49.2587 128.222C52.273 126.555 54.3417 123.99 55.7926 120.905C55.8599 120.763 55.8583 120.59 55.8966 120.389ZM66.1093 74.8959C66.652 74.1826 67.1359 73.5782 67.5856 72.9497C68.817 71.2289 69.9133 69.4303 70.4835 67.3711C70.8179 66.1632 70.8139 64.9553 70.228 63.8014C69.8408 63.0389 69.2791 62.8719 68.5639 63.366C68.2654 63.5724 67.9793 63.8545 67.8016 64.1667C67.468 64.7541 67.1118 65.3629 66.953 66.0087C66.5735 67.5525 66.2273 69.1129 66.0126 70.6861C65.8309 72.0183 65.5863 73.3815 66.1093 74.8959ZM83.8165 104.322C83.8975 104.358 83.9285 104.386 83.9543 104.381C84.053 104.365 84.1574 104.354 84.2464 104.312C86.2256 103.384 87.6778 101.905 88.6472 99.9716C89.2879 98.6934 89.4511 97.3157 89.1295 95.9143C88.9655 95.2001 88.6895 95.0878 88.0267 95.3723C87.3163 95.6773 86.8082 96.2148 86.3848 96.8449C84.8585 99.115 84.2537 101.693 83.8165 104.322Z" fill="white"/>
<path d="M144.701 80.2248C144.701 80.6762 144.701 80.9748 144.701 81.3876C144.947 81.2299 145.137 81.1313 145.301 80.9993C147.146 79.5102 149.319 78.7501 151.624 78.7027C155.028 78.633 157.184 80.2006 157.542 83.9156C157.765 86.2283 157.405 88.5246 157.066 90.8128C156.871 92.1221 156.601 93.4406 156.608 94.7535C156.618 96.6514 156.992 97.1664 158.926 96.6103C159.619 96.4112 160.24 95.9634 160.884 95.6342C161.495 98.4978 159.847 101.468 157.064 102.696C155.744 103.278 154.366 103.581 152.9 103.531C149.894 103.427 148.165 101.171 147.961 98.7513C147.795 96.7898 147.912 94.8203 148.219 92.8564C148.491 91.117 148.595 89.3494 148.722 87.5907C148.755 87.1304 148.643 86.6432 148.517 86.1905C148.222 85.1267 147.629 84.8696 146.592 85.3065C145.66 85.6996 145.104 86.4472 144.653 87.3147C143.909 88.7431 143.813 90.305 143.655 91.8573C143.322 95.1313 142.983 98.4045 142.66 101.679C142.56 102.693 142.517 103.712 142.426 104.726C142.344 105.627 142.205 105.761 141.349 105.94C138.791 106.473 136.234 107.012 133.675 107.541C133.516 107.573 133.346 107.545 133.053 107.545C133.092 107.059 133.129 106.61 133.176 106.03C132.837 106.253 132.58 106.393 132.356 106.574C130.342 108.2 128.026 109.166 125.473 109.404C122.562 109.675 119.997 108.414 119.281 104.958C118.966 103.438 119.008 101.93 119.251 100.404C119.581 98.3284 119.851 96.243 120.136 94.1604C120.202 93.6784 120.364 93.3678 120.917 93.2599C122.75 92.903 124.572 92.4862 126.4 92.1023C127.39 91.8943 128.384 91.7056 129.489 91.4859C129.489 91.9478 129.532 92.3148 129.482 92.6689C129.172 94.8862 128.832 97.0992 128.524 99.3166C128.417 100.087 128.32 100.866 128.32 101.641C128.321 102.555 128.616 102.788 129.526 102.703C130.906 102.574 131.931 101.828 132.75 100.762C133.519 99.7612 133.888 98.6008 134.018 97.3672C134.296 94.7354 134.561 92.1019 134.804 89.4669C134.981 87.5412 135.111 85.6111 135.27 83.6838C135.298 83.3467 135.392 83.0143 135.411 82.6775C135.44 82.1593 135.772 82 136.208 81.9119C138.705 81.4061 141.201 80.8935 143.699 80.3869C143.993 80.3278 144.292 80.2908 144.701 80.2248Z" fill="white"/>
<path d="M118.481 71.0417C118.184 70.8265 117.772 70.6486 117.786 70.5171C117.831 70.1095 117.928 69.5763 118.21 69.3595C118.561 69.0903 118.68 68.8465 118.697 68.4514C118.712 68.1142 118.838 67.7782 118.829 67.4439C118.807 66.6669 119.184 66.3036 119.914 66.1125C120.891 65.8566 121.843 65.5045 122.957 65.1452C122.843 66.2714 122.745 67.2588 122.64 68.3001C123.098 68.2361 123.456 68.1858 123.809 68.1367C124.047 69.135 123.951 69.4098 123.129 69.6991C122.653 69.8664 122.506 70.1956 122.461 70.6176C122.356 71.5962 122.27 72.5767 122.179 73.5569C122.116 74.2324 122.035 74.9076 122.004 75.5851C121.969 76.352 122.324 76.5665 123.011 76.2209C123.626 75.9119 123.874 75.4194 123.831 74.7233C123.721 72.9079 124.161 71.2127 125.106 69.6641C126.276 67.7456 128.08 66.8033 130.257 66.611C131.34 66.5152 132.247 66.9916 132.75 68.0381C132.895 68.3407 133.033 68.6469 133.169 68.9406C134.413 68.7515 134.541 68.6135 134.651 67.5336C134.707 66.994 134.723 66.4223 134.922 65.9322C135.174 65.3122 135.892 65.6047 136.382 65.4224C136.981 65.2003 137.633 65.1029 138.271 65.0213C138.464 64.9963 138.687 65.2019 138.965 65.3351C139.441 65.0945 140.027 64.7581 140.644 64.4954C141.428 64.1614 142.122 64.4169 142.689 64.9927C143.1 65.4083 143.155 66.2581 142.871 66.8182C142.582 67.3879 141.501 68.1073 140.944 67.942C140.499 67.81 140.131 67.4201 139.658 67.0962C138.77 67.359 138.604 67.5702 138.515 68.5656C138.327 70.6615 138.123 72.7558 137.934 74.8516C137.902 75.2041 137.877 75.5711 137.465 75.6632C136.317 75.9191 135.163 76.144 133.874 76.4096C134.055 74.3177 134.224 72.3763 134.393 70.4281C133.311 70.5565 133.277 70.5975 133.231 71.6626C133.131 73.962 132.185 75.8245 130.186 76.999C128.451 78.0178 126.612 78.2532 124.578 77.0236C124.479 77.1777 124.367 77.432 124.186 77.6191C123.515 78.3111 122.745 78.8438 121.803 79.1331C120.108 79.6534 119.323 79.4502 118.154 78.0588C117.868 78.3453 117.59 78.6298 117.306 78.9074C115.741 80.4343 113.88 81.194 111.678 81.0801C110.416 81.0149 109.389 80.2022 109.125 78.969C108.942 78.1087 108.744 77.236 109.026 76.3492C109.063 76.2325 109.031 76.0941 109.031 75.9613C108.239 75.8873 108.285 76.4023 108.275 76.8835C108.248 78.3175 107.83 79.6304 106.975 80.7812C105.548 82.7004 103.618 83.4544 101.263 83.1374C99.6967 82.9261 99.0483 81.8659 98.9182 80.6782C98.6196 77.9554 99.2208 75.4536 101.386 73.5617C102.669 72.4403 104.187 71.9088 105.911 72.0794C106.895 72.1768 107.516 72.7457 107.876 73.6357C107.976 73.884 108.078 74.1318 108.176 74.3749C109.077 74.2304 109.677 73.812 110.112 73.0145C111.066 71.2642 112.62 70.2599 114.564 69.9352C115.207 69.8278 115.921 69.9119 116.559 70.0757C117.227 70.2475 117.687 71.1439 117.65 71.8694C117.613 72.6113 117.14 73.2056 116.401 73.4382C115.553 73.7053 115.177 73.402 115.186 72.5244C115.188 72.2581 115.021 71.9901 114.932 71.7229C114.652 71.8758 114.25 71.9599 114.116 72.1957C113.784 72.7803 113.493 73.4148 113.335 74.0654C113.047 75.2496 112.796 76.4575 113.161 77.6818C113.353 78.326 113.528 78.4636 114.179 78.3952C115.876 78.2174 117.034 77.226 117.932 75.8636C118.003 75.7549 118.045 75.6129 118.059 75.4821C118.204 74.0988 118.343 72.7147 118.479 71.3302C118.493 71.1982 118.481 71.0647 118.481 71.0417ZM127.878 73.2177C127.908 73.5315 127.903 73.9105 127.987 74.269C128.211 75.227 128.902 75.4335 129.584 74.7036C129.918 74.3463 130.129 73.8546 130.322 73.3931C130.477 73.0229 130.501 72.6001 130.622 72.213C130.766 71.7559 130.761 71.3837 130.363 71.0244C129.875 70.5851 129.854 70.0205 130.127 69.4391C130.199 69.2862 130.311 69.1346 130.321 68.9764C130.332 68.8296 130.265 68.6433 130.166 68.5371C130.107 68.4743 129.869 68.4799 129.796 68.5467C129.45 68.8601 129.027 69.1527 128.825 69.5502C128.252 70.674 127.955 71.8911 127.878 73.2177ZM102.97 78.5952C102.97 78.901 102.904 79.2265 102.987 79.5077C103.086 79.8381 103.25 80.2967 103.503 80.3937C103.776 80.4987 104.208 80.2951 104.527 80.1386C104.717 80.0453 104.89 79.8031 104.957 79.5922C105.223 78.7553 105.455 77.9071 105.672 77.0562C105.707 76.921 105.656 76.6892 105.558 76.6075C104.809 75.9891 104.845 75.2926 105.272 74.5169C105.336 74.4002 105.332 74.1532 105.252 74.0751C105.157 73.9818 104.884 73.9254 104.798 73.993C104.461 74.2578 104.075 74.5261 103.876 74.8863C103.246 76.0318 102.922 77.2746 102.97 78.5952Z" fill="white"/>
<path d="M87.8455 73.3521C85.9767 74.8452 85.6531 76.3738 86.5903 78.8861C85.6487 79.0933 84.6901 79.3146 83.8794 78.734C83.0965 78.1735 82.9873 77.2473 83.1888 76.3287C83.4052 75.3413 83.8971 74.4787 84.6059 73.7753C87.1911 71.2095 90.2961 69.8029 93.9652 70.0821C96.4363 70.27 97.8341 71.5592 98.4292 74.1435C99.1497 77.2706 98.5014 80.2356 96.7825 82.9101C95.7731 84.4801 94.333 85.5608 92.3309 85.5519C91.8619 85.5499 91.3937 85.4224 90.9001 85.3491C89.7404 86.3756 88.1863 86.1744 86.6874 86.629C86.4686 85.0594 86.9763 83.6524 87.0223 82.2192C87.0686 80.7655 87.2781 79.3174 87.4163 77.8665C87.5533 76.4208 87.6907 74.976 87.8455 73.3521ZM91.7623 71.9305C91.826 72.1205 91.8913 72.217 91.8832 72.3071C91.7329 73.9962 91.5762 75.6849 91.4166 77.3732C91.2538 79.0961 91.0705 80.817 90.9287 82.5415C90.8626 83.3478 91.1306 83.5361 91.8973 83.2774C92.7943 82.9744 93.3443 82.3001 93.7512 81.4837C94.2279 80.5273 94.3681 79.4844 94.5885 78.4544C94.9411 76.8067 94.7215 75.2029 94.3351 73.6128C94.0498 72.4379 93.1186 71.6827 91.9743 71.7282C90.7925 71.7748 89.686 72.1659 88.7041 72.8906C89.7195 72.5723 90.7345 72.2532 91.7623 71.9305Z" fill="white"/>
<path d="M130.367 86.7614C130.42 88.0465 129.878 89.1136 128.948 89.9066C127.263 91.3426 125.371 92.0113 123.104 91.3277C121.055 90.7101 119.485 88.4211 120.563 85.9969C121.916 82.9567 126.394 81.5424 129.09 83.8962C129.93 84.6305 130.376 85.5777 130.367 86.7614Z" fill="white"/>
</svg>
