<svg width="16" height="16" viewBox="0 0 16 16" fill="none" xmlns="http://www.w3.org/2000/svg">
<path d="M7.85451 5.21609C7.43935 5.21609 7.16554 5.25509 7.00781 5.29444V7.89901C7.18798 7.93836 7.39947 7.95124 7.69393 7.95124C8.77811 7.95124 9.44714 7.41431 9.44714 6.51176C9.44749 5.7001 8.8714 5.21609 7.85451 5.21609Z" fill="#20A1E5"/>
<path d="M14.0624 0H1.938C0.867348 0 0 0.848574 0 1.89528V14.1051C0 15.1518 0.867704 16 1.938 16H14.0624C15.133 16 16 15.1514 16 14.1051V1.89528C16.0004 0.848226 15.133 0 14.0624 0ZM14.8062 13.8011C14.8062 14.3711 14.334 14.8321 13.7519 14.8321H2.22641C1.6439 14.8321 1.17177 14.3704 1.17177 13.8011V2.2212C1.17177 1.65188 1.6439 1.19016 2.22641 1.19016H13.7515C14.334 1.19016 14.8058 1.65188 14.8058 2.2212L14.8062 13.8011Z" fill="#20A1E5"/>
<path d="M13.7504 1.91757H2.22525C2.05364 1.91757 1.91406 2.05337 1.91406 2.22155V13.8014C1.91406 13.9686 2.05328 14.1054 2.22525 14.1054H13.7504C13.9216 14.1054 14.0612 13.9689 14.0612 13.8014V2.22121C14.0612 2.05337 13.922 1.91757 13.7504 1.91757ZM10.6409 8.554C9.94557 9.19505 8.91159 9.48301 7.7067 9.48301C7.43931 9.48301 7.21037 9.46978 7.00742 9.44367V12.6061H5.00176V3.89398C5.63269 3.78917 6.51001 3.71048 7.75477 3.71048C9.01307 3.71048 9.90747 3.94621 10.5103 4.41768C11.0853 4.86234 11.4727 5.59566 11.4727 6.4592C11.4727 7.3238 11.1772 8.05711 10.6409 8.554Z" fill="#20A1E5"/>
</svg>
