<svg width="26" height="26" viewBox="0 0 26 26" fill="none" xmlns="http://www.w3.org/2000/svg">
<path d="M0.332031 25.6693L2.12199 19.1632C1.01772 17.2593 0.43701 15.0988 0.437675 12.886C0.440997 5.9631 6.09924 0.330856 13.0531 0.330856C16.4277 0.332179 19.5944 1.64002 21.9763 4.01292C24.3576 6.38648 25.6692 9.54064 25.6679 12.8959C25.6652 19.8188 20.0057 25.4517 13.0531 25.4517C13.0525 25.4517 13.0531 25.4517 13.0531 25.4517H13.0478C10.9369 25.451 8.86192 24.9238 7.01947 23.9229L0.332031 25.6693Z" fill="white"/>
<path d="M0.331922 26C0.244218 26 0.159172 25.9656 0.0960512 25.9021C0.0129981 25.8181 -0.0195587 25.6957 0.0116693 25.5826L1.76509 19.2081C0.678088 17.2857 0.104689 15.1027 0.106018 12.8865C0.108675 5.78042 5.91642 0 13.053 0C16.5147 0.00132305 19.767 1.34356 22.2114 3.7793C24.6559 6.21571 26.0013 9.45322 26 12.8958C25.9973 20.0013 20.1889 25.7824 13.053 25.7824C10.9342 25.7817 8.83789 25.2611 6.9775 24.2761L0.416304 25.9888C0.388398 25.9967 0.360492 26 0.331922 26Z" fill="white"/>
<path d="M20.4687 5.51186C18.4887 3.53919 15.8569 2.4523 13.0557 2.45164C7.27253 2.45164 2.56906 7.1326 2.56641 12.8866C2.56574 14.8586 3.11987 16.7783 4.16967 18.4407L4.41949 18.8357L3.35973 22.6864L7.32834 21.6505L7.71172 21.8767C9.32095 22.828 11.1667 23.3308 13.0484 23.3314H13.0524C18.8315 23.3314 23.535 18.6498 23.537 12.8952C23.5377 10.1068 22.4487 7.48453 20.4687 5.51186Z" fill="#40C351"/>
<path fill-rule="evenodd" clip-rule="evenodd" d="M9.90025 7.63733C9.66438 7.11472 9.41589 7.10414 9.19065 7.09488C9.0066 7.08694 8.79664 7.0876 8.58669 7.0876C8.37673 7.0876 8.03521 7.16632 7.74619 7.48055C7.45716 7.79477 6.64258 8.55354 6.64258 10.0975C6.64258 11.6416 7.7721 13.134 7.92957 13.343C8.08704 13.552 10.1102 16.822 13.3141 18.0802C15.9764 19.1254 16.5186 18.9177 17.0966 18.8654C17.6747 18.8132 18.9617 18.1067 19.2241 17.3737C19.4866 16.6407 19.4866 16.0129 19.4082 15.8819C19.3291 15.751 19.1192 15.6729 18.8042 15.5155C18.4893 15.358 16.9392 14.5992 16.6502 14.4947C16.3611 14.3902 16.1512 14.3379 15.9405 14.6522C15.7306 14.9657 15.1266 15.6729 14.9426 15.8819C14.7585 16.0916 14.5745 16.1181 14.2595 15.9607C13.9446 15.8032 12.9294 15.4725 11.7248 14.4034C10.7879 13.5719 10.1554 12.5445 9.97135 12.2303C9.7873 11.9167 9.95142 11.7467 10.1095 11.59C10.2511 11.449 10.4245 11.2235 10.5826 11.0402C10.7401 10.857 10.7926 10.726 10.8976 10.517C11.0025 10.3073 10.95 10.124 10.871 9.96723C10.7932 9.80978 10.1806 8.25784 9.90025 7.63733Z" fill="white"/>
</svg>
