<svg width="132" height="45" viewBox="0 0 132 45" fill="none" xmlns="http://www.w3.org/2000/svg">
<path d="M56.3892 23.7578C56.3892 29.9944 51.5103 34.5901 45.5227 34.5901C39.5352 34.5901 34.6562 29.9944 34.6562 23.7578C34.6562 17.4772 39.5352 12.9255 45.5227 12.9255C51.5103 12.9255 56.3892 17.4772 56.3892 23.7578ZM51.6324 23.7578C51.6324 19.8605 48.8047 17.1939 45.5227 17.1939C42.2408 17.1939 39.4131 19.8605 39.4131 23.7578C39.4131 27.616 42.2408 30.3216 45.5227 30.3216C48.8047 30.3216 51.6324 27.6111 51.6324 23.7578Z" fill="#EA4335"/>
<path d="M79.8345 23.7578C79.8345 29.9944 74.9556 34.5901 68.9681 34.5901C62.9805 34.5901 58.1016 29.9944 58.1016 23.7578C58.1016 17.4821 62.9805 12.9255 68.9681 12.9255C74.9556 12.9255 79.8345 17.4772 79.8345 23.7578ZM75.0777 23.7578C75.0777 19.8605 72.25 17.1939 68.9681 17.1939C65.6861 17.1939 62.8584 19.8605 62.8584 23.7578C62.8584 27.616 65.6861 30.3216 68.9681 30.3216C72.25 30.3216 75.0777 27.6111 75.0777 23.7578Z" fill="#FBBC05"/>
<path d="M102.297 13.5799V33.0273C102.297 41.027 97.5795 44.2942 92.0022 44.2942C86.7521 44.2942 83.5922 40.7828 82.4006 37.9111L86.5421 36.1871C87.2795 37.9502 89.0865 40.0307 91.9973 40.0307C95.5673 40.0307 97.7797 37.8281 97.7797 33.6817V32.1238H97.6137C96.549 33.4375 94.4978 34.5852 91.9094 34.5852C86.4932 34.5852 81.5312 29.8674 81.5312 23.7968C81.5312 17.6823 86.4932 12.9255 91.9094 12.9255C94.4929 12.9255 96.5441 14.0732 97.6137 15.3478H97.7797V13.5848H102.297V13.5799ZM98.1167 23.7968C98.1167 19.9826 95.5722 17.1939 92.3343 17.1939C89.0523 17.1939 86.3027 19.9826 86.3027 23.7968C86.3027 27.572 89.0523 30.3216 92.3343 30.3216C95.5722 30.3216 98.1167 27.572 98.1167 23.7968Z" fill="#4285F4"/>
<path d="M109.745 2.18201V33.9268H105.105V2.18201H109.745Z" fill="#34A853"/>
<path d="M127.825 27.3237L131.517 29.7851C130.325 31.5482 127.453 34.5859 122.491 34.5859C116.338 34.5859 111.742 29.8291 111.742 23.7536C111.742 17.3118 116.377 12.9213 121.959 12.9213C127.58 12.9213 130.33 17.3949 131.229 19.8124L131.722 21.0431L117.241 27.0404C118.35 29.2137 120.074 30.3223 122.491 30.3223C124.914 30.3223 126.594 29.1307 127.825 27.3237ZM116.46 23.4264L126.14 19.407C125.607 18.0542 124.005 17.1116 122.12 17.1116C119.703 17.1116 116.338 19.2458 116.46 23.4264Z" fill="#EA4335"/>
<path d="M17.0943 20.9404V16.3447H32.5809C32.7323 17.1456 32.8105 18.0931 32.8105 19.1187C32.8105 22.5667 31.8679 26.8302 28.8301 29.868C25.8754 32.9448 22.1002 34.5858 17.0992 34.5858C7.82973 34.5858 0.0351562 27.0354 0.0351562 17.7659C0.0351562 8.4964 7.82973 0.946014 17.0992 0.946014C22.2272 0.946014 25.8803 2.95815 28.625 5.58076L25.3822 8.82361C23.414 6.97753 20.7474 5.54169 17.0943 5.54169C10.3254 5.54169 5.0313 10.9969 5.0313 17.7659C5.0313 24.5349 10.3254 29.9901 17.0943 29.9901C21.4849 29.9901 23.9854 28.227 25.5873 26.6251C26.8864 25.326 27.7411 23.4702 28.078 20.9355L17.0943 20.9404Z" fill="#4285F4"/>
</svg>
