<svg width="197" height="18" viewBox="0 0 197 18" fill="none" xmlns="http://www.w3.org/2000/svg">
<path fill-rule="evenodd" clip-rule="evenodd" d="M39.6113 0.889571C37.1322 1.71515 36.4154 2.62064 36.3234 5.76319C36.2773 7.48094 36.1721 12.5809 36.4549 14.0124C37.3032 18.1004 44.8195 18.2402 48.5941 17.1083C51.0205 16.376 51.494 15.3373 51.54 12.3079C51.5861 10.0709 51.54 8.06682 51.5861 6.38237C51.5861 3.0534 50.843 1.00941 47.2591 0.603279C45.0036 0.330303 41.6104 0.230434 39.6048 0.889571H39.6113ZM48.6335 13.007V5.49687C48.6927 3.3863 45.5888 3.65927 44.0303 3.65927C42.3206 3.65927 39.3351 3.47951 39.3351 5.49687V13.007C39.3351 14.059 40.6503 14.4518 42.143 14.5583C43.512 14.6066 44.8825 14.5665 46.2465 14.4385C47.6405 14.332 48.548 13.9392 48.6072 12.9937L48.6335 13.007Z" fill="#EC2327"/>
<path fill-rule="evenodd" clip-rule="evenodd" d="M20.892 0.461493C24.522 0.461493 28.6033 0.210427 30.8462 0.671847C33.0893 1.13327 34.264 2.55823 34.264 5.42175C34.264 10.1717 32.7774 11.5287 29.4792 11.8748C29.3843 11.8822 29.2888 11.8822 29.1938 11.8748C27.2428 12.0445 24.668 11.8748 21.4096 11.8748V16.1294C21.4096 16.5505 21.246 16.9544 20.9548 17.2522C20.6636 17.5499 20.2686 17.7172 19.8568 17.7172C19.4449 17.7172 19.0499 17.5499 18.7587 17.2522C18.4675 16.9544 18.3039 16.5505 18.3039 16.1294V13.4152C18.2442 11.4202 18.3039 9.0588 18.3039 7.08422C18.3039 5.47604 18.3636 3.7525 18.3039 2.14431C18.2766 1.95893 18.2854 1.76987 18.3296 1.58795C18.3739 1.40604 18.453 1.23485 18.5621 1.0842C18.6712 0.933543 18.8083 0.806385 18.9655 0.71001C19.1228 0.613634 19.2972 0.549936 19.4785 0.522563C19.9443 0.454279 20.4156 0.43382 20.8854 0.461493H20.892ZM29.2602 3.66428H21.4162V8.73989H28.3179C30.3088 8.73989 31.3307 8.60417 31.417 6.28352C31.5033 3.96285 30.833 3.71179 29.2602 3.66428Z" fill="#EC2327"/>
<path d="M16.2812 16.1215V9.44332V6.47665C16.2943 3.09496 15.5208 1.01968 11.9349 0.604621C9.68639 0.339257 6.27748 0.216781 4.26493 0.897201C1.80005 1.72731 1.07894 2.64589 0.98716 5.84386C0.98716 7.07542 0.92816 10.0149 0.98716 12.1513V16.1046C0.988019 16.3137 1.02855 16.5206 1.10643 16.7134C1.18432 16.9062 1.29803 17.0813 1.44109 17.2285C1.58414 17.3757 1.75373 17.4922 1.94018 17.5714C2.12662 17.6506 2.32626 17.6909 2.52771 17.69C2.93403 17.69 3.3239 17.5234 3.61244 17.2265C3.90097 16.9295 4.06481 16.5263 4.06827 16.1046V9.68826V9.56579V5.57169C4.06827 3.52363 7.06414 3.70734 8.7817 3.70734C10.3091 3.70734 13.3313 3.43517 13.2722 5.57169V14.9751V16.1319C13.2731 16.3409 13.3136 16.5478 13.3915 16.7406C13.4694 16.9334 13.5831 17.1085 13.7262 17.2556C13.8692 17.4029 14.0388 17.5194 14.2253 17.5986C14.4117 17.6778 14.6113 17.7181 14.8128 17.7172C15.2179 17.7172 15.6064 17.5502 15.8929 17.2529C16.1793 16.9556 16.2812 16.5421 16.2812 16.1215Z" fill="#EC2327"/>
<path fill-rule="evenodd" clip-rule="evenodd" d="M53.582 16.1275C53.5838 15.7027 53.748 15.2959 54.0392 14.9956C54.3302 14.6953 54.7245 14.5259 55.1362 14.524H56.1679L62.8939 1.26024C63.0392 0.975555 63.2633 0.741852 63.5377 0.588791C63.812 0.435728 64.1243 0.370208 64.4348 0.400544C64.7425 0.371652 65.0515 0.438004 65.3224 0.591128C65.5934 0.744253 65.8139 0.977202 65.9559 1.26024L72.6819 14.524H73.3433C73.7549 14.5259 74.1492 14.6953 74.4403 14.9956C74.7314 15.2959 74.8957 15.7027 74.8974 16.1275C74.8965 16.3371 74.8557 16.5445 74.7771 16.7379C74.6985 16.9313 74.5838 17.1068 74.4395 17.2544C74.2952 17.402 74.124 17.5189 73.936 17.5983C73.7479 17.6777 73.5465 17.7181 73.3433 17.7172H55.1362C54.9329 17.7181 54.7315 17.6777 54.5434 17.5983C54.3554 17.5189 54.1843 17.402 54.0399 17.2544C53.8956 17.1068 53.7809 16.9313 53.7023 16.7379C53.6238 16.5445 53.5829 16.3371 53.582 16.1275ZM64.4348 5.13568L59.6665 14.524H69.1833L64.4348 5.13568Z" fill="#117DC1"/>
<path fill-rule="evenodd" clip-rule="evenodd" d="M95.9292 0.453756C96.1529 0.454645 96.3751 0.496568 96.5814 0.577132C96.7886 0.657695 96.9761 0.775322 97.1335 0.923296C97.2917 1.07127 97.4168 1.24669 97.5019 1.43955C97.5862 1.6324 97.6299 1.83892 97.6284 2.04728V6.72616L106.828 0.68431C107.199 0.443075 107.657 0.346339 108.105 0.414753C108.552 0.483168 108.952 0.711312 109.221 1.05048C109.351 1.22178 109.443 1.41528 109.493 1.61988C109.543 1.82448 109.548 2.03617 109.51 2.24281C109.471 2.44945 109.389 2.64696 109.268 2.82402C109.147 3.00109 108.99 3.15422 108.805 3.27465L100.051 9.05202L108.805 14.8295C109.177 15.0738 109.429 15.445 109.507 15.8618C109.585 16.2786 109.482 16.7071 109.221 17.0536C108.953 17.3935 108.554 17.6232 108.107 17.6941C107.66 17.765 107.202 17.6714 106.828 17.4333L97.6284 11.3847V16.1314C97.6284 16.3385 97.5847 16.5437 97.4989 16.735C97.4137 16.9263 97.288 17.1 97.1305 17.2462C96.9724 17.3924 96.7848 17.5081 96.5792 17.5868C96.3728 17.6655 96.1521 17.7055 95.9292 17.7046C95.478 17.7046 95.0449 17.5395 94.724 17.245C94.4031 16.9506 94.2201 16.5505 94.2148 16.1314V2.04728C94.2186 1.62576 94.4001 1.22249 94.721 0.924407C95.0419 0.626326 95.4757 0.457299 95.9292 0.453756Z" fill="#117DC1"/>
<path fill-rule="evenodd" clip-rule="evenodd" d="M120.849 3.58527V16.1349C120.845 16.5546 120.67 16.956 120.362 17.2522C120.054 17.5483 119.637 17.7154 119.202 17.7172C118.987 17.7181 118.772 17.6778 118.572 17.5987C118.373 17.5196 118.191 17.4032 118.038 17.2562C117.885 17.1091 117.764 16.9344 117.681 16.742C117.599 16.5496 117.556 16.3432 117.556 16.1349V3.58527H113.196C112.758 3.58529 112.337 3.4183 112.026 3.12066C111.715 2.82302 111.539 2.41883 111.535 1.99611C111.539 1.57213 111.714 1.16651 112.025 0.866698C112.336 0.566884 112.756 0.396874 113.196 0.393311H125.209C125.426 0.394204 125.641 0.436371 125.841 0.517403C126.041 0.598436 126.223 0.716747 126.376 0.865581C126.529 1.01442 126.65 1.19086 126.732 1.38483C126.815 1.57881 126.856 1.78652 126.856 1.99611C126.856 2.41759 126.682 2.82179 126.373 3.11981C126.065 3.41785 125.646 3.58527 125.209 3.58527H120.849Z" fill="#117DC1"/>
<path fill-rule="evenodd" clip-rule="evenodd" d="M184.796 7.35009H191.069C193.284 7.35009 194.125 7.42497 194.125 5.53262C194.125 4.17121 193.618 3.59261 191.069 3.59261H184.796V7.35009ZM184.796 14.5315H192.706C193.849 14.2865 194.125 13.7146 194.125 12.714C194.125 10.8217 193.284 10.9033 191.069 10.9033H184.796V14.5451V14.5315ZM192.854 17.7172C189.573 17.7172 186.266 17.7172 182.985 17.7172C182.588 17.719 182.206 17.5538 181.923 17.2579C181.641 16.9619 181.48 16.5592 181.477 16.138V1.99296C181.478 1.57043 181.637 1.16561 181.918 0.866198C182.2 0.566785 182.581 0.396888 182.979 0.393311C185.765 0.393311 188.68 0.393311 191.422 0.393311C194.164 0.393311 196.789 1.51647 196.789 4.89957C196.833 6.00403 196.692 7.108 196.372 8.16015C196.304 8.34272 196.22 8.51822 196.121 8.68431C196.045 8.83608 196.011 9.00811 196.026 9.17962C196.039 9.3512 196.099 9.5148 196.199 9.65091C196.281 9.8255 196.354 10.0051 196.417 10.1886C196.701 11.2017 196.826 12.257 196.789 13.313C196.768 14.4338 196.351 15.5054 195.621 16.3168C194.892 17.1281 193.902 17.6205 192.847 17.6968L192.854 17.7172Z" fill="#117DC1"/>
<path fill-rule="evenodd" clip-rule="evenodd" d="M80.2439 0.889571C77.7651 1.71515 77.0481 2.62064 76.9562 5.76319C76.9102 7.48094 76.8048 12.5809 77.088 14.0124C77.9361 18.1004 85.4592 18.2402 89.2335 17.1083C91.6536 16.376 92.1266 15.3373 92.1726 12.3079C92.2193 10.0709 92.1726 8.06682 92.2193 6.38237C92.2193 3.0534 91.4759 1.00941 87.8921 0.603279C85.6362 0.330303 82.243 0.230434 80.2379 0.889571H80.2439ZM89.2667 13.007V5.49687C89.3254 3.3863 86.2214 3.65927 84.663 3.65927C82.9533 3.65927 79.9683 3.47951 79.9683 5.49687V13.007C79.9683 14.059 81.2834 14.4518 82.7762 14.5583C84.1448 14.6063 85.5157 14.5663 86.879 14.4385C88.2732 14.332 89.1808 13.9392 89.2403 12.9937L89.2667 13.007Z" fill="#117DC1"/>
<path fill-rule="evenodd" clip-rule="evenodd" d="M132.204 0.889571C129.732 1.71515 129.001 2.62064 128.909 5.76319C128.863 7.48094 128.764 12.5809 129.06 14.0124C129.89 18.1004 137.441 18.2402 141.21 17.1083C143.634 16.376 144.116 15.3373 144.175 12.3079C144.175 10.0709 144.175 8.06682 144.175 6.38237C144.208 3.0534 143.43 1.00941 139.846 0.603279C137.593 0.330303 134.2 0.230434 132.177 0.889571H132.204ZM141.23 13.007V5.49687C141.289 3.3863 138.173 3.65927 136.617 3.65927C134.911 3.65927 131.914 3.47951 131.914 5.49687V13.007C131.914 14.059 133.231 14.4518 134.746 14.5583C136.111 14.6064 137.478 14.5664 138.838 14.4385C140.242 14.332 141.144 13.9392 141.21 12.9937L141.23 13.007Z" fill="#117DC1"/>
<path fill-rule="evenodd" clip-rule="evenodd" d="M167.497 0.889571C165.011 1.71515 164.3 2.62064 164.208 5.76319C164.169 7.48094 164.064 12.5809 164.347 14.0124C165.195 18.1004 172.714 18.2402 176.49 17.1083C178.918 16.376 179.391 15.3373 179.437 12.3079C179.477 10.0709 179.437 8.06682 179.477 6.38237C179.477 3.0534 178.733 1.00941 175.155 0.603279C172.892 0.330303 169.504 0.230434 167.497 0.889571ZM176.55 13.007V5.49687C176.608 3.3863 173.497 3.65927 171.944 3.65927C170.234 3.65927 167.241 3.47951 167.241 5.49687V13.007C167.241 14.059 168.556 14.4518 170.056 14.5583C171.424 14.6066 172.793 14.5666 174.155 14.4385C175.556 14.332 176.464 13.9392 176.523 12.9937L176.55 13.007Z" fill="#117DC1"/>
<path fill-rule="evenodd" clip-rule="evenodd" d="M148.992 0.444389C152.63 0.444389 156.484 0.227113 158.724 0.688808C160.965 1.1505 162.159 2.57633 162.159 5.44156C162.159 10.1943 160.673 11.5522 157.379 11.9053C157.284 11.9123 157.188 11.9123 157.093 11.9053C155.105 12.075 152.552 11.9392 149.317 11.9392V16.1285C149.317 16.5498 149.154 16.9539 148.863 17.2519C148.572 17.5499 148.177 17.7172 147.766 17.7172C147.355 17.7172 146.96 17.5499 146.67 17.2519C146.378 16.9539 146.215 16.5498 146.215 16.1285V13.4126C146.142 11.4164 146.175 9.05361 146.215 7.07107C146.215 5.46193 146.261 3.74415 146.215 2.135C146.16 1.75959 146.252 1.37711 146.472 1.07157C146.692 0.76604 147.022 0.562438 147.388 0.505488C147.849 0.440825 148.315 0.420358 148.78 0.444372L148.992 0.444389ZM157.107 3.67625H149.311V8.75488H156.192C158.181 8.75488 159.215 8.61908 159.308 6.30384C159.4 3.98857 158.718 3.72378 157.1 3.67625H157.107Z" fill="#117DC1"/>
</svg>
