<svg width="124" height="37" viewBox="0 0 124 37" fill="none" xmlns="http://www.w3.org/2000/svg">
<path d="M117.733 31.9831C120.152 31.9831 121.868 31.5424 123.143 30.6191V26.3526C121.823 27.2758 120.239 27.8482 118.04 27.8482C114.302 27.8482 112.762 24.9446 112.762 20.37C112.762 15.575 114.654 13.1122 118.085 13.1122C120.108 13.1122 122.087 13.8162 123.143 14.4762V10.0332C122.043 9.41697 120.108 8.97726 117.512 8.97726C110.827 8.97726 107.351 13.7723 107.351 20.5016C107.351 27.8921 110.738 31.9831 117.733 31.9831ZM85.0063 30.0467V25.7802C83.3791 26.88 80.6521 27.8482 78.1005 27.8482C74.2726 27.8482 72.8219 26.0444 72.6015 22.3492H85.2257V19.5783C85.2257 11.8808 81.8385 8.97726 76.6049 8.97726C70.2265 8.97726 67.1903 13.86 67.1903 20.5455C67.1903 28.244 70.9743 31.9821 77.6597 31.9821C81.003 31.9821 83.4668 31.1027 85.0063 30.0467ZM37.0603 9.41697V18.1704H30.0657V9.41697H24.832V31.5424H30.0657V22.3064H37.0603V31.5434H42.2951V9.41911H37.0603V9.41697ZM65.9161 27.4096H63.5838V9.41697H48.3215V11.3084C48.3215 16.7186 47.9706 23.7133 46.1229 27.4085H44.4947V36.6016H49.3335V31.5424H61.0783V36.6016H65.9172V27.4085L65.9161 27.4096ZM101.722 31.5434H107.659L99.2577 19.6233L106.648 9.41804H101.37L93.9791 19.6233V9.41804H88.7454V31.5434H93.9791V20.6781L101.722 31.5424V31.5434ZM76.5161 13.1133C79.1115 13.1133 79.9032 15.269 79.9032 18.0399V18.4796H72.6015C72.7342 14.9598 74.0094 13.1133 76.5172 13.1133H76.5161ZM58.3502 27.4096H50.9597C52.4115 24.0663 52.8073 18.0399 52.8073 14.2131V13.553H58.3491V27.4096H58.3502Z" fill="black"/>
<path d="M20.4349 31.5425H15.1125V5.10668H12.7374C8.38316 5.10668 6.09583 7.3052 6.09583 10.5607C6.09583 14.2549 7.6792 15.9709 10.9337 18.1705L13.6168 19.9743L5.87545 31.5425H0.113281L7.06297 21.2057C3.0607 18.346 0.817237 15.5751 0.817237 10.8688C0.817237 4.97402 4.90831 0.971741 12.6936 0.971741H20.4349V31.5425Z" fill="#FC3F1D"/>
</svg>
