<svg width="101" height="25" viewBox="0 0 101 25" fill="none" xmlns="http://www.w3.org/2000/svg">
<path d="M1.29373 1.16997H22.1545C22.6403 1.16997 23.0341 1.56381 23.0341 2.04964V6.15189C23.0341 6.69832 22.797 7.21569 22.3842 7.57373L10.7188 17.3327H22.1545C22.6403 17.3327 23.0341 17.7193 23.0341 18.2052V22.9147C23.0341 23.4005 22.6403 23.7943 22.1545 23.7943H1.29373C0.807904 23.7943 0.414062 23.4005 0.414062 22.9147V18.8191C0.414062 18.2727 0.651177 17.7553 1.06397 17.3973L12.7294 7.63835H1.29373C0.807904 7.63835 0.414062 7.23554 0.414062 6.74971V2.04964C0.414062 1.56381 0.807904 1.16997 1.29373 1.16997ZM37.5756 0.367615C39.9877 0.367615 42.1381 0.910029 43.9334 1.90125C45.7286 2.89248 47.1687 4.33251 48.1599 6.12776C49.1511 7.923 49.6935 10.0735 49.6935 12.4855C49.6935 14.8976 49.1511 17.048 48.1599 18.8433C47.1687 20.6385 45.7286 22.0785 43.9334 23.0698C42.1381 24.061 39.9877 24.6034 37.5756 24.6034C35.1636 24.6034 33.0131 24.061 31.2179 23.0698C29.4226 22.0785 27.9826 20.6385 26.9914 18.8433C26.0001 17.048 25.4577 14.8976 25.4577 12.4855C25.4577 10.0735 26.0001 7.923 26.9914 6.12776C27.9826 4.33251 29.4226 2.89248 31.2179 1.90125C33.0131 0.910029 35.1636 0.367615 37.5756 0.367615ZM37.5756 6.83049C36.4218 6.83049 35.4089 7.07422 34.5711 7.5274C33.7333 7.98058 33.0707 8.6432 32.6175 9.48098C32.1643 10.3188 31.9206 11.3317 31.9206 12.4855C31.9206 13.6393 32.1643 14.6523 32.6175 15.4901C33.0707 16.3278 33.7333 16.9905 34.5711 17.4436C35.4089 17.8968 36.4218 18.1405 37.5756 18.1405C38.7294 18.1405 39.7424 17.8968 40.5802 17.4436C41.4179 16.9905 42.0806 16.3278 42.5337 15.4901C42.9869 14.6523 43.2306 13.6393 43.2306 12.4855C43.2306 11.3317 42.9869 10.3188 42.5337 9.48098C42.0806 8.6432 41.4179 7.98058 40.5802 7.5274C39.7424 7.07422 38.7294 6.83049 37.5756 6.83049ZM63.4271 0.367615C65.8392 0.367615 67.9896 0.910029 69.7849 1.90125C71.5801 2.89248 73.0202 4.33251 74.0114 6.12776C75.0026 7.923 75.545 10.0735 75.545 12.4855C75.545 14.8976 75.0026 17.048 74.0114 18.8433C73.0202 20.6385 71.5801 22.0785 69.7849 23.0698C67.9896 24.061 65.8392 24.6034 63.4271 24.6034C61.0151 24.6034 58.8646 24.061 57.0694 23.0698C55.2741 22.0785 53.8341 20.6385 52.8429 18.8433C51.8517 17.048 51.3092 14.8976 51.3092 12.4855C51.3092 10.0735 51.8517 7.923 52.8429 6.12776C53.8341 4.33251 55.2741 2.89248 57.0694 1.90125C58.8646 0.910029 61.0151 0.367615 63.4271 0.367615ZM63.4271 6.83049C62.2733 6.83049 61.2604 7.07422 60.4226 7.5274C59.5848 7.98058 58.9222 8.6432 58.469 9.48098C58.0158 10.3188 57.7721 11.3317 57.7721 12.4855C57.7721 13.6393 58.0158 14.6523 58.469 15.4901C58.9222 16.3278 59.5848 16.9905 60.4226 17.4436C61.2604 17.8968 62.2733 18.1405 63.4271 18.1405C64.5809 18.1405 65.5939 17.8968 66.4317 17.4436C67.2695 16.9905 67.9321 16.3278 68.3852 15.4901C68.8384 14.6523 69.0822 13.6393 69.0822 12.4855C69.0822 11.3317 68.8384 10.3188 68.3852 9.48098C67.9321 8.6432 67.2695 7.98058 66.4317 7.5274C65.5939 7.07422 64.5809 6.83049 63.4271 6.83049ZM100.591 2.05244V22.9143C100.591 23.4002 100.198 23.794 99.7117 23.794H95.6123C95.0659 23.794 94.5485 23.5569 94.1904 23.1442L84.4315 11.4801V22.9143C84.4315 23.4002 84.0287 23.794 83.5428 23.794H78.8456C78.3597 23.794 77.9659 23.4002 77.9659 22.9143V2.05244C77.9659 1.56659 78.3597 1.17272 78.8456 1.17272H82.945C83.4915 1.17272 84.0088 1.4099 84.3669 1.82279L94.1258 13.4909V2.05244C94.1258 1.56659 94.5124 1.17272 94.9983 1.17272H99.7117C100.198 1.17272 100.591 1.56659 100.591 2.05244Z" fill="url(#paint0_linear)"/>
<defs>
<linearGradient id="paint0_linear" x1="77.8944" y1="12.4855" x2="22.264" y2="12.4855" gradientUnits="userSpaceOnUse">
<stop stop-color="#6339F5"/>
<stop offset="1" stop-color="#3D3F55"/>
</linearGradient>
</defs>
</svg>
